<svg xmlns="http://www.w3.org/2000/svg" width="268" height="268" viewBox="0 0 268 268">
  <g fill="none" fill-rule="evenodd">
    <path fill="#002F63" d="M140,0 C210.692,0 268,57.308 268,128 C268,128 268,132.519043 267.347656,135.450684 L140,128 L140,0 Z"/>
    <path fill="#0081EE" d="M128,12 C57.308,12 0,69.308 0,140 C0,210.692 57.308,268 128,268 C196.025126,268 251.657034,214.934357 255.757677,147.941119 C255.757677,147.941119 128,140 128,140 L128,12 Z"/>
    <path fill="#FFFFFF" d="M55.365 159.65L55.365 153.826 68.495 153.826 68.495 156.894 61.137 172 56.717 172 63.737 157.31 59.161 157.31 59.161 159.65 55.365 159.65zM71.147 157.284L71.147 153.826 82.275 153.826 82.275 156.634 78.557 160.872C80.0130073 161.114668 81.1396627 161.725662 81.937 162.705 82.7343373 163.684338 83.133 164.815327 83.133 166.098 83.133 168.004676 82.4873398 169.499661 81.196 170.583 79.9046602 171.666339 78.2536767 172.208 76.243 172.208 74.2323233 172.208 72.195677 171.49734 70.133 170.076L71.797 166.852C73.5130086 168.065339 75.0469932 168.672 76.399 168.672 77.2136707 168.672 77.8853307 168.472669 78.414 168.074 78.9426693 167.675331 79.207 167.099004 79.207 166.345 79.207 165.590996 78.9036697 164.993002 78.297 164.551 77.6903303 164.108998 76.849672 163.888 75.775 163.888 75.2029971 163.888 74.3970052 164.052665 73.357 164.382L73.357 161.392 76.841 157.284 71.147 157.284zM103.881 153.826L90.855 172 86.383 172 99.435 153.826 103.881 153.826zM100.293 169.842C100.605002 169.842 100.864999 169.725001 101.073 169.491 101.281001 169.256999 101.385 168.949335 101.385 168.568 101.385 168.186665 101.281001 167.870335 101.073 167.619 100.864999 167.367665 100.609335 167.242 100.306 167.242 100.002665 167.242 99.747001 167.367665 99.539 167.619 99.330999 167.870335 99.227 168.186665 99.227 168.568 99.227 168.949335 99.3266657 169.256999 99.526 169.491 99.7253343 169.725001 99.9809984 169.842 100.293 169.842zM103.049 171.155C102.320996 171.857004 101.406672 172.208 100.306 172.208 99.2053278 172.208 98.2910036 171.85267 97.563 171.142 96.8349964 170.43133 96.471 169.569005 96.471 168.555 96.471 167.540995 96.8349964 166.67867 97.563 165.968 98.2910036 165.25733 99.2053278 164.902 100.306 164.902 101.406672 164.902 102.320996 165.25733 103.049 165.968 103.777004 166.67867 104.141 167.545328 104.141 168.568 104.141 169.590672 103.777004 170.452996 103.049 171.155zM90.049 159.208C90.3610016 159.208 90.620999 159.091001 90.829 158.857 91.037001 158.622999 91.141 158.315335 91.141 157.934 91.141 157.552665 91.037001 157.236335 90.829 156.985 90.620999 156.733665 90.3653348 156.608 90.062 156.608 89.7586651 156.608 89.503001 156.733665 89.295 156.985 89.086999 157.236335 88.983 157.552665 88.983 157.934 88.983 158.315335 89.0826657 158.622999 89.282 158.857 89.4813343 159.091001 89.7369984 159.208 90.049 159.208zM92.805 160.521C92.0769964 161.223004 91.1626722 161.574 90.062 161.574 88.9613278 161.574 88.0470036 161.21867 87.319 160.508 86.5909964 159.79733 86.227 158.935005 86.227 157.921 86.227 156.906995 86.5909964 156.04467 87.319 155.334 88.0470036 154.62333 88.9613278 154.268 90.062 154.268 91.1626722 154.268 92.0769964 154.62333 92.805 155.334 93.5330036 156.04467 93.897 156.911328 93.897 157.934 93.897 158.956672 93.5330036 159.818996 92.805 160.521zM59.192 194L57.56 194 57.56 192.864C56.8559965 193.706671 55.9120059 194.128 54.728 194.128 53.8426622 194.128 53.1093362 193.877336 52.528 193.376 51.9466638 192.874664 51.656 192.205338 51.656 191.368 51.656 190.530662 51.9653302 189.904002 52.584 189.488 53.2026698 189.071998 54.0399947 188.864 55.096 188.864L57.416 188.864 57.416 188.544C57.416 187.413328 56.786673 186.848 55.528 186.848 54.7386627 186.848 53.9173376 187.135997 53.064 187.712L52.264 186.592C53.2986718 185.770663 54.4719934 185.36 55.784 185.36 56.7866717 185.36 57.6053302 185.613331 58.24 186.12 58.8746698 186.626669 59.192 187.423995 59.192 188.512L59.192 194zM57.4 190.832L57.4 190.112 55.384 190.112C54.0933269 190.112 53.448 190.517329 53.448 191.328 53.448 191.744002 53.6079984 192.061332 53.928 192.28 54.2480016 192.498668 54.6933305 192.608 55.264 192.608 55.8346695 192.608 56.3333312 192.448002 56.76 192.128 57.1866688 191.807998 57.4 191.376003 57.4 190.832zM63.48 194L61.688 194 61.688 182.128 63.48 182.128 63.48 189.104 66.936 185.488 69.24 185.488 66.008 188.864 69.48 194 67.304 194 64.776 190.272 63.48 191.584 63.48 194zM73.192 186.928L73.192 191.248C73.192 191.653335 73.2986656 191.975999 73.512 192.216 73.7253344 192.456001 74.0239981 192.576 74.408 192.576 74.7920019 192.576 75.1599982 192.389335 75.512 192.016L76.248 193.28C75.6186635 193.845336 74.9226705 194.128 74.16 194.128 73.3973295 194.128 72.7466694 193.864003 72.208 193.336 71.6693306 192.807997 71.4 192.096004 71.4 191.2L71.4 186.928 70.328 186.928 70.328 185.488 71.4 185.488 71.4 182.816 73.192 182.816 73.192 185.488 75.432 185.488 75.432 186.928 73.192 186.928zM82.856 193.4C82.2693304 193.885336 81.5173379 194.128 80.6 194.128 79.9813302 194.128 79.33867 194.016001 78.672 193.792 78.00533 193.567999 77.4160026 193.253335 76.904 192.848L77.768 191.456C78.760005 192.20267 79.7199954 192.576 80.648 192.576 81.0533354 192.576 81.3733322 192.482668 81.608 192.296 81.8426678 192.109332 81.96 191.872001 81.96 191.584 81.96 191.157331 81.3946723 190.773335 80.264 190.432 80.1786662 190.4 80.1146669 190.378667 80.072 190.368 78.3013245 189.887998 77.416 189.088006 77.416 187.968 77.416 187.178663 77.7226636 186.546669 78.336 186.072 78.9493364 185.597331 79.7466618 185.36 80.728 185.36 81.7093382 185.36 82.637329 185.647997 83.512 186.224L82.84 187.552C82.1466632 187.093331 81.3946707 186.864 80.584 186.864 80.1573312 186.864 79.810668 186.941333 79.544 187.096 79.277332 187.250667 79.144 187.482665 79.144 187.792 79.144 188.069335 79.2826653 188.271999 79.56 188.4 79.752001 188.496 80.0213316 188.586666 80.368 188.672 80.7146684 188.757334 81.021332 188.842666 81.288 188.928 81.554668 189.013334 81.8133321 189.109333 82.064 189.216 82.3146679 189.322667 82.5839986 189.471999 82.872 189.664 83.4480029 190.048002 83.736 190.645329 83.736 191.456 83.736 192.266671 83.4426696 192.914664 82.856 193.4zM87.56 194L85.768 194 85.768 185.488 87.56 185.488 87.56 194zM85.544 182.992C85.544 182.682665 85.6559989 182.416001 85.88 182.192 86.1040011 181.967999 86.3706651 181.856 86.68 181.856 86.9893349 181.856 87.2559989 181.967999 87.48 182.192 87.7040011 182.416001 87.816 182.682665 87.816 182.992 87.816 183.301335 87.7040011 183.567999 87.48 183.792 87.2559989 184.016001 86.9893349 184.128 86.68 184.128 86.3706651 184.128 86.1040011 184.016001 85.88 183.792 85.6559989 183.567999 85.544 183.301335 85.544 182.992zM97.048 194L95.416 194 95.416 192.864C94.7119965 193.706671 93.7680059 194.128 92.584 194.128 91.6986622 194.128 90.9653362 193.877336 90.384 193.376 89.8026638 192.874664 89.512 192.205338 89.512 191.368 89.512 190.530662 89.8213302 189.904002 90.44 189.488 91.0586698 189.071998 91.8959947 188.864 92.952 188.864L95.272 188.864 95.272 188.544C95.272 187.413328 94.642673 186.848 93.384 186.848 92.5946627 186.848 91.7733376 187.135997 90.92 187.712L90.12 186.592C91.1546718 185.770663 92.3279934 185.36 93.64 185.36 94.6426717 185.36 95.4613302 185.613331 96.096 186.12 96.7306698 186.626669 97.048 187.423995 97.048 188.512L97.048 194zM95.256 190.832L95.256 190.112 93.24 190.112C91.9493269 190.112 91.304 190.517329 91.304 191.328 91.304 191.744002 91.4639984 192.061332 91.784 192.28 92.1040016 192.498668 92.5493305 192.608 93.12 192.608 93.6906695 192.608 94.1893312 192.448002 94.616 192.128 95.0426688 191.807998 95.256 191.376003 95.256 190.832zM100.2 192.912C99.399996 192.101329 99 191.034673 99 189.712 99 188.389327 99.4106626 187.333337 100.232 186.544 101.053337 185.754663 102.031994 185.36 103.168 185.36 104.304006 185.36 105.218663 185.839995 105.912 186.8L105.912 182.128 107.704 182.128 107.704 194 105.912 194 105.912 192.72C105.250663 193.658671 104.28534 194.128 103.016 194.128 101.938661 194.128 101.000004 193.722671 100.2 192.912zM101.576 191.776C102.098669 192.288003 102.711996 192.544 103.416 192.544 104.120004 192.544 104.717331 192.285336 105.208 191.768 105.698669 191.250664 105.944 190.586671 105.944 189.776 105.944 188.965329 105.698669 188.288003 105.208 187.744 104.717331 187.199997 104.11467 186.928 103.4 186.928 102.68533 186.928 102.072003 187.199997 101.56 187.744 101.047997 188.288003 100.792 188.967996 100.792 189.784 100.792 190.600004 101.053331 191.263997 101.576 191.776zM182.1 65.911C182.559336 65.2609967 182.789 64.6326697 182.789 64.026 182.789 63.4193303 182.589669 62.9123354 182.191 62.505 181.792331 62.0976646 181.281003 61.894 180.657 61.894 179.512994 61.894 178.429672 62.7086585 177.407 64.338L174.157 62.414C175.006338 61.0966601 175.937995 60.1000034 176.952 59.424 177.966005 58.7479966 179.257325 58.41 180.826 58.41 182.394675 58.41 183.772661 58.9083283 184.96 59.905 186.147339 60.9016716 186.741 62.2579914 186.741 63.974 186.741 64.9100047 186.502669 65.8069957 186.026 66.665 185.549331 67.5230043 184.669673 68.6193267 183.387 69.954L180.111 73.36 187.287 73.36 187.287 77 174.469 77 174.469 73.984 179.799 68.524C180.873672 67.4319945 181.640664 66.5610032 182.1 65.911zM189.913 64.65L189.913 58.826 203.043 58.826 203.043 61.894 195.685 77 191.265 77 198.285 62.31 193.709 62.31 193.709 64.65 189.913 64.65zM223.063 58.826L210.037 77 205.565 77 218.617 58.826 223.063 58.826zM219.475 74.842C219.787002 74.842 220.046999 74.7250012 220.255 74.491 220.463001 74.2569988 220.567 73.9493352 220.567 73.568 220.567 73.1866648 220.463001 72.8703346 220.255 72.619 220.046999 72.3676654 219.791335 72.242 219.488 72.242 219.184665 72.242 218.929001 72.3676654 218.721 72.619 218.512999 72.8703346 218.409 73.1866648 218.409 73.568 218.409 73.9493352 218.508666 74.2569988 218.708 74.491 218.907334 74.7250012 219.162998 74.842 219.475 74.842zM222.231 76.155C221.502996 76.8570035 220.588672 77.208 219.488 77.208 218.387328 77.208 217.473004 76.8526702 216.745 76.142 216.016996 75.4313298 215.653 74.5690051 215.653 73.555 215.653 72.5409949 216.016996 71.6786702 216.745 70.968 217.473004 70.2573298 218.387328 69.902 219.488 69.902 220.588672 69.902 221.502996 70.2573298 222.231 70.968 222.959004 71.6786702 223.323 72.5453282 223.323 73.568 223.323 74.5906718 222.959004 75.4529965 222.231 76.155zM209.231 64.208C209.543002 64.208 209.802999 64.0910012 210.011 63.857 210.219001 63.6229988 210.323 63.3153352 210.323 62.934 210.323 62.5526648 210.219001 62.2363346 210.011 61.985 209.802999 61.7336654 209.547335 61.608 209.244 61.608 208.940665 61.608 208.685001 61.7336654 208.477 61.985 208.268999 62.2363346 208.165 62.5526648 208.165 62.934 208.165 63.3153352 208.264666 63.6229988 208.464 63.857 208.663334 64.0910012 208.918998 64.208 209.231 64.208zM211.987 65.521C211.258996 66.2230035 210.344672 66.574 209.244 66.574 208.143328 66.574 207.229004 66.2186702 206.501 65.508 205.772996 64.7973298 205.409 63.9350051 205.409 62.921 205.409 61.9069949 205.772996 61.0446702 206.501 60.334 207.229004 59.6233298 208.143328 59.268 209.244 59.268 210.344672 59.268 211.258996 59.6233298 211.987 60.334 212.715004 61.0446702 213.079 61.9113282 213.079 62.934 213.079 63.9566718 212.715004 64.8189965 211.987 65.521zM163.592 99L160.168 90.488 162.024 90.488 164.616 96.92 167.208 90.488 169.064 90.488 165.64 99 163.592 99zM174.408 97.528C175.186671 97.528 175.829331 97.2693359 176.336 96.752 176.842669 96.2346641 177.096 95.5653374 177.096 94.744 177.096 93.9226626 176.842669 93.2533359 176.336 92.736 175.829331 92.2186641 175.186671 91.96 174.408 91.96 173.629329 91.96 172.986669 92.2186641 172.48 92.736 171.973331 93.2533359 171.72 93.9226626 171.72 94.744 171.72 95.5653374 171.973331 96.2346641 172.48 96.752 172.986669 97.2693359 173.629329 97.528 174.408 97.528zM174.408 99.128C173.127994 99.128 172.061338 98.7040042 171.208 97.856 170.354662 97.0079958 169.928 95.9706728 169.928 94.744 169.928 93.5173272 170.354662 92.4800042 171.208 91.632 172.061338 90.7839958 173.127994 90.36 174.408 90.36 175.688006 90.36 176.754662 90.7839958 177.608 91.632 178.461338 92.4800042 178.888 93.5173272 178.888 94.744 178.888 95.9706728 178.461338 97.0079958 177.608 97.856 176.754662 98.7040042 175.688006 99.128 174.408 99.128zM175.592 89.448C175.314665 89.448 174.928002 89.3226679 174.432 89.072 173.935998 88.8213321 173.618667 88.696 173.48 88.696 173.127998 88.696 172.946667 88.9306643 172.936 89.4L171.752 89.4C171.752 88.7813302 171.877332 88.2800019 172.128 87.896 172.378668 87.5119981 172.727998 87.32 173.176 87.32 173.464001 87.32 173.863997 87.4453321 174.376 87.696 174.888003 87.9466679 175.223999 88.072 175.384 88.072 175.704002 88.072 175.864 87.8373357 175.864 87.368L177.064 87.368C177.032 88.7546736 176.541338 89.448 175.592 89.448zM182.712 99L180.92 99 180.92 87.128 182.712 87.128 182.712 99zM192.2 99L190.568 99 190.568 97.864C189.863996 98.7066709 188.920006 99.128 187.736 99.128 186.850662 99.128 186.117336 98.8773358 185.536 98.376 184.954664 97.8746642 184.664 97.2053375 184.664 96.368 184.664 95.5306625 184.97333 94.9040021 185.592 94.488 186.21067 94.0719979 187.047995 93.864 188.104 93.864L190.424 93.864 190.424 93.544C190.424 92.4133277 189.794673 91.848 188.536 91.848 187.746663 91.848 186.925338 92.1359971 186.072 92.712L185.272 91.592C186.306672 90.7706626 187.479993 90.36 188.792 90.36 189.794672 90.36 190.61333 90.6133308 191.248 91.12 191.88267 91.6266692 192.2 92.4239946 192.2 93.512L192.2 99zM190.408 95.832L190.408 95.112 188.392 95.112C187.101327 95.112 186.456 95.5173293 186.456 96.328 186.456 96.7440021 186.615998 97.0613322 186.936 97.28 187.256002 97.4986678 187.70133 97.608 188.272 97.608 188.84267 97.608 189.341331 97.4480016 189.768 97.128 190.194669 96.8079984 190.408 96.3760027 190.408 95.832zM196.488 99L194.696 99 194.696 87.128 196.488 87.128 196.488 94.104 199.944 90.488 202.248 90.488 199.016 93.864 202.488 99 200.312 99 197.784 95.272 196.488 96.584 196.488 99zM205.784 99L203.992 99 203.992 90.488 205.784 90.488 205.784 99zM203.768 87.992C203.768 87.6826651 203.879999 87.4160011 204.104 87.192 204.328001 86.9679989 204.594665 86.856 204.904 86.856 205.213335 86.856 205.479999 86.9679989 205.704 87.192 205.928001 87.4160011 206.04 87.6826651 206.04 87.992 206.04 88.3013349 205.928001 88.5679989 205.704 88.792 205.479999 89.0160011 205.213335 89.128 204.904 89.128 204.594665 89.128 204.328001 89.0160011 204.104 88.792 203.879999 88.5679989 203.768 88.3013349 203.768 87.992zM212.84 92.168C211.954662 92.168 211.288002 92.4559971 210.84 93.032 210.391998 93.6080029 210.168 94.3813285 210.168 95.352L210.168 99 208.376 99 208.376 90.488 210.168 90.488 210.168 92.2C210.456001 91.666664 210.847998 91.229335 211.344 90.888 211.840002 90.546665 212.365331 90.3706667 212.92 90.36L212.936 92.168 212.84 92.168zM214.728 99.4L214.728 90.488 216.52 90.488 216.52 99.464C216.52 100.360004 216.250669 101.071997 215.712 101.6 215.173331 102.128003 214.52267 102.392 213.76 102.392 212.99733 102.392 212.301336 102.109336 211.672 101.544L212.504 100.2C212.866668 100.552002 213.231998 100.728 213.6 100.728 213.968002 100.728 214.247999 100.610668 214.44 100.376 214.632001 100.141332 214.728 99.8160021 214.728 99.4zM214.472 87.992C214.472 87.6826651 214.583999 87.4160011 214.808 87.192 215.032001 86.9679989 215.298665 86.856 215.608 86.856 215.917335 86.856 216.183999 86.9679989 216.408 87.192 216.632001 87.4160011 216.744 87.6826651 216.744 87.992 216.744 88.3013349 216.632001 88.5679989 216.408 88.792 216.183999 89.0160011 215.917335 89.128 215.608 89.128 215.298665 89.128 215.032001 89.0160011 214.808 88.792 214.583999 88.5679989 214.472 88.3013349 214.472 87.992zM226.008 99L224.376 99 224.376 97.864C223.671996 98.7066709 222.728006 99.128 221.544 99.128 220.658662 99.128 219.925336 98.8773358 219.344 98.376 218.762664 97.8746642 218.472 97.2053375 218.472 96.368 218.472 95.5306625 218.78133 94.9040021 219.4 94.488 220.01867 94.0719979 220.855995 93.864 221.912 93.864L224.232 93.864 224.232 93.544C224.232 92.4133277 223.602673 91.848 222.344 91.848 221.554663 91.848 220.733338 92.1359971 219.88 92.712L219.08 91.592C220.114672 90.7706626 221.287993 90.36 222.6 90.36 223.602672 90.36 224.42133 90.6133308 225.056 91.12 225.69067 91.6266692 226.008 92.4239946 226.008 93.512L226.008 99zM224.216 95.832L224.216 95.112 222.2 95.112C220.909327 95.112 220.264 95.5173293 220.264 96.328 220.264 96.7440021 220.423998 97.0613322 220.744 97.28 221.064002 97.4986678 221.50933 97.608 222.08 97.608 222.65067 97.608 223.149331 97.4480016 223.576 97.128 224.002669 96.8079984 224.216 96.3760027 224.216 95.832zM229.16 97.912C228.359996 97.1013293 227.96 96.0346733 227.96 94.712 227.96 93.3893267 228.370663 92.3333373 229.192 91.544 230.013337 90.7546627 230.991994 90.36 232.128 90.36 233.264006 90.36 234.178663 90.8399952 234.872 91.8L234.872 87.128 236.664 87.128 236.664 99 234.872 99 234.872 97.72C234.210663 98.6586714 233.24534 99.128 231.976 99.128 230.898661 99.128 229.960004 98.7226707 229.16 97.912zM230.536 96.776C231.058669 97.2880026 231.671996 97.544 232.376 97.544 233.080004 97.544 233.677331 97.2853359 234.168 96.768 234.658669 96.2506641 234.904 95.5866707 234.904 94.776 234.904 93.9653293 234.658669 93.2880027 234.168 92.744 233.677331 92.1999973 233.07467 91.928 232.36 91.928 231.64533 91.928 231.032003 92.1999973 230.52 92.744 230.007997 93.2880027 229.752 93.9679959 229.752 94.784 229.752 95.6000041 230.013331 96.2639974 230.536 96.776z"/>
  </g>
</svg>
