<svg xmlns="http://www.w3.org/2000/svg" width="150" height="47" viewBox="0 0 150 47">
  <path fill="#D42228" fill-rule="evenodd" d="M7.03055965,6.26743742 L7.03055965,0.92736 L12.1502209,0.92736 L12.1502209,6.26743742 L7.03055965,6.26743742 Z M18.6064065,38.1172645 L17.3969072,31.4784 L9.53240059,31.4784 L8.36708395,38.1172645 L0,38.1172645 L5.69955817,11.8962581 C6.36782032,8.87504516 7.19624448,8.45140645 10.6148748,8.45140645 L16.6899853,8.45140645 C20.191458,8.45140645 20.7713549,8.70224516 21.4782769,11.9408516 L27.1833579,38.1172645 L18.6064065,38.1172645 Z M14.3206922,13.7468903 L12.6086156,13.7468903 L10.3221649,26.1438968 L16.6071429,26.1438968 L14.3206922,13.7468903 Z M14.7293814,6.26743742 L14.7293814,0.92736 L19.8490427,0.92736 L19.8490427,6.26743742 L14.7293814,6.26743742 Z M84.775405,13.8817858 L84.775405,8.54170839 L89.8950663,8.54170839 L89.8950663,13.8817858 L84.775405,13.8817858 Z M92.4742268,13.8817858 L92.4742268,8.54170839 L97.5994109,8.54170839 L97.5994109,13.8817858 L92.4742268,13.8817858 Z M36.80081,21.3105135 L36.80081,38.1167071 L29.140648,38.1167071 L29.140648,21.6449652 C29.140648,18.4119329 30.6373343,16.3494813 34.4259941,16.3494813 L43.9639175,16.3494813 L43.9639175,21.3105135 L36.80081,21.3105135 Z M46.3420471,14.3332955 L46.3420471,8.87058581 L54.0463918,8.87058581 L54.0463918,14.3332955 L46.3420471,14.3332955 Z M46.3420471,38.1239535 L46.3420471,16.3567277 L54.0463918,16.3567277 L54.0463918,38.1239535 L46.3420471,38.1239535 Z M72.5373711,38.1172645 L64.3746318,38.1172645 L64.3746318,46.0549161 L56.7973122,46.0549161 L56.7973122,16.3500387 L72.6202135,16.3500387 C76.4088733,16.3500387 77.8668999,18.3233032 77.8668999,21.6845419 L77.8668999,32.7771871 C77.8668999,36.3112258 76.3646907,38.1172645 72.5373711,38.1172645 Z M64.335972,33.1562323 L70.2067378,33.1562323 L70.2067378,21.2664774 L64.335972,21.2664774 L64.335972,33.1562323 Z M97.802651,38.1172645 C97.802651,38.1172645 92.6001473,38.2008774 91.517673,38.2008774 C90.4351988,38.2008774 85.2713549,38.1172645 85.2713549,38.1172645 C81.9410898,38.072671 80.0688513,36.4784516 80.0688513,32.7771871 L80.0688513,29.8786065 C80.0688513,25.3412129 82.9407216,24.6277161 85.3155376,24.6277161 L93.5169367,24.6277161 L93.5169367,21.0992516 L81.8969072,21.0992516 L81.8969072,16.3500387 L95.9304124,16.3500387 C100.260309,16.3500387 101.177099,18.9977806 101.177099,21.600929 L101.177099,33.4516645 C101.177099,36.980129 100.133284,38.072671 97.802651,38.1172645 Z M87.4749632,33.407071 L93.6384389,33.407071 L93.6384389,28.9978839 L87.4749632,28.9978839 L87.4749632,33.407071 Z M111.251289,28.8334452 L111.251289,32.8635871 L123.36285,32.8635871 L123.36285,38.1200516 L108.876473,38.1200516 C104.546576,38.1200516 103.629786,35.221471 103.629786,32.8245677 L103.629786,21.8991484 C103.629786,18.3706839 105.33634,16.3974194 108.837813,16.3528258 C108.837813,16.3528258 112.957842,16.2692129 114.040317,16.2692129 C115.122791,16.2692129 119.159978,16.3528258 119.159978,16.3528258 C122.827135,16.3974194 124.279639,18.2034581 124.279639,21.6483097 L124.279639,28.8334452 L111.251289,28.8334452 Z M111.212629,25.9794581 L116.66366,25.9794581 L116.66366,20.9348129 L111.212629,20.9348129 L111.212629,25.9794581 Z M142.842968,38.1172645 L132.80799,38.1172645 L125.733247,16.3500387 L134.056149,16.3500387 L137.806149,31.2665806 L138.430228,31.2665806 L142.174705,16.3500387 L149.923233,16.3500387 L142.842968,38.1172645 Z"/>
</svg>
