<svg xmlns="http://www.w3.org/2000/svg" xmlns:xlink="http://www.w3.org/1999/xlink" width="192" height="177" viewBox="0 0 192 177">
  <defs>
    <polygon id="a" points="0 176.179 191.586 176.179 191.586 0 0 0"/>
  </defs>
  <g fill="none" fill-rule="evenodd">
    <path fill="#FFD15D" d="M159.1943,28.9402 C175.5423,28.6392 188.8203,41.9622 188.8203,58.4402 L188.8203,111.9592 L176.2683,107.7092 L169.7683,101.4592 L166.6743,95.9592 C168.9663,93.9852 172.6513,90.5942 175.3143,86.2962 C179.3443,79.7912 181.2653,71.3812 181.2653,63.0962 L181.2653,62.4562 L178.0893,62.4562 C170.1083,62.4562 162.4253,59.3812 156.6023,53.8582 L156.7913,62.4562 L138.9633,62.4562 L138.9633,63.0962 C138.9633,71.3472 140.5303,79.8292 144.5163,86.3432 C146.1333,88.9872 148.0543,91.2632 149.8163,93.0842 L149.8683,100.7922 L142.2683,108.6252 L135.6013,111.3752 L130.6533,109.0422 L130.6533,58.9142 C130.6533,42.7782 143.2563,29.2332 159.1943,28.9402 Z"/>
    <polygon fill="#EBEFF3" points="181.719 122.68 171.9 122.68 175.015 118.091 176.62 118.091"/>
    <polygon fill="#EBEFF3" points="169.904 100.791 176.243 107.387 182.3 121.909 180.789 121.909 177.013 118.091 175.502 118.091 169.457 108.149"/>
    <path fill="#EBEFF3" d="M169.9346,104.8445 L169.9346,93.8305 L165.8456,96.3895 C164.7416,97.0795 163.4686,97.4465 162.1706,97.4465 L157.6126,97.4465 C155.9836,97.4465 154.4066,96.8695 153.1526,95.8185 L149.8136,93.0185 L149.8156,97.3515 L169.9346,104.8445 Z"/>
    <path fill="#003064" d="M161.9434,98.6316 L157.2614,98.6316 C155.3654,98.6316 153.6974,98.0196 152.3004,96.8136 C149.8304,94.6766 146.3244,91.2156 143.6644,86.8656 C138.9534,79.1646 137.9634,69.6896 137.9634,63.0966 L137.9634,62.4556 L139.9634,62.4556 L139.9634,63.0966 C139.9634,69.4326 140.9004,78.5186 145.3694,85.8216 C147.8964,89.9526 151.2464,93.2556 153.6094,95.3006 C154.6314,96.1836 155.8594,96.6316 157.2614,96.6316 L161.9434,96.6316 C163.5434,96.6316 164.8474,96.2086 165.8224,95.3756 C167.2404,94.1616 171.5544,90.4686 174.4634,85.7706 C178.2054,79.7306 180.2654,71.6786 180.2654,63.0966 L180.2654,62.4556 L182.2654,62.4556 L182.2654,63.0966 C182.2654,72.0446 180.0994,80.4716 176.1644,86.8236 C173.0894,91.7856 168.5974,95.6316 167.1224,96.8956 C165.7774,98.0476 164.0354,98.6316 161.9434,98.6316"/>
    <polygon fill="#003064" points="148.685 101.57 148.803 93.035 150.803 93.062 150.685 101.597"/>
    <mask id="b" fill="white">
      <use xlink:href="#a"/>
    </mask>
    <polygon fill="#003064" points="168.443 101.651 170.443 101.651 170.443 93.622 168.443 93.622" mask="url(#b)"/>
    <polygon fill="#003064" points="175.892 108.323 176.594 106.45 190.191 111.553 189.489 113.426" mask="url(#b)"/>
    <polygon fill="#003064" points="151.074 130.757 152.725 129.628 158.511 138.081 156.859 139.211" mask="url(#b)"/>
    <path fill="#003064" d="M170.457,102.9431 L170.416,108.4321 L163.068,133.2471 L174.997,117.0901 L177.432,117.0901 L180.502,120.1971 L175.394,107.9511 L170.457,102.9431 Z M161.182,139.6251 L156.914,139.6251 L148.662,108.1491 L148.662,102.9431 L143.727,107.9511 L141.24,113.9091 L139.395,113.1391 L142.029,106.8231 L150.662,98.0651 L150.662,108.0191 L158.455,137.6251 L159.687,137.6251 L168.457,108.0041 L168.457,98.0651 L177.092,106.8231 L183.801,122.9101 L180.371,122.9101 L176.596,119.0901 L176.008,119.0901 L161.393,138.9091 L161.182,139.6251 Z" mask="url(#b)"/>
    <path fill="#EBEFF3" d="M22.4443,99.3748 L22.4443,102.6038 L33.3803,108.8868 L44.4063,102.7888 L44.4443,96.8778 L44.4443,91.8948 C44.4443,91.4768 45.2393,91.0278 45.6293,90.5758 C45.4963,90.6918 45.3373,90.8088 45.2283,90.9258 C43.6733,92.5978 41.3003,94.4768 39.7053,95.8398 C38.4423,96.9168 36.8303,97.6578 35.1703,97.6578 L33.3193,97.6578 L31.4833,97.6578 L30.3713,97.6578 C28.7123,97.6578 27.1153,96.9168 25.8523,95.8398 C24.3293,94.5378 22.1123,92.8178 20.5613,91.2168 C20.5153,91.1688 20.4613,91.0898 20.4103,91.0408 C20.8763,91.5368 21.6563,92.0218 22.2223,92.5218 C22.2103,92.5278 22.4443,92.5188 22.4443,92.5328 L22.4443,97.8918 L22.4443,99.3338 L22.4443,99.3668 L22.4443,99.3748 Z" mask="url(#b)"/>
    <path fill="#003064" d="M22.4434,103.658 C21.8914,103.658 21.4434,103.21 21.4434,102.658 L21.4434,92.658 C21.4434,92.105 21.8914,91.658 22.4434,91.658 C22.9964,91.658 23.4434,92.105 23.4434,92.658 L23.4434,102.658 C23.4434,103.21 22.9964,103.658 22.4434,103.658" mask="url(#b)"/>
    <path fill="#003064" d="M44.4434,103.658 C43.8914,103.658 43.4434,103.21 43.4434,102.658 L43.4434,91.483 L43.7144,91.195 C44.6174,90.234 45.5214,89.231 45.8104,88.466 L50.3304,79.039 L55.3984,76.523 L56.5294,70.944 C56.5204,70.527 56.3324,70.246 56.1724,70.081 C55.9064,69.807 55.5354,69.658 55.1264,69.658 L52.8904,69.658 L53.1204,68.469 C53.4924,66.542 53.4924,64.013 53.4924,62.168 L53.4924,61.171 C53.5134,57.892 53.0014,55.177 51.9254,52.859 L51.4004,51.727 C50.0244,49.09 48.1644,46.836 45.8654,45.023 C42.2144,42.144 37.8444,40.606 33.2274,40.575 C27.8334,40.494 22.7374,42.662 18.8184,46.554 C14.7674,50.578 12.4434,56.139 12.4434,61.813 L12.4424,62.864 C12.4374,64.62 12.4304,66.806 12.7134,68.493 L12.9084,69.658 L10.8304,69.658 C10.0254,69.658 9.4084,70.203 9.3474,70.946 L10.9574,76.512 L15.3824,79.084 L19.8074,88.472 C20.4034,90.061 23.1094,92.281 25.0854,93.902 C25.5914,94.318 26.0744,94.714 26.5024,95.079 C27.6944,96.097 29.0684,96.658 30.3714,96.658 L35.4434,96.658 C35.9964,96.658 36.4434,97.105 36.4434,97.658 C36.4434,98.21 35.9964,98.658 35.4434,98.658 L30.3714,98.658 C28.5924,98.658 26.7574,97.927 25.2034,96.599 C24.7844,96.242 24.3124,95.855 23.8164,95.448 C21.4264,93.487 18.7174,91.265 17.9654,89.248 L13.8394,80.5 L9.2584,77.839 L7.3414,71.07 C7.3414,69.235 8.7504,67.782 10.5894,67.666 C10.4334,66.075 10.4374,64.323 10.4424,62.858 L10.4434,61.813 C10.4434,55.61 12.9824,49.531 17.4094,45.135 C21.7094,40.865 27.3594,38.542 33.2414,38.575 C38.3064,38.61 43.1004,40.297 47.1034,43.453 C49.7524,45.541 51.8684,48.16 53.3944,51.237 C53.4874,51.425 53.5704,51.614 53.6544,51.804 L54.3844,53.438 L54.3214,53.438 C55.1274,55.691 55.5114,58.239 55.4924,61.178 L55.4924,62.168 C55.4924,63.747 55.4924,65.805 55.2674,67.66 C56.1674,67.694 56.9924,68.055 57.6054,68.686 C58.2264,69.325 58.5544,70.174 58.5294,71.076 L58.5094,71.246 L57.1644,77.88 L51.8364,80.524 L47.6474,89.25 C47.2964,90.195 46.4224,91.22 45.4434,92.274 L45.4434,102.658 C45.4434,103.21 44.9964,103.658 44.4434,103.658" mask="url(#b)"/>
    <polygon fill="#003064" points=".638 112.737 0 110.841 14.151 106.082 18.236 98.658 21.444 98.658 21.444 100.658 19.418 100.658 15.526 107.729" mask="url(#b)"/>
    <path fill="#003064" d="M33.3174,110.1257 L21.4664,103.4897 C20.9854,103.2197 20.8134,102.6097 21.0844,102.1287 C21.3534,101.6467 21.9634,101.4767 22.4454,101.7447 L33.3174,107.8337 L43.7574,101.9857 C44.2424,101.7177 44.8494,101.8887 45.1194,102.3697 C45.3894,102.8527 45.2174,103.4617 44.7364,103.7307 L33.3174,110.1257 Z" mask="url(#b)"/>
    <polygon fill="#003064" points="58.478 110.402 51.071 107.794 46.629 100.658 44.444 100.658 44.444 98.658 47.74 98.658 52.398 106.14 59.142 108.515" mask="url(#b)"/>
    <path fill="#003064" d="M26.6641 118.8494C26.4261 118.8494 26.1861 118.7654 25.9961 118.5924 25.5851 118.2234 25.5521 117.5914 25.9221 117.1804L33.3241 108.9554 38.1521 114.4124C38.5181 114.8264 38.4781 115.4574 38.0651 115.8244 37.6531 116.1904 37.0191 116.1524 36.6541 115.7374L33.3101 111.9594 27.4081 118.5184C27.2111 118.7384 26.9371 118.8494 26.6641 118.8494M125.1406 145.658C123.4866 145.658 122.1406 146.989 122.1406 148.626 122.1406 150.304 123.4866 151.658 125.1406 151.658L180.3046 151.658 186.8106 148.658 180.3046 145.658 125.1406 145.658zM180.7446 153.658L125.1406 153.658C122.3826 153.658 120.1406 151.408 120.1406 148.642 120.1406 145.887 122.3826 143.658 125.1406 143.658L180.7446 143.658 191.5856 148.658 180.7446 153.658z" mask="url(#b)"/>
    <polygon fill="#003064" points="130.443 152.658 132.443 152.658 132.443 144.658 130.443 144.658" mask="url(#b)"/>
    <polygon fill="#003064" points="131.443 149.658 179.443 149.658 179.443 147.658 131.443 147.658" mask="url(#b)"/>
    <path fill="#003064" d="M146.5625,35.5017 L149.0175,36.2987 L149.4845,34.8617 C150.0095,33.2397 151.4535,32.1917 153.1585,32.1907 C154.8635,32.1907 156.3045,33.2387 156.8325,34.8597 L157.2985,36.2957 L159.7515,35.4977 L159.2855,34.0617 C158.7575,32.4397 159.3085,30.7447 160.6875,29.7417 C162.0665,28.7397 163.8495,28.7387 165.2285,29.7407 L166.4515,30.6277 L167.9665,28.5387 L166.7445,27.6487 C165.3635,26.6477 164.8125,24.9507 165.3395,23.3277 C165.8675,21.7057 167.3085,20.6577 169.0135,20.6577 L170.5235,20.6577 L170.5215,17.6577 L169.0115,17.6577 C167.2855,17.6577 165.8375,16.6367 165.3245,15.0567 C164.8225,13.5127 165.3765,11.8737 166.7385,10.8837 L167.9335,10.0767 L166.4985,8.1327 L165.2735,9.0397 C163.8825,10.0497 162.0995,10.0507 160.7185,9.0497 C159.3435,8.0507 158.7945,6.3597 159.3205,4.7417 L159.7855,3.3127 L157.3325,2.5187 L156.8655,3.9567 C156.3395,5.5787 154.8985,6.6277 153.1935,6.6287 L153.1915,6.6287 C151.4865,6.6287 150.0445,5.5817 149.5175,3.9617 L149.0505,2.5247 L146.5975,3.3237 L147.0645,4.7607 C147.5915,6.3807 147.0425,8.0757 145.6645,9.0787 C144.2855,10.0817 142.5035,10.0827 141.1225,9.0817 L139.9005,8.1937 L138.3845,10.2817 L139.6075,11.1697 C140.9865,12.1707 141.5375,13.8657 141.0115,15.4877 C140.4845,17.1087 139.0425,18.1577 137.3375,18.1577 L135.8285,18.1587 L135.8305,20.7387 L137.3395,20.7387 L137.3415,20.7387 C139.0465,20.7387 140.4885,21.7857 141.0155,23.4057 C141.5425,25.0267 140.9925,26.7227 139.6135,27.7257 L138.3905,28.6127 L139.8635,30.6367 L141.0835,29.7487 C142.4625,28.7457 144.2465,28.7447 145.6255,29.7477 C147.0055,30.7487 147.5565,32.4437 147.0295,34.0647 L146.5625,35.5017 Z M150.3025,38.8177 L144.0425,36.7867 L145.1265,33.4477 C145.4355,32.4987 144.9805,31.7497 144.4515,31.3657 C143.9195,30.9807 143.0685,30.7797 142.2595,31.3657 L139.4215,33.4307 L135.5975,28.1717 L138.4375,26.1077 C139.2445,25.5217 139.3145,24.6477 139.1135,24.0247 C138.9105,23.4027 138.3395,22.7387 137.3415,22.7387 L133.8305,22.7397 L133.8285,16.1597 L137.3375,16.1577 C138.3355,16.1577 138.9065,15.4927 139.1095,14.8707 C139.3105,14.2477 139.2385,13.3737 138.4315,12.7877 L135.5915,10.7257 L139.4575,5.3997 L142.2965,7.4627 C143.1055,8.0497 143.9575,7.8467 144.4885,7.4617 C145.0155,7.0767 145.4705,6.3277 145.1625,5.3787 L144.0785,2.0407 L150.3335,0.0047 L151.4195,3.3427 C151.7285,4.2907 152.5375,4.6287 153.1915,4.6287 L153.1935,4.6287 C153.8475,4.6277 154.6565,4.2887 154.9625,3.3397 L156.0465,-0.0003 L162.3065,2.0257 L161.2225,5.3587 C160.9165,6.3047 161.3695,7.0487 161.8945,7.4307 C162.4235,7.8147 163.2795,8.0167 164.0895,7.4277 L166.9175,5.3337 L170.7815,10.5677 L167.8865,12.5217 C167.2465,12.9867 166.9905,13.7107 167.2265,14.4387 C167.4175,15.0277 167.9885,15.6577 169.0115,15.6577 L172.5215,15.6577 L172.5235,22.6577 L169.0135,22.6577 C168.0155,22.6577 167.4455,23.3227 167.2425,23.9457 C167.0395,24.5687 167.1115,25.4437 167.9195,26.0307 L170.7595,28.0977 L166.8945,33.4217 L164.0525,31.3587 C163.2465,30.7727 162.3905,30.9757 161.8635,31.3597 C161.3335,31.7447 160.8785,32.4937 161.1875,33.4427 L162.2735,36.7807 L156.0155,38.8157 L154.9295,35.4787 C154.6215,34.5287 153.8125,34.1907 153.1585,34.1907 C152.5035,34.1917 151.6955,34.5297 151.3865,35.4797 L150.3025,38.8177 Z" mask="url(#b)"/>
    <path fill="#007BFF" d="M153.1777,17.6648 C152.6367,17.6648 152.1037,17.9158 151.7617,18.3868 C151.1977,19.1658 151.3707,20.2598 152.1527,20.8248 C152.5277,21.0978 152.9867,21.2068 153.4507,21.1358 C153.9117,21.0608 154.3167,20.8128 154.5897,20.4358 C155.1547,19.6558 154.9807,18.5608 154.1987,17.9958 C153.8907,17.7718 153.5327,17.6648 153.1777,17.6648 M153.1677,23.1578 C152.3847,23.1578 151.6247,22.9128 150.9787,22.4438 C149.3047,21.2318 148.9297,18.8858 150.1427,17.2128 C150.7287,16.4028 151.5957,15.8688 152.5837,15.7118 C153.5757,15.5518 154.5627,15.7898 155.3727,16.3768 C157.0467,17.5888 157.4217,19.9358 156.2087,21.6078 C155.6217,22.4188 154.7557,22.9518 153.7677,23.1098 C153.5667,23.1428 153.3667,23.1578 153.1677,23.1578" mask="url(#b)"/>
    <path fill="#003064" d="M150.9648 8.9988C150.9038 8.4478 151.2948 7.9478 151.8458 7.8888 152.3948 7.8278 152.8948 8.2188 152.9548 8.7688 153.0158 9.3178 152.6248 9.8088 152.0738 9.8788L151.9548 9.8788C151.4548 9.8788 151.0258 9.5088 150.9648 8.9988L150.9648 8.9988zM155.5958 10.1178C155.0648 9.9778 154.7348 9.4288 154.8748 8.8978 155.0158 8.3678 155.5648 8.0488 156.0958 8.1878 156.6348 8.3178 156.9548 8.8678 156.8148 9.4078 156.6948 9.8578 156.2948 10.1478 155.8458 10.1478 155.7658 10.1478 155.6758 10.1388 155.5958 10.1178L155.5958 10.1178zM147.3558 10.4878C147.0958 9.9988 147.2848 9.3978 147.7758 9.1388 148.2658 8.8888 148.8648 9.0778 149.1248 9.5588 149.3848 10.0488 149.1948 10.6578 148.7048 10.9078 148.5548 10.9878 148.3948 11.0278 148.2438 11.0278 147.8848 11.0278 147.5348 10.8278 147.3558 10.4878L147.3558 10.4878zM158.8048 11.6388C158.8048 11.6388 158.7948 11.6288 158.7848 11.6288L158.7848 11.6178C158.7758 11.6178 158.7658 11.6078 158.7538 11.5988 158.3338 11.2688 158.2438 10.6688 158.5548 10.2278 158.8748 9.7778 159.4938 9.6788 159.9448 9.9988 159.9548 9.9988 159.9648 10.0088 159.9748 10.0188 159.9848 10.0188 159.9848 10.0278 159.9938 10.0278 160.4258 10.3578 160.5258 10.9688 160.2048 11.4188 160.0038 11.6878 159.7048 11.8278 159.3948 11.8278 159.1858 11.8278 158.9848 11.7688 158.8048 11.6388L158.8048 11.6388zM144.5348 13.1978C144.1148 12.8388 144.0738 12.2088 144.4358 11.7888 144.7948 11.3678 145.4258 11.3278 145.8458 11.6878 146.2538 12.0488 146.3048 12.6878 145.9448 13.0988 145.7438 13.3278 145.4648 13.4478 145.1858 13.4478 144.9548 13.4478 144.7248 13.3578 144.5348 13.1978L144.5348 13.1978zM161.2348 14.1878C160.9358 13.7278 161.0648 13.1078 161.5348 12.8088 161.9938 12.5088 162.6148 12.6478 162.9138 13.1078 163.2148 13.5678 163.0838 14.1878 162.6148 14.4878 162.4548 14.5988 162.2658 14.6478 162.0738 14.6478 161.7438 14.6478 161.4258 14.4878 161.2348 14.1878L161.2348 14.1878zM142.8648 16.7378C142.3458 16.5488 142.0738 15.9778 142.2658 15.4588 142.4548 14.9378 143.0258 14.6688 143.5448 14.8578 144.0648 15.0488 144.3338 15.6178 144.1448 16.1388 143.9938 16.5388 143.6148 16.7988 143.2048 16.7988 143.0958 16.7988 142.9748 16.7778 142.8648 16.7378L142.8648 16.7378zM162.5738 17.4588C162.4548 16.9188 162.8048 16.3888 163.3458 16.2778 163.8848 16.1578 164.4138 16.5088 164.5348 17.0488 164.6448 17.5888 164.2948 18.1178 163.7538 18.2278 163.6858 18.2488 163.6148 18.2588 163.5448 18.2588 163.0838 18.2588 162.6638 17.9288 162.5738 17.4588L162.5738 17.4588zM141.5738 19.6578C141.5648 19.1078 142.0038 18.6478 142.5548 18.6388 143.1058 18.6288 143.5648 19.0678 143.5738 19.6178 143.5838 20.1688 143.1538 20.6288 142.6058 20.6388L142.5738 20.6388C142.0348 20.6388 141.5838 20.2088 141.5738 19.6578L141.5738 19.6578zM163.4648 22.1288C162.9258 22.0388 162.5548 21.5278 162.6448 20.9778 162.7348 20.4378 163.2438 20.0678 163.7948 20.1578 164.3338 20.2488 164.7048 20.7688 164.6148 21.3088 164.5348 21.7988 164.1148 22.1478 163.6248 22.1478 163.5738 22.1478 163.5258 22.1388 163.4648 22.1288L163.4648 22.1288zM142.4448 23.8278C142.2348 23.3178 142.4848 22.7378 142.9938 22.5278 143.5038 22.3178 144.0838 22.5588 144.2948 23.0678 144.5038 23.5778 144.2658 24.1688 143.7538 24.3788 143.6348 24.4288 143.5038 24.4478 143.3748 24.4478 142.9848 24.4478 142.6058 24.2188 142.4448 23.8278L142.4448 23.8278zM161.7848 25.6688C161.3148 25.3788 161.1538 24.7688 161.4358 24.2988 161.7148 23.8178 162.3338 23.6578 162.8048 23.9478 163.2848 24.2278 163.4358 24.8388 163.1538 25.3088 162.9748 25.6288 162.6348 25.8088 162.2948 25.8088 162.1248 25.8088 161.9448 25.7588 161.7848 25.6688L161.7848 25.6688zM144.7758 27.4078C144.3848 27.0088 144.4038 26.3678 144.8048 25.9878 145.2048 25.6078 145.8338 25.6288 146.2148 26.0278 146.5958 26.4288 146.5838 27.0588 146.1858 27.4378 145.9938 27.6288 145.7438 27.7188 145.4938 27.7188 145.2348 27.7188 144.9648 27.6078 144.7758 27.4078L144.7758 27.4078zM158.9548 28.3578C158.6058 27.9188 158.6858 27.2888 159.1148 26.9478 159.5548 26.6078 160.1758 26.6788 160.5258 27.1178 160.8648 27.5488 160.7848 28.1788 160.3558 28.5188 160.1758 28.6688 159.9548 28.7378 159.7348 28.7378 159.4448 28.7378 159.1448 28.6078 158.9548 28.3578L158.9548 28.3578zM148.2248 29.8978C147.7248 29.6688 147.5038 29.0678 147.7438 28.5678 147.9848 28.0678 148.5738 27.8578 149.0738 28.0888 149.5738 28.3278 149.7848 28.9288 149.5548 29.4288 149.3848 29.7888 149.0258 29.9988 148.6448 29.9988 148.5038 29.9988 148.3648 29.9688 148.2248 29.8978L148.2248 29.8978zM155.3238 29.8278C155.1638 29.3088 155.4648 28.7488 155.9938 28.5888 156.5158 28.4188 157.0738 28.7188 157.2438 29.2488 157.4038 29.7778 157.1058 30.3388 156.5738 30.4988 156.4848 30.5278 156.3848 30.5388 156.2848 30.5388 155.8558 30.5388 155.4648 30.2688 155.3238 29.8278L155.3238 29.8278zM152.3458 30.9778C151.7948 30.9378 151.3748 30.4588 151.4138 29.9078 151.4548 29.3578 151.9358 28.9478 152.4848 28.9878 153.0348 29.0278 153.4548 29.4988 153.4138 30.0488 153.3748 30.5778 152.9358 30.9778 152.4138 30.9778L152.3458 30.9778zM58.2529 132.5867C57.1499 132.5867 56.2529 133.4827 56.2529 134.5867 56.2529 135.6897 57.1499 136.5867 58.2529 136.5867 59.3559 136.5867 60.2529 135.6897 60.2529 134.5867 60.2529 133.4827 59.3559 132.5867 58.2529 132.5867M58.2529 138.5867C56.0469 138.5867 54.2529 136.7917 54.2529 134.5867 54.2529 132.3807 56.0469 130.5867 58.2529 130.5867 60.4589 130.5867 62.2529 132.3807 62.2529 134.5867 62.2529 136.7917 60.4589 138.5867 58.2529 138.5867" mask="url(#b)"/>
    <path fill="#FFD15D" d="M47.2246,26.5427 C48.8816,26.5427 50.2246,27.8857 50.2246,29.5427 C50.2246,31.1987 48.8816,32.5427 47.2246,32.5427 C45.5686,32.5427 44.2246,31.1987 44.2246,29.5427 C44.2246,27.8857 45.5686,26.5427 47.2246,26.5427" mask="url(#b)"/>
    <polygon fill="#003064" points="9.443 30.658 11.443 30.658 11.443 26.658 9.443 26.658" mask="url(#b)"/>
    <polygon fill="#003064" points="9.443 40.658 11.443 40.658 11.443 36.658 9.443 36.658" mask="url(#b)"/>
    <polygon fill="#003064" points="13.443 34.658 17.443 34.658 17.443 32.658 13.443 32.658" mask="url(#b)"/>
    <polygon fill="#003064" points="3.443 34.658 7.443 34.658 7.443 32.658 3.443 32.658" mask="url(#b)"/>
    <polygon fill="#003064" points="9.443 150.658 11.443 150.658 11.443 146.658 9.443 146.658" mask="url(#b)"/>
    <polygon fill="#003064" points="9.443 160.658 11.443 160.658 11.443 156.658 9.443 156.658" mask="url(#b)"/>
    <polygon fill="#003064" points="13.443 154.658 17.443 154.658 17.443 152.658 13.443 152.658" mask="url(#b)"/>
    <polygon fill="#003064" points="3.443 154.658 7.443 154.658 7.443 152.658 3.443 152.658" mask="url(#b)"/>
    <path fill="#007BFF" d="M95.041,0.2927 C73.943,0.6817 57.259,18.6117 57.259,39.9727 L57.259,91.9917 L82.694,91.9917 L82.626,85.2057 C80.295,82.7967 77.751,79.7817 75.61,76.2827 C70.334,67.6587 68.259,56.4317 68.259,45.5087 L68.259,44.6597 L91.859,44.6597 L91.609,33.2797 C99.319,40.5917 109.488,44.6597 120.053,44.6597 L124.259,44.6597 L124.259,45.5087 C124.259,56.4767 121.715,67.6077 116.38,76.2217 C112.855,81.9107 107.978,86.3977 104.943,89.0117 L109.277,91.9917 L134.259,91.9917 L134.259,39.3457 C134.259,17.5317 116.682,-0.1043 95.041,0.2927" mask="url(#b)"/>
    <polygon fill="#EBEFF3" points="65.609 124.385 78.608 124.385 74.484 118.311 72.359 118.311" mask="url(#b)"/>
    <polygon fill="#EBEFF3" points="124.858 124.385 111.859 124.385 115.983 118.311 118.108 118.311" mask="url(#b)"/>
    <polygon fill="#EBEFF3" points="82.61 105.148 74.607 118.308 93.609 145.638 95.627 145.638" mask="url(#b)"/>
    <polygon fill="#EBEFF3" points="109.218 95.408 117.61 104.139 125.627 123.365 123.627 123.365 118.629 118.308 116.629 118.308 108.627 105.148" mask="url(#b)"/>
    <path fill="#EBEFF3" d="M109.2588,100.7742 L109.2588,86.1952 L103.8458,89.5822 C102.3838,90.4962 100.6988,90.9802 98.9808,90.9802 L92.9468,90.9802 C90.7898,90.9802 88.7018,90.2182 87.0418,88.8262 L82.6228,85.1192 L82.6248,90.8552 L109.2588,100.7742 Z" mask="url(#b)"/>
    <path fill="#003064" d="M98.6816,92.2253 L92.4846,92.2253 C90.0526,92.2253 87.9146,91.4423 86.1276,89.8973 C82.8726,87.0843 78.2596,82.5293 74.7576,76.8053 C68.5596,66.6753 67.2586,54.1953 67.2586,45.5093 L67.2586,44.6613 L69.2586,44.6613 L69.2586,45.5093 C69.2586,53.9383 70.5086,66.0293 76.4626,75.7613 C79.8316,81.2663 84.2886,85.6633 87.4356,88.3843 C88.8496,89.6063 90.5466,90.2253 92.4846,90.2253 L98.6816,90.2253 C100.8766,90.2253 102.6756,89.6403 104.0256,88.4853 C105.9106,86.8713 111.6486,81.9583 115.5316,75.6943 C120.5136,67.6483 123.2596,56.9283 123.2596,45.5093 L123.2596,44.6613 L125.2596,44.6613 L125.2596,45.5093 C125.2596,57.2953 122.4086,68.3893 117.2306,76.7473 C113.1856,83.2753 107.2696,88.3403 105.3266,90.0043 C103.6036,91.4783 101.3676,92.2253 98.6816,92.2253" mask="url(#b)"/>
    <polygon fill="#003064" points="81.609 95.915 83.609 95.915 83.609 85.159 81.609 85.159" mask="url(#b)"/>
    <polygon fill="#003064" points="107.609 96.548 109.609 96.548 109.609 85.919 107.609 85.919" mask="url(#b)"/>
    <path fill="#003064" d="M157.5371 176.1794L155.5371 176.1794 155.5371 175.0814 151.2811 132.4134C150.0491 123.1194 143.9021 115.2184 135.2421 111.8254L117.2581 105.0754 117.9611 103.2024 135.9591 109.9584C145.3081 113.6214 151.9351 122.1354 153.2671 132.1834L157.5311 174.9834 157.5371 176.1794zM35.7637 176.1794L33.7637 176.1794 33.7637 175.0814 38.0307 132.2154C39.3657 122.1354 45.9927 113.6214 55.3277 109.9634L73.2557 103.2034 73.9627 105.0754 56.0467 111.8304C47.3997 115.2184 41.2527 123.1194 40.0167 132.4464L35.7597 175.1814 35.7637 176.1794z" mask="url(#b)"/>
    <path fill="#003064" d="M94.1318,144.6384 L94.2378,144.6384 L81.6098,105.3054 L81.6098,97.4634 L74.4568,104.7024 L67.1088,122.3654 L67.1918,122.3654 L72.1898,117.3094 L75.1298,117.3094 L94.1318,144.6384 Z M96.9808,146.6384 L93.0868,146.6384 L74.0848,119.3094 L73.0258,119.3094 L68.0278,124.3654 L64.1108,124.3654 L72.7618,103.5754 L83.6098,92.5934 L83.6098,104.9924 L96.9808,146.6384 Z" mask="url(#b)"/>
    <path fill="#003064" d="M96.998,144.6384 L97.105,144.6384 L116.107,117.3094 L119.047,117.3094 L124.045,122.3654 L124.127,122.3654 L116.76,104.7024 L109.627,97.4664 L109.578,105.4534 L96.998,144.6384 Z M98.15,146.6384 L94.256,146.6384 L107.627,104.9924 L107.627,92.5894 L118.457,103.5754 L118.531,103.7544 L127.129,124.3654 L123.209,124.3654 L118.211,119.3094 L117.152,119.3094 L98.15,146.6384 Z" mask="url(#b)"/>
  </g>
</svg>
