<svg xmlns="http://www.w3.org/2000/svg" xmlns:xlink="http://www.w3.org/1999/xlink" width="183" height="176" viewBox="0 0 183 176">
  <defs>
    <polygon id="a" points="133.005 0 133.005 87.5 .505 87.5 .505 0 133.005 0"/>
    <polygon id="c" points="14.005 0 14.005 14 .005 14 .005 0 14.005 0"/>
    <polygon id="e" points="0 176.003 182.005 176.003 182.005 0 0 0"/>
  </defs>
  <g fill="none" fill-rule="evenodd">
    <path fill="#EBEFF3" d="M91.0054,16.0032 C57.9214,16.0032 31.0054,42.9192 31.0054,76.0032 C31.0054,109.0872 57.9214,136.0032 91.0054,136.0032 C124.0884,136.0032 151.0054,109.0872 151.0054,76.0032 C151.0054,42.9192 124.0884,16.0032 91.0054,16.0032 Z M91.0054,148.0032 C51.3034,148.0032 19.0054,115.7042 19.0054,76.0032 C19.0054,36.3022 51.3034,4.0032 91.0054,4.0032 C130.7064,4.0032 163.0054,36.3022 163.0054,76.0032 C163.0054,115.7042 130.7064,148.0032 91.0054,148.0032 Z"/>
    <path fill="#EBEFF3" d="M91.0054,136.0032 C57.9214,136.0032 31.0054,109.0872 31.0054,76.0032 L19.0054,76.0032 C19.0054,115.7042 51.3034,148.0032 91.0054,148.0032 C130.7064,148.0032 163.0054,115.7042 163.0054,76.0032 L151.0054,76.0032 C151.0054,109.0872 124.0884,136.0032 91.0054,136.0032"/>
    <g transform="translate(49 6.003)">
      <mask id="b" fill="white">
        <use xlink:href="#a"/>
      </mask>
      <path fill="#003064" d="M22.5054,87.5002 C22.2494,87.5002 21.9934,87.4022 21.7984,87.2072 L12.0054,77.4142 L2.2124,87.2072 C1.8214,87.5982 1.1894,87.5982 0.7984,87.2072 C0.4074,86.8162 0.4074,86.1842 0.7984,85.7932 L11.2984,75.2932 C11.6894,74.9022 12.3214,74.9022 12.7124,75.2932 L22.5054,85.0862 L62.2984,45.2932 C62.6894,44.9022 63.3214,44.9022 63.7124,45.2932 L75.0054,56.5862 L131.2984,0.2932 C131.6894,-0.0978 132.3214,-0.0978 132.7124,0.2932 C133.1034,0.6842 133.1034,1.3162 132.7124,1.7072 L75.7124,58.7072 C75.3214,59.0982 74.6894,59.0982 74.2984,58.7072 L63.0054,47.4142 L23.2124,87.2072 C23.0174,87.4022 22.7614,87.5002 22.5054,87.5002" mask="url(#b)"/>
    </g>
    <g transform="translate(168 6.003)">
      <mask id="d" fill="white">
        <use xlink:href="#c"/>
      </mask>
      <path fill="#003064" d="M13.0054,14.0002 C12.4534,14.0002 12.0054,13.5532 12.0054,13.0002 L12.0054,2.0002 L1.0054,2.0002 C0.4534,2.0002 0.0054,1.5532 0.0054,1.0002 C0.0054,0.4472 0.4534,0.0002 1.0054,0.0002 L13.0054,0.0002 C13.5584,0.0002 14.0054,0.4472 14.0054,1.0002 L14.0054,13.0002 C14.0054,13.5532 13.5584,14.0002 13.0054,14.0002" mask="url(#d)"/>
    </g>
    <path fill="#003064" d="M161.895 81.0061C161.876 81.0061 161.857 81.0051 161.838 81.0041 161.287 80.9741 160.865 80.5011 160.896 79.9491 161.313 72.5451 160.541 65.1221 158.603 57.8901 156.987 51.8561 154.588 46.0851 151.474 40.7381 151.196 40.2621 151.358 39.6501 151.834 39.3711 152.312 39.0951 152.924 39.2541 153.203 39.7331 156.406 45.2321 158.873 51.1671 160.535 57.3721 162.529 64.8111 163.322 72.4441 162.893 80.0631 162.863 80.5951 162.421 81.0061 161.895 81.0061M90.9448 147.9905C85.3228 147.9905 79.7118 147.3345 74.2448 146.0205L74.7128 144.0755C85.9658 146.7815 97.8638 146.6155 109.1188 143.6005L109.6358 145.5325C103.5258 147.1705 97.2288 147.9905 90.9448 147.9905M19.1235 80.0618C17.1775 46.2108 39.5725 15.2618 72.3755 6.4728 100.9805-1.1952 131.8845 9.7548 149.2785 33.7118L147.6605 34.8878C130.7495 11.5948 100.7035.9568 72.8935 8.4048 41.0025 16.9508 19.2275 47.0388 21.1205 79.9468L19.1235 80.0618z"/>
    <path fill="#003064" d="M97.9644 147.2083C90.2284 147.2083 82.3434 145.0553 74.7104 140.8083 74.2284 140.5393 74.0544 139.9303 74.3224 139.4473 74.5924 138.9663 75.1994 138.7913 75.6834 139.0603 86.3944 145.0203 97.5974 146.6873 108.0794 143.8793 108.6154 143.7343 109.1614 144.0523 109.3044 144.5863 109.4464 145.1193 109.1304 145.6683 108.5974 145.8113 105.1124 146.7443 101.5544 147.2083 97.9644 147.2083M41.2046 97.8606C40.7916 97.8606 40.4046 97.6026 40.2606 97.1906 39.4576 94.8966 38.7286 92.5376 38.0976 90.1786 27.8246 51.8406 42.7346 14.4156 71.3366 6.7516 71.8676 6.6066 72.4176 6.9236 72.5606 7.4586 72.7036 7.9916 72.3876 8.5406 71.8536 8.6826 44.3176 16.0616 30.0416 52.3876 40.0286 89.6616 40.6476 91.9716 41.3606 94.2826 42.1476 96.5306 42.3306 97.0506 42.0566 97.6226 41.5346 97.8036 41.4256 97.8426 41.3136 97.8606 41.2046 97.8606M25.0356 63.5032C24.5946 63.5032 24.1896 63.2092 24.0706 62.7622 23.9276 62.2292 24.2436 61.6802 24.7776 61.5372L31.0106 59.8672C31.5456 59.7212 32.0926 60.0402 32.2346 60.5742 32.3786 61.1072 32.0616 61.6562 31.5276 61.7992L25.2956 63.4692C25.2086 63.4922 25.1216 63.5032 25.0356 63.5032"/>
    <path fill="#003064" d="M41.6577 59.0491C41.2157 59.0491 40.8117 58.7551 40.6917 58.3081 40.5497 57.7751 40.8657 57.2261 41.3987 57.0831L58.0197 52.6301C58.5537 52.4861 59.1017 52.8041 59.2447 53.3371 59.3877 53.8701 59.0717 54.4191 58.5377 54.5621L41.9167 59.0151C41.8307 59.0381 41.7427 59.0491 41.6577 59.0491M133.0757 34.554C132.6337 34.554 132.2297 34.26 132.1097 33.813 131.9677 33.28 132.2837 32.731 132.8167 32.588L141.1287 30.362C141.6637 30.217 142.2097 30.534 142.3527 31.069 142.4957 31.602 142.1797 32.151 141.6457 32.293L133.3347 34.52C133.2477 34.543 133.1607 34.554 133.0757 34.554M55.1675 117.7815C54.7265 117.7815 54.3215 117.4875 54.2025 117.0405 54.0595 116.5075 54.3755 115.9585 54.9095 115.8155L73.6085 110.8045C74.1425 110.6595 74.6905 110.9775 74.8335 111.5115 74.9765 112.0455 74.6595 112.5945 74.1265 112.7365L55.4275 117.7475C55.3405 117.7705 55.2535 117.7815 55.1675 117.7815M66.5894 52.3684C66.1484 52.3684 65.7434 52.0744 65.6244 51.6274 65.4814 51.0944 65.7974 50.5454 66.3314 50.4024L99.5744 41.4954C100.1064 41.3504 100.6554 41.6684 100.7994 42.2024 100.9424 42.7354 100.6254 43.2844 100.0924 43.4274L66.8494 52.3344C66.7624 52.3574 66.6754 52.3684 66.5894 52.3684M82.1772 110.5442C81.7362 110.5442 81.3312 110.2502 81.2122 109.8032 81.0692 109.2702 81.3852 108.7212 81.9192 108.5782L115.1622 99.6712C115.6942 99.5242 116.2432 99.8442 116.3872 100.3782 116.5302 100.9112 116.2132 101.4602 115.6802 101.6032L82.4372 110.5102C82.3502 110.5332 82.2632 110.5442 82.1772 110.5442"/>
    <path fill="#003064" d="M68.939 85.9915C68.502 85.9915 68.102 85.7045 67.977 85.2635 67.709 84.3105 67.443 83.3505 67.185 82.3855 56.738 43.3965 59.018 10.0535 72.376 6.4725 83.104 3.6015 97.656 21.1725 108.603 50.1985 108.798 50.7155 108.538 51.2925 108.021 51.4865 107.504 51.6795 106.927 51.4215 106.732 50.9035 96.333 23.3295 82.418 5.8565 72.893 8.4045 61.028 11.5845 59.298 45.2255 69.117 81.8675 69.374 82.8255 69.635 83.7755 69.902 84.7195 70.052 85.2515 69.744 85.8045 69.211 85.9535 69.121 85.9795 69.029 85.9915 68.939 85.9915M120.3218 113.8411C119.7748 113.8411 119.3288 113.4011 119.3218 112.8531 119.1758 100.0591 116.9538 85.2881 112.8938 70.1381 111.9718 66.6981 110.9598 63.2621 109.8828 59.9231 109.7138 59.3981 110.0018 58.8341 110.5268 58.6641 111.0528 58.4981 111.6158 58.7841 111.7858 59.3101 112.8728 62.6801 113.8958 66.1491 114.8258 69.6201 118.9278 84.9301 121.1748 99.8711 121.3218 112.8291 121.3288 113.3821 120.8848 113.8341 120.3338 113.8411L120.3218 113.8411zM107.2896 145.8382C96.2216 145.8382 81.9756 126.5692 71.7336 97.1932 71.5526 96.6722 71.8276 96.1022 72.3496 95.9202 72.8696 95.7382 73.4396 96.0132 73.6226 96.5352 84.0746 126.5172 99.0006 146.3062 109.1186 143.6012 109.6516 143.4542 110.2006 143.7752 110.3436 144.3082 110.4856 144.8412 110.1696 145.3902 109.6366 145.5322 108.8726 145.7372 108.0886 145.8382 107.2896 145.8382M123.731 99.4095C123.29 99.4095 122.885 99.1155 122.766 98.6685 122.623 98.1355 122.939 97.5865 123.473 97.4435L135.937 94.1045C136.471 93.9595 137.018 94.2775 137.162 94.8115 137.304 95.3455 136.988 95.8935 136.455 96.0365L123.991 99.3755C123.904 99.3985 123.817 99.4095 123.731 99.4095M108.1431 41.2347C107.7021 41.2347 107.2971 40.9407 107.1781 40.4937 107.0351 39.9607 107.3511 39.4117 107.8851 39.2687L124.5061 34.8147C125.0391 34.6707 125.5881 34.9887 125.7311 35.5217 125.8741 36.0547 125.5581 36.6037 125.0241 36.7467L108.4031 41.2007C108.3161 41.2237 108.2291 41.2347 108.1431 41.2347"/>
    <path fill="#003064" d="M108.1431,41.2347 C107.7021,41.2347 107.2971,40.9407 107.1781,40.4937 C107.0351,39.9607 107.3511,39.4117 107.8851,39.2687 L124.5061,34.8147 C125.0391,34.6707 125.5881,34.9887 125.7311,35.5217 C125.8741,36.0547 125.5581,36.6037 125.0241,36.7467 L108.4031,41.2007 C108.3161,41.2237 108.2291,41.2347 108.1431,41.2347"/>
    <path fill="#003064" d="M135.4976,48.68 C135.1186,48.68 134.7566,48.463 134.5886,48.096 C128.1556,34.051 118.3896,22.366 107.0876,15.192 C95.5296,7.855 83.3466,5.605 71.8536,8.683 C71.3186,8.827 70.7716,8.51 70.6296,7.976 C70.4856,7.443 70.8026,6.894 71.3366,6.751 C95.7296,0.211 122.4886,16.874 136.4066,47.264 C136.6366,47.766 136.4156,48.36 135.9136,48.589 C135.7786,48.651 135.6376,48.68 135.4976,48.68"/>
    <polygon fill="#FFFFFF" points="116.498 32.679 116.423 32.944 116.177 32.685"/>
    <mask id="f" fill="white">
      <use xlink:href="#e"/>
    </mask>
    <polygon fill="#003064" points="6 61.005 8 61.005 8 57.005 6 57.005" mask="url(#f)"/>
    <polygon fill="#003064" points="6 71.005 8 71.005 8 67.005 6 67.005" mask="url(#f)"/>
    <polygon fill="#003064" points="10 65.005 14 65.005 14 63.005 10 63.005" mask="url(#f)"/>
    <polygon fill="#003064" points="0 65.005 4 65.005 4 63.005 0 63.005" mask="url(#f)"/>
    <path fill="#003064" d="M16.7729,19.9163 C15.6699,19.9163 14.7729,20.8133 14.7729,21.9163 C14.7729,23.0193 15.6699,23.9163 16.7729,23.9163 C17.8769,23.9163 18.7729,23.0193 18.7729,21.9163 C18.7729,20.8133 17.8769,19.9163 16.7729,19.9163 M16.7729,25.9163 C14.5679,25.9163 12.7729,24.1223 12.7729,21.9163 C12.7729,19.7103 14.5679,17.9163 16.7729,17.9163 C18.9789,17.9163 20.7729,19.7103 20.7729,21.9163 C20.7729,24.1223 18.9789,25.9163 16.7729,25.9163" mask="url(#f)"/>
    <polygon fill="#003064" points="78.884 166.003 76.884 166.003 76.884 155.003 39.886 155.003 39.886 166.003 37.886 166.003 37.886 153.003 78.884 153.003" mask="url(#f)"/>
    <polygon fill="#007BFF" points="32.886 176.003 81.005 176.003 81.005 163.008 32.886 163.008" mask="url(#f)"/>
    <path fill="#003064" d="M46.8853,171.0032 L42.8863,171.0032 C42.3333,171.0032 41.8863,170.5562 41.8863,170.0032 C41.8863,169.4502 42.3333,169.0032 42.8863,169.0032 L46.8853,169.0032 C47.4373,169.0032 47.8853,169.4502 47.8853,170.0032 C47.8853,170.5562 47.4373,171.0032 46.8853,171.0032" mask="url(#f)"/>
    <path fill="#003064" d="M40.8862 169.0032C40.3342 169.0032 39.8862 169.4512 39.8862 170.0032 39.8862 170.5552 40.3342 171.0032 40.8862 171.0032 41.4372 171.0032 41.8862 170.5552 41.8862 170.0032 41.8862 169.4512 41.4372 169.0032 40.8862 169.0032M40.8862 173.0032C39.2322 173.0032 37.8862 171.6572 37.8862 170.0032 37.8862 168.3492 39.2322 167.0032 40.8862 167.0032 42.5402 167.0032 43.8862 168.3492 43.8862 170.0032 43.8862 171.6572 42.5402 173.0032 40.8862 173.0032M47.3999 122.3899C47.1699 122.3899 46.9379 122.3109 46.7489 122.1489L34.1139 111.3049 34.1139 100.4819C34.1139 97.7799 33.1499 95.4169 31.4669 93.9999L31.1119 93.7009 31.1119 92.4769C31.1119 88.5169 28.9879 84.5219 24.2409 84.5219L21.2379 84.5219 21.2379 84.5939C21.2379 85.1469 20.7909 85.5939 20.2379 85.5939 19.6859 85.5939 19.2379 85.1469 19.2379 84.5939L19.2379 82.5219 24.2409 82.5219C29.4639 82.5219 33.1119 86.6159 33.1119 92.4769L33.1119 92.7889C35.0259 94.6029 36.1139 97.3759 36.1139 100.4819L36.1139 110.3849 48.0509 120.6309C48.4699 120.9909 48.5189 121.6219 48.1589 122.0409 47.9619 122.2719 47.6809 122.3899 47.3999 122.3899" mask="url(#f)"/>
    <path fill="#003064" d="M72.1899,154.4036 C71.6379,154.4036 71.1899,153.9566 71.1899,153.4036 L71.1899,131.5476 C71.1899,129.0946 70.2349,126.7896 68.5019,125.0546 L44.9879,101.5426 C42.4239,104.8726 42.7889,109.9776 45.9829,113.1726 L55.6119,122.2866 L44.0899,122.4316 C40.4789,122.4946 36.9719,121.0456 34.4279,118.5006 L23.1069,108.7266 L23.1069,92.4766 C23.1069,88.8066 21.2819,85.1066 17.2359,84.5846 L17.2359,113.9786 L45.2119,140.6446 L45.2119,153.3206 C45.2119,153.8736 44.7649,154.3206 44.2119,154.3206 C43.6609,154.3206 43.2119,153.8736 43.2119,153.3206 L43.2119,141.5026 L15.2359,114.8366 L15.2359,82.5216 L16.2359,82.5216 C21.4599,82.5216 25.1069,86.6156 25.1069,92.4766 L25.1069,107.8106 L35.7889,117.0366 C38.0069,119.2526 41.0109,120.5066 44.0649,120.4316 L50.6559,120.3486 L44.5879,114.6056 C40.3559,110.3736 40.2039,103.4076 44.2349,99.3756 L44.9419,98.6686 L69.9159,123.6406 C72.0269,125.7526 73.1899,128.5606 73.1899,131.5476 L73.1899,153.4036 C73.1899,153.9566 72.7429,154.4036 72.1899,154.4036" mask="url(#f)"/>
    <polygon fill="#003064" points="145.355 166.003 143.355 166.003 143.355 155.003 106.357 155.003 106.357 166.003 104.357 166.003 104.357 153.003 145.355 153.003" mask="url(#f)"/>
    <polygon fill="#007BFF" points="102.235 176.003 150.355 176.003 150.355 163.008 102.235 163.008" mask="url(#f)"/>
    <path fill="#003064" d="M140.355,171.0032 L136.356,171.0032 C135.804,171.0032 135.356,170.5562 135.356,170.0032 C135.356,169.4502 135.804,169.0032 136.356,169.0032 L140.355,169.0032 C140.907,169.0032 141.355,169.4502 141.355,170.0032 C141.355,170.5562 140.907,171.0032 140.355,171.0032" mask="url(#f)"/>
    <path fill="#003064" d="M142.355 169.0032C141.803 169.0032 141.355 169.4512 141.355 170.0032 141.355 170.5552 141.803 171.0032 142.355 171.0032 142.906 171.0032 143.355 170.5552 143.355 170.0032 143.355 169.4512 142.906 169.0032 142.355 169.0032M142.355 173.0032C140.701 173.0032 139.355 171.6572 139.355 170.0032 139.355 168.3492 140.701 167.0032 142.355 167.0032 144.009 167.0032 145.355 168.3492 145.355 170.0032 145.355 171.6572 144.009 173.0032 142.355 173.0032M135.8413 122.3899C135.5603 122.3899 135.2793 122.2719 135.0823 122.0409 134.7223 121.6219 134.7713 120.9909 135.1903 120.6309L147.1273 110.3849 147.1273 100.4819C147.1273 97.3759 148.2153 94.6029 150.1283 92.7889L150.1283 92.4769C150.1283 86.6159 153.7773 82.5219 159.0003 82.5219L164.0033 82.5219 164.0033 84.5939C164.0033 85.1469 163.5553 85.5939 163.0033 85.5939 162.4503 85.5939 162.0033 85.1469 162.0033 84.5939L162.0033 84.5219 159.0003 84.5219C154.2533 84.5219 152.1283 88.5169 152.1283 92.4769L152.1283 93.7009 151.7733 93.9999C150.0913 95.4169 149.1273 97.7799 149.1273 100.4819L149.1273 111.3049 136.4923 122.1489C136.3033 122.3109 136.0713 122.3899 135.8413 122.3899" mask="url(#f)"/>
    <path fill="#003064" d="M111.0513,154.4036 C110.4983,154.4036 110.0513,153.9566 110.0513,153.4036 L110.0513,131.5476 C110.0513,128.5596 111.2143,125.7526 113.3253,123.6406 L138.2993,98.6686 L139.0063,99.3756 C143.0383,103.4076 142.8853,110.3736 138.6713,114.5866 L132.5853,120.3486 L139.1753,120.4316 C142.2443,120.5126 145.2343,119.2526 147.3993,117.0866 L158.1333,107.8106 L158.1333,92.4766 C158.1333,86.6156 161.7813,82.5216 167.0053,82.5216 L168.0053,82.5216 L168.0053,114.8366 L140.0283,141.5026 L140.0283,153.3206 C140.0283,153.8736 139.5803,154.3206 139.0283,154.3206 C138.4763,154.3206 138.0283,153.8736 138.0283,153.3206 L138.0283,140.6446 L166.0053,113.9786 L166.0053,84.5846 C161.9593,85.1066 160.1333,88.8066 160.1333,92.4766 L160.1333,108.7266 L148.7603,118.5496 C146.2693,121.0456 142.7413,122.4936 139.1503,122.4316 L127.6293,122.2866 L137.2773,113.1526 C140.4533,109.9756 140.8183,104.8716 138.2533,101.5426 L114.7393,125.0546 C113.0063,126.7886 112.0513,129.0936 112.0513,131.5476 L112.0513,153.4036 C112.0513,153.9566 111.6033,154.4036 111.0513,154.4036" mask="url(#f)"/>
    <path fill="#007BFF" d="M175.0112,47.9993 C177.2202,47.9993 179.0112,49.7903 179.0112,51.9993 C179.0112,54.2083 177.2202,55.9993 175.0112,55.9993 C172.8022,55.9993 171.0112,54.2083 171.0112,51.9993 C171.0112,49.7903 172.8022,47.9993 175.0112,47.9993" mask="url(#f)"/>
    <polygon fill="#003064" points="147 3.999 149 3.999 149 -.001 147 -.001" mask="url(#f)"/>
    <polygon fill="#003064" points="147 13.999 149 13.999 149 9.999 147 9.999" mask="url(#f)"/>
    <polygon fill="#003064" points="151 7.999 155 7.999 155 5.999 151 5.999" mask="url(#f)"/>
    <polygon fill="#003064" points="141 7.999 145 7.999 145 5.999 141 5.999" mask="url(#f)"/>
    <polygon fill="#003064" points="167.011 144.083 169.011 144.083 169.011 140.083 167.011 140.083" mask="url(#f)"/>
    <polygon fill="#003064" points="167.011 154.083 169.011 154.083 169.011 150.083 167.011 150.083" mask="url(#f)"/>
    <polygon fill="#003064" points="171.011 148.083 175.011 148.083 175.011 146.083 171.011 146.083" mask="url(#f)"/>
    <polygon fill="#003064" points="161.011 148.083 165.011 148.083 165.011 146.083 161.011 146.083" mask="url(#f)"/>
  </g>
</svg>
