<svg xmlns="http://www.w3.org/2000/svg" xmlns:xlink="http://www.w3.org/1999/xlink" width="175" height="193" viewBox="0 0 175 193">
  <defs>
    <polygon id="a" points="0 193 193 193 193 0 0 0"/>
  </defs>
  <g fill="none" fill-rule="evenodd" transform="translate(-9)">
    <path fill="#007BFF" d="M101.9996,142.5002 C101.9996,142.5002 98.8006,106.8992 98.1996,104.6002 C98.6996,104.6002 99.1006,104.2002 99.1006,103.7002 L99.1006,101.6002 L96.8996,99.0002 L94.8006,101.6002 L94.8006,103.7002 C94.8006,104.2002 95.1996,104.6002 95.6996,104.6002 C95.1006,106.8992 92.1006,142.5002 92.1006,142.5002 L97.1006,148.5002 L101.9996,142.5002 Z"/>
    <polygon fill="#003064" points="78.7 192.5 78.6 154.3 76.6 154.3 76.6 115.5 78.6 115.5 78.6 152.3 80.6 152.3 80.7 192.5"/>
    <polygon fill="#003064" points="122.4 160.5 114 160.5 114 158.5 121.6 158.5 123 157.1 123 104.1 106.9 96.6 104.4 92.5 103.4 92.5 103.4 90.5 105.6 90.5 108.3 95.1 125 102.899 125 157.899"/>
    <path fill="#EBEFF3" d="M90.9,92.0002 L90.9,93.7002 L96.9,97.1002 L102.9,93.8002 L103,90.6002 L103,87.9002 L103.7,87.2002 C103.6,87.3002 103.6,87.3002 103.5,87.4002 C102.7,88.3002 101.4,89.2002 100.5,90.0002 C99.8,90.6002 99,90.9002 98.1,90.9002 L97.1,90.9002 L96.1,90.9002 L95.5,90.9002 C94.6,90.9002 93.7,90.6002 93.1,90.0002 C92.3,89.3002 91.1,88.4002 90.3,87.5002 L90.2,87.4002 L91,88.2002 L91,91.1002 L91,92.0002 L90.9,92.0002 Z"/>
    <path fill="#003064" d="M90.9,94.5998 C90.3,94.5998 89.9,94.2008 89.9,93.5998 L89.9,88.1998 C89.9,87.5998 90.3,87.1998 90.9,87.1998 C91.5,87.1998 91.9,87.5998 91.9,88.1998 L91.9,93.5998 C91.9,94.2008 91.5,94.5998 90.9,94.5998"/>
    <path fill="#003064" d="M102.9 94.5002C102.3 94.5002 101.9 94.1002 101.9 93.5002L101.9 87.5002 102.2 87.2002C102.4 87.0002 103.1 86.3002 103.3 85.9002L105.9 80.6002 108.6 79.3002 109.2 76.6002C109.2 76.5002 109.2 76.5002 109.1 76.4002 109.1 76.4002 109 76.3002 108.9 76.3002L107 76.3002 107.2 75.1002C107.4 73.9002 107.5 72.8002 107.5 71.9002L107.5 71.5002C107.5 69.9002 107.2 68.5002 106.6 67.1002 106.5 67.0002 106.5 66.8002 106.4 66.7002 105.7 65.3002 104.7 64.0002 103.4 63.0002 101.5 61.5002 99.3 60.7002 96.9 60.7002 94.2 60.7002 91.5 61.8002 89.4 63.8002 87.3 65.9002 86.1 68.7002 86.1 71.6002L86.1 72.0002C86.1 73.0002 86.2 74.0002 86.4 75.3002L86.6 76.4002 85 76.4002C84.8 76.4002 84.7 76.5002 84.7 76.6002L85.5 79.4002 87.8 80.8002 90.2 86.0002C90.5 86.8002 91.9 87.9002 92.8 88.7002 93.1 88.9002 93.4 89.2002 93.6 89.4002 94.1 89.8002 94.7 90.1002 95.4 90.1002L98 90.1002C98.6 90.1002 99 90.5002 99 91.1002 99 91.7002 98.6 92.1002 98 92.1002L95.4 92.1002C94.3 92.1002 93.2 91.7002 92.3 91.0002 92.1 90.8002 91.8 90.6002 91.5 90.3002 90.2 89.2002 88.7 88.0002 88.3 86.8002L86.2 82.3002 83.7 80.9002 82.6 76.9002C82.6 75.8002 83.3 74.9002 84.3 74.7002 84.2 73.8002 84.1 73.0002 84.1 72.2002L84.1 72.0002C84.1 68.6002 85.5 65.2002 88 62.7002 90.4 60.3002 93.6 59.0002 96.9 59.0002 99.7 59.0002 102.4 60.0002 104.7 61.7002 106.2 62.9002 107.4 64.4002 108.2 66.0002 108.3 66.1002 108.3 66.3002 108.4 66.4002 109.1 68.0002 109.5 69.8002 109.5 71.5002L109.5 72.0002C109.5 72.7002 109.4 73.6002 109.3 74.5002 109.7 74.6002 110 74.8002 110.3 75.1002 110.7 75.5002 111 76.1002 110.9 76.8002L110.9 77.0002 110.1 80.8002 107.2 82.3002 105 86.9002C104.8 87.4002 104.3 88.0002 103.8 88.5002L103.8 93.7002C103.9 94.1002 103.5 94.5002 102.9 94.5002M93.1002 103.3C92.9002 103.3 92.6002 103.2 92.4002 103 91.9992 102.6 91.9992 102 92.3002 101.6L96.9002 96.5 101.4992 101.6C101.9002 102 101.8002 102.6 101.4002 103 100.9992 103.4 100.4002 103.3 99.9992 102.9L96.9002 99.4 93.8002 102.9C93.6002 103.2 93.3002 103.3 93.1002 103.3M84.9996 153.3C84.9996 152.7 85.3996 152.3 85.9996 152.3 86.6006 152.3 86.9996 152.7 86.9996 153.3 86.9996 153.8 86.6006 154.3 85.9996 154.3 85.3996 154.3 84.9996 153.9 84.9996 153.3M88.9996 153.3C88.9996 152.7 89.3996 152.3 89.9996 152.3 90.6006 152.3 90.9996 152.7 90.9996 153.3 90.9996 153.8 90.6006 154.3 89.9996 154.3 89.3996 154.3 88.9996 153.9 88.9996 153.3M92.9996 153.3C92.9996 152.7 93.3996 152.3 93.9996 152.3 94.6006 152.3 94.9996 152.7 94.9996 153.3 94.9996 153.8 94.6006 154.3 93.9996 154.3 93.3996 154.3 92.9996 153.9 92.9996 153.3M96.9996 153.3C96.9996 152.7 97.3996 152.3 97.9996 152.3 98.4996 152.3 98.9996 152.7 98.9996 153.3 98.9996 153.8 98.4996 154.3 97.9996 154.3 97.3996 154.3 96.9996 153.9 96.9996 153.3M100.9996 153.3C100.9996 152.7 101.3996 152.3 101.9996 152.3 102.4996 152.3 102.9996 152.7 102.9996 153.3 102.9996 153.8 102.4996 154.3 101.9996 154.3 101.3996 154.3 100.9996 153.9 100.9996 153.3M104.9996 153.3C104.9996 152.7 105.3996 152.3 105.9996 152.3 106.4996 152.3 106.9996 152.7 106.9996 153.3 106.9996 153.8 106.4996 154.3 105.9996 154.3 105.3996 154.3 104.9996 153.9 104.9996 153.3M108.9996 153.3C108.9996 152.7 109.3996 152.3 109.9996 152.3 110.6006 152.3 110.9996 152.7 110.9996 153.3 110.9996 153.8 110.6006 154.3 109.9996 154.3 109.3996 154.3 108.9996 153.9 108.9996 153.3"/>
    <mask id="b" fill="white">
      <use xlink:href="#a"/>
    </mask>
    <polygon fill="#003064" points="95 192.5 97 192.5 97 163.5 95 163.5" mask="url(#b)"/>
    <polygon fill="#003064" points="115 192.5 113 192.5 113 152.3 115 152.3 115 115.5 117 115.5 117 154.3 115 154.3" mask="url(#b)"/>
    <polygon fill="#003064" points="118.4 172.5 114 172.5 114 170.5 117.6 170.5 119 169.1 119 159.5 121 159.5 121 169.899" mask="url(#b)"/>
    <polygon fill="#003064" points="83.9 162.5 79.6 162.5 79.6 160.5 82.8 160.5 84.7 157.3 84.7 155.399 86.7 155.399 86.7 157.8" mask="url(#b)"/>
    <polygon fill="#003064" points="113.8 162.5 109.4 162.5 106.999 157.8 106.999 155.399 108.999 155.399 108.999 157.3 110.6 160.5 113.8 160.5" mask="url(#b)"/>
    <polygon fill="#003064" points="79 160.5 70.601 160.5 68 157.899 68 102.899 84.7 95.1 87.4 90.5 90 90.5 90 92.5 88.601 92.5 86.101 96.6 70 104.1 70 157.1 71.4 158.5 79 158.5" mask="url(#b)"/>
    <polygon fill="#003064" points="79 172.5 74.601 172.5 72 169.899 72 159.5 74 159.5 74 169.1 75.4 170.5 79 170.5" mask="url(#b)"/>
    <path fill="#007BFF" d="M42.9996,142.5002 C42.9996,142.5002 39.8006,106.8992 39.1996,104.6002 C39.6996,104.6002 40.1006,104.2002 40.1006,103.7002 L40.1006,101.6002 L37.8996,99.0002 L35.8006,101.6002 L35.8006,103.7002 C35.8006,104.2002 36.1996,104.6002 36.6996,104.6002 C36.1006,106.8992 33.1006,142.5002 33.1006,142.5002 L38.1006,148.5002 L42.9996,142.5002 Z" mask="url(#b)"/>
    <polygon fill="#003064" points="19.7 192.5 19.6 154.3 17.6 154.3 17.6 115.5 19.6 115.5 19.6 152.3 21.6 152.3 21.7 192.5" mask="url(#b)"/>
    <polygon fill="#003064" points="63.4 160.5 55 160.5 55 158.5 62.6 158.5 64 157.1 64 104.1 47.9 96.6 45.4 92.5 44.3 92.5 44.3 90.5 46.5 90.5 49.3 95.1 66 102.899 66 157.899" mask="url(#b)"/>
    <path fill="#EBEFF3" d="M31.9,92.0002 L31.9,93.7002 L37.9,97.1002 L43.9,93.8002 L44,90.6002 L44,87.9002 L44.7,87.2002 C44.6,87.3002 44.6,87.3002 44.5,87.4002 C43.7,88.3002 42.4,89.2002 41.5,90.0002 C40.8,90.6002 40,90.9002 39.1,90.9002 L38.1,90.9002 L37.1,90.9002 L36.5,90.9002 C35.6,90.9002 34.7,90.6002 34.1,90.0002 C33.3,89.3002 32.1,88.4002 31.3,87.5002 L31.2,87.4002 L32,88.2002 L32,91.1002 L32,92.0002 L31.9,92.0002 Z" mask="url(#b)"/>
    <path fill="#003064" d="M31.9,94.5998 C31.3,94.5998 30.9,94.2008 30.9,93.5998 L30.9,88.1998 C30.9,87.5998 31.3,87.1998 31.9,87.1998 C32.5,87.1998 32.9,87.5998 32.9,88.1998 L32.9,93.5998 C32.9,94.2008 32.5,94.5998 31.9,94.5998" mask="url(#b)"/>
    <path fill="#003064" d="M43.9 94.5002C43.3 94.5002 42.9 94.1002 42.9 93.5002L42.9 87.5002 43.2 87.2002C43.4 87.0002 44.1 86.3002 44.3 85.9002L46.9 80.6002 49.6 79.3002 50.2 76.6002C50.2 76.5002 50.2 76.5002 50.1 76.4002 50.1 76.4002 50 76.3002 49.9 76.3002L48 76.3002 48.2 75.1002C48.4 73.9002 48.5 72.8002 48.5 71.9002L48.5 71.4002C48.5 69.9002 48.2 68.5002 47.6 67.1002 47.5 67.0002 47.5 66.8002 47.4 66.7002 46.7 65.3002 45.7 64.0002 44.4 63.0002 42.5 61.5002 40.3 60.7002 37.9 60.7002 35.1 60.7002 32.5 61.8002 30.4 63.8002 28.3 65.9002 27.1 68.7002 27.1 71.6002L27.1 72.0002C27.1 73.0002 27.2 74.0002 27.4 75.2002L27.6 76.3002 26 76.3002C25.8 76.3002 25.7 76.4002 25.7 76.5002L26.5 79.3002 28.8 80.7002 31.2 85.9002C31.5 86.7002 32.9 87.8002 33.8 88.6002 34.1 88.8002 34.4 89.1002 34.6 89.3002 35.1 89.7002 35.7 90.0002 36.4 90.0002L39 90.0002C39.6 90.0002 40 90.4002 40 91.0002 40 91.6002 39.6 92.0002 39 92.0002L36.4 92.0002C35.3 92.0002 34.2 91.6002 33.3 90.9002 33.1 90.7002 32.8 90.5002 32.5 90.2002 31.2 89.1002 29.7 87.9002 29.3 86.8002L27.2 82.3002 24.7 80.9002 23.6 76.9002C23.6 75.8002 24.3 74.9002 25.3 74.7002 25.2 73.8002 25.1 73.0002 25.1 72.2002L25.1 72.0002C25.1 68.6002 26.5 65.2002 29 62.7002 31.4 60.3002 34.6 59.0002 37.9 59.0002 40.7 59.0002 43.4 60.0002 45.7 61.7002 47.2 62.9002 48.4 64.4002 49.2 66.0002 49.3 66.1002 49.3 66.3002 49.4 66.4002 50.1 68.0002 50.5 69.8002 50.5 71.5002L50.5 72.0002C50.5 72.8002 50.4 73.6002 50.3 74.5002 50.7 74.6002 51.1 74.8002 51.3 75.1002 51.7 75.5002 52 76.1002 51.9 76.8002L51.9 77.0002 51.1 80.8002 48.2 82.3002 46 86.9002C45.8 87.4002 45.3 88.0002 44.8 88.5002L44.8 93.7002C44.9 94.1002 44.4 94.5002 43.9 94.5002M33.9996 103.3C33.8006 103.3 33.4996 103.2 33.3006 103 32.8996 102.6 32.8996 102 33.1996 101.6L37.8006 96.5 42.3996 101.6C42.8006 102 42.6996 102.6 42.3006 103 41.8996 103.4 41.3006 103.3 40.8996 102.9L37.8006 99.4 34.6996 102.9C34.6006 103.2 34.3006 103.3 33.9996 103.3M25.9996 153.3C25.9996 152.7 26.3996 152.3 26.9996 152.3 27.6006 152.3 27.9996 152.7 27.9996 153.3 27.9996 153.8 27.6006 154.3 26.9996 154.3 26.3996 154.3 25.9996 153.9 25.9996 153.3M29.9996 153.3C29.9996 152.7 30.3996 152.3 30.9996 152.3 31.6006 152.3 31.9996 152.7 31.9996 153.3 31.9996 153.8 31.6006 154.3 30.9996 154.3 30.3996 154.3 29.9996 153.9 29.9996 153.3M33.9996 153.3C33.9996 152.7 34.3996 152.3 34.9996 152.3 35.6006 152.3 35.9996 152.7 35.9996 153.3 35.9996 153.8 35.6006 154.3 34.9996 154.3 34.3996 154.3 33.9996 153.9 33.9996 153.3M37.9996 153.3C37.9996 152.7 38.3996 152.3 38.9996 152.3 39.6006 152.3 39.9996 152.7 39.9996 153.3 39.9996 153.8 39.6006 154.3 38.9996 154.3 38.3996 154.3 37.9996 153.9 37.9996 153.3M41.9996 153.3C41.9996 152.7 42.4996 152.3 42.9996 152.3 43.6006 152.3 43.9996 152.7 43.9996 153.3 43.9996 153.8 43.6006 154.3 42.9996 154.3 42.3996 154.3 41.9996 153.9 41.9996 153.3M45.9996 153.3C45.9996 152.7 46.4996 152.3 46.9996 152.3 47.6006 152.3 47.9996 152.7 47.9996 153.3 47.9996 153.8 47.6006 154.3 46.9996 154.3 46.3996 154.3 45.9996 153.9 45.9996 153.3M49.9996 153.3C49.9996 152.7 50.4996 152.3 50.9996 152.3 51.6006 152.3 51.9996 152.7 51.9996 153.3 51.9996 153.8 51.6006 154.3 50.9996 154.3 50.3996 154.3 49.9996 153.9 49.9996 153.3" mask="url(#b)"/>
    <polygon fill="#003064" points="36 192.5 38 192.5 38 163.5 36 163.5" mask="url(#b)"/>
    <polygon fill="#003064" points="56 192.5 54 192.5 54 152.3 56 152.3 56 115.5 58 115.5 58 154.3 56 154.3" mask="url(#b)"/>
    <polygon fill="#003064" points="59.4 172.5 55 172.5 55 170.5 58.6 170.5 60 169.1 60 159.5 62 159.5 62 169.899" mask="url(#b)"/>
    <polygon fill="#003064" points="24.9 162.5 20.6 162.5 20.6 160.5 23.8 160.5 25.6 157.3 25.6 155.399 27.6 155.399 27.6 157.8" mask="url(#b)"/>
    <polygon fill="#003064" points="54.7 162.5 50.4 162.5 48 157.8 48 155.399 50 155.399 50 157.3 51.6 160.5 54.7 160.5" mask="url(#b)"/>
    <polygon fill="#003064" points="20 160.5 11.601 160.5 9 157.899 9 102.899 25.601 95.1 28.4 90.5 31 90.5 31 92.5 29.5 92.5 27 96.6 11 104.1 11 157.1 12.4 158.5 20 158.5" mask="url(#b)"/>
    <polygon fill="#003064" points="20 172.5 15.601 172.5 13 169.899 13 159.5 15 159.5 15 169.1 16.4 170.5 20 170.5" mask="url(#b)"/>
    <path fill="#007BFF" d="M160.9996,142.5002 C160.9996,142.5002 157.8006,106.8992 157.1996,104.6002 C157.6996,104.6002 158.1006,104.2002 158.1006,103.7002 L158.1006,101.6002 L155.8996,99.0002 L153.8006,101.6002 L153.8006,103.7002 C153.8006,104.2002 154.1996,104.6002 154.6996,104.6002 C154.1006,106.8992 151.1006,142.5002 151.1006,142.5002 L156.1006,148.5002 L160.9996,142.5002 Z" mask="url(#b)"/>
    <polygon fill="#003064" points="137.7 192.5 137.7 154.3 135.7 154.3 135.7 115.5 137.7 115.5 137.7 152.3 139.7 152.3 139.7 192.5" mask="url(#b)"/>
    <polygon fill="#003064" points="181.4 160.5 173 160.5 173 158.5 180.6 158.5 182 157.1 182 104.1 166 96.6 163.5 92.5 162.4 92.5 162.4 90.5 164.6 90.5 167.4 95.1 184 102.899 184 157.899" mask="url(#b)"/>
    <path fill="#EBEFF3" d="M149.9996,92.0002 L149.9996,93.7002 L155.9996,97.1002 L161.9996,93.8002 L162.1006,90.6002 L162.1006,87.9002 L162.8006,87.2002 C162.6996,87.3002 162.6996,87.3002 162.6006,87.4002 C161.8006,88.3002 160.4996,89.2002 159.6006,90.0002 C158.8996,90.6002 158.1006,90.9002 157.1996,90.9002 L156.1996,90.9002 L155.1996,90.9002 L154.6006,90.9002 C153.6996,90.9002 152.8006,90.6002 152.1996,90.0002 C151.3996,89.3002 150.1996,88.4002 149.3996,87.5002 L149.3006,87.4002 L150.1006,88.2002 L150.1006,91.1002 L150.1006,92.0002 L149.9996,92.0002 Z" mask="url(#b)"/>
    <path fill="#003064" d="M149.9996,94.5998 C149.3996,94.5998 148.9996,94.2008 148.9996,93.5998 L148.9996,88.1998 C148.9996,87.5998 149.3996,87.1998 149.9996,87.1998 C150.6006,87.1998 150.9996,87.5998 150.9996,88.1998 L150.9996,93.5998 C150.9996,94.2008 150.4996,94.5998 149.9996,94.5998" mask="url(#b)"/>
    <path fill="#003064" d="M161.9996 94.5002C161.3996 94.5002 160.9996 94.1002 160.9996 93.5002L160.9996 87.5002 161.3006 87.2002C161.4996 87.0002 162.1996 86.3002 162.3996 85.9002L164.9996 80.6002 167.6996 79.3002 168.3006 76.6002C168.3006 76.5002 168.3006 76.5002 168.1996 76.4002 168.1996 76.4002 168.1006 76.3002 167.9996 76.3002L166.3006 76.3002 166.4996 75.1002C166.6996 73.9002 166.8006 72.8002 166.8006 71.9002L166.8006 71.4002C166.8006 69.9002 166.4996 68.5002 165.8996 67.1002 165.8006 67.0002 165.8006 66.8002 165.6996 66.7002 164.9996 65.3002 163.9996 64.0002 162.6996 63.0002 160.8006 61.5002 158.6006 60.7002 156.1996 60.7002 153.3996 60.7002 150.8006 61.8002 148.6996 63.8002 146.6006 65.9002 145.3996 68.7002 145.3996 71.6002L145.3996 72.0002C145.3996 73.0002 145.4996 74.0002 145.6996 75.2002L145.8996 76.3002 143.9996 76.3002C143.8006 76.3002 143.6996 76.4002 143.6996 76.5002L144.4996 79.3002 146.8006 80.7002 149.1996 85.9002C149.4996 86.7002 150.8996 87.8002 151.8006 88.6002 152.1006 88.8002 152.3996 89.1002 152.6006 89.3002 153.1006 89.7002 153.6996 90.0002 154.3996 90.0002L156.9996 90.0002C157.6006 90.0002 157.9996 90.4002 157.9996 91.0002 157.9996 91.6002 157.6006 92.0002 156.9996 92.0002L154.3996 92.0002C153.3006 92.0002 152.1996 91.6002 151.3006 90.9002 151.1006 90.7002 150.8006 90.5002 150.4996 90.2002 149.1996 89.1002 147.6996 87.9002 147.3006 86.8002L145.1996 82.3002 142.6996 80.9002 141.6006 76.9002C141.6006 75.8002 142.3006 74.9002 143.3006 74.7002 143.1996 73.8002 143.1006 73.0002 143.1006 72.2002L143.1006 72.0002C143.1006 68.6002 144.4996 65.2002 146.9996 62.7002 149.3996 60.3002 152.4996 59.0002 155.8006 59.0002L155.8996 59.0002C158.6996 59.0002 161.3996 60.0002 163.6996 61.7002 165.1996 62.9002 166.3996 64.4002 167.1996 66.0002 167.3006 66.1002 167.3006 66.3002 167.3996 66.4002 168.1006 68.0002 168.4996 69.8002 168.4996 71.5002L168.4996 72.0002C168.4996 72.8002 168.3996 73.6002 168.3006 74.5002 168.6996 74.6002 169.1006 74.8002 169.3006 75.1002 169.6996 75.5002 169.9996 76.1002 169.8996 76.8002L169.8996 77.0002 169.1006 80.8002 166.1996 82.3002 163.9996 86.9002C163.8006 87.4002 163.3006 88.0002 162.8006 88.5002L162.8006 93.7002C162.9996 94.1002 162.4996 94.5002 161.9996 94.5002M152.1002 103.3C151.9002 103.3 151.6002 103.2 151.4002 103 150.9992 102.6 150.9992 102 151.3002 101.6L155.9002 96.5 160.4992 101.6C160.9002 102 160.8002 102.6 160.4002 103 159.9992 103.4 159.4002 103.3 158.9992 102.9L155.9002 99.4 152.8002 102.9C152.6002 103.2 152.4002 103.3 152.1002 103.3M143.9996 153.3C143.9996 152.7 144.3996 152.3 144.9996 152.3 145.4996 152.3 145.9996 152.7 145.9996 153.3 145.9996 153.8 145.4996 154.3 144.9996 154.3 144.4996 154.3 143.9996 153.9 143.9996 153.3M147.9996 153.3C147.9996 152.7 148.3996 152.3 148.9996 152.3 149.4996 152.3 149.9996 152.7 149.9996 153.3 149.9996 153.8 149.4996 154.3 148.9996 154.3 148.4996 154.3 147.9996 153.9 147.9996 153.3M151.9996 153.3C151.9996 152.7 152.3996 152.3 152.9996 152.3 153.4996 152.3 153.9996 152.7 153.9996 153.3 153.9996 153.8 153.4996 154.3 152.9996 154.3 152.4996 154.3 151.9996 153.9 151.9996 153.3M155.9996 153.3C155.9996 152.7 156.3996 152.3 156.9996 152.3 157.4996 152.3 157.9996 152.7 157.9996 153.3 157.9996 153.8 157.4996 154.3 156.9996 154.3 156.4996 154.3 155.9996 153.9 155.9996 153.3M159.9996 153.3C159.9996 152.7 160.3996 152.3 160.9996 152.3 161.4996 152.3 161.9996 152.7 161.9996 153.3 161.9996 153.8 161.4996 154.3 160.9996 154.3 160.4996 154.3 159.9996 153.9 159.9996 153.3M163.9996 153.3C163.9996 152.7 164.3996 152.3 164.9996 152.3 165.4996 152.3 165.9996 152.7 165.9996 153.3 165.9996 153.8 165.4996 154.3 164.9996 154.3 164.4996 154.3 163.9996 153.9 163.9996 153.3M167.9996 153.3C167.9996 152.7 168.3996 152.3 168.9996 152.3 169.4996 152.3 169.9996 152.7 169.9996 153.3 169.9996 153.8 169.4996 154.3 168.9996 154.3 168.4996 154.3 167.9996 153.9 167.9996 153.3" mask="url(#b)"/>
    <polygon fill="#003064" points="154 192.5 156 192.5 156 163.5 154 163.5" mask="url(#b)"/>
    <polygon fill="#003064" points="174 192.5 172 192.5 172 152.3 174 152.3 174 115.5 176 115.5 176 154.3 174 154.3" mask="url(#b)"/>
    <polygon fill="#003064" points="177.4 172.5 173 172.5 173 170.5 176.6 170.5 178 169.1 178 159.5 180 159.5 180 169.899" mask="url(#b)"/>
    <polygon fill="#003064" points="143 162.5 138.7 162.5 138.7 160.5 141.801 160.5 143.7 157.3 143.7 155.399 145.7 155.399 145.7 157.8" mask="url(#b)"/>
    <polygon fill="#003064" points="172.8 162.5 168.4 162.5 165.999 157.8 165.999 155.399 167.999 155.399 167.999 157.3 169.6 160.5 172.8 160.5" mask="url(#b)"/>
    <polygon fill="#003064" points="138 160.5 129.601 160.5 127 157.899 127 102.899 143.7 95.1 146.5 90.5 149 90.5 149 92.5 147.601 92.5 145.101 96.6 129 104.1 129 157.1 130.4 158.5 138 158.5" mask="url(#b)"/>
    <polygon fill="#003064" points="138 172.5 133.601 172.5 131 169.899 131 159.5 133 159.5 133 169.1 134.4 170.5 138 170.5" mask="url(#b)"/>
    <path fill="#003064" d="M32.9,38.8 L51,38.8 L51,12.8 L32.9,12.8 L32.9,38.8 Z M30.9,40.8 L53,40.8 L53,10.8 L30.9,10.8 L30.9,40.8 Z" mask="url(#b)"/>
    <path fill="#003064" d="M36.9 18.8L47 18.8 47 16.8 36.9 16.8 36.9 18.8zM34.9 20.8L49 20.8 49 14.8 34.9 14.8 34.9 20.8zM35 24.7L37 24.7 37 22.7 35 22.7 35 24.7zM35 28.7L37 28.7 37 26.7 35 26.7 35 28.7zM35 32.7L37 32.7 37 30.7 35 30.7 35 32.7zM35 36.7L37 36.7 37 34.7 35 34.7 35 36.7zM39 24.7L41 24.7 41 22.7 39 22.7 39 24.7zM39 28.7L41 28.7 41 26.7 39 26.7 39 28.7zM39 32.7L41 32.7 41 30.7 39 30.7 39 32.7zM39 36.7L41 36.7 41 34.7 39 34.7 39 36.7zM43 24.7L45 24.7 45 22.7 43 22.7 43 24.7zM43 28.7L45 28.7 45 26.7 43 26.7 43 28.7zM43 32.7L45 32.7 45 30.7 43 30.7 43 32.7zM43 36.7L45 36.7 45 34.7 43 34.7 43 36.7zM47 24.7L49 24.7 49 22.7 47 22.7 47 24.7zM47 28.7L49 28.7 49 26.7 47 26.7 47 28.7z" mask="url(#b)"/>
    <polygon fill="#003064" points="47 36.7 49 36.7 49 30.7 47 30.7" mask="url(#b)"/>
    <path fill="#003064" d="M42.4996 3.5002C36.6996 3.5002 31.1996 5.8002 26.9996 9.9002 22.8006 14.0002 20.6006 19.5002 20.6006 25.4002 20.6006 35.9002 28.1006 45.0002 38.3996 46.9002L38.8006 47.0002 42.4996 51.9002 46.1996 47.0002 46.6006 46.9002C56.8996 45.0002 64.3996 35.9002 64.3996 25.4002 64.3006 13.3002 54.4996 3.5002 42.4996 3.5002L42.4996 3.5002zM42.4996 55.2002L37.6996 48.8002C26.6006 46.5002 18.6006 36.8002 18.6006 25.4002 18.6006 19.0002 21.1006 13.0002 25.6006 8.5002 30.1006 4.0002 36.1006 1.5002 42.4996 1.5002 55.6996 1.5002 66.3996 12.2002 66.3996 25.4002 66.3996 36.8002 58.3996 46.5002 47.3006 48.8002L42.4996 55.2002zM114.1002 30.4001L112.2002 29.8001 112.4992 28.8001 111.2002 28.4001C109.6002 27.9001 108.6002 26.5001 108.6002 24.9001 108.6002 23.3001 109.6002 21.9001 111.2002 21.4001L112.4992 21.0001 111.8002 18.8001 110.4992 19.2001C108.9002 19.7001 107.3002 19.2001 106.3002 17.8001 105.3002 16.5001 105.3002 14.8001 106.3002 13.4001L107.1002 12.3001 105.2002 10.9001 104.4002 12.0001C103.4002 13.3001 101.8002 13.9001 100.2002 13.3001 98.6002 12.8001 97.6002 11.4001 97.6002 9.8001L97.6002 8.4001 95.3002 8.4001 95.3002 9.8001C95.3002 11.4001 94.3002 12.8001 92.7002 13.3001 91.1002 13.8001 89.4992 13.3001 88.4992 11.9001L87.7002 10.8001 85.8002 12.2001 86.6002 13.3001C87.6002 14.6001 87.6002 16.3001 86.6002 17.7001 85.6002 19.0001 83.9992 19.6001 82.4002 19.0001L81.1002 18.6001 80.8002 19.6001 78.9992 18.9001 79.9992 16.0001 83.2002 17.0001C84.1002 17.3001 84.8002 16.9001 85.1002 16.4001 85.4992 15.9001 85.6002 15.1001 85.1002 14.4001L83.1002 11.7001 88.2002 8.0001 90.2002 10.7001C90.7002 11.4001 91.4992 11.5001 92.1002 11.3001 92.7002 11.1001 93.3002 10.6001 93.3002 9.7001L93.3002 6.3001 99.6002 6.3001 99.6002 9.7001C99.6002 10.6001 100.2002 11.1001 100.8002 11.3001 101.4002 11.5001 102.2002 11.4001 102.7002 10.7001L104.7002 8.0001 109.8002 11.7001 107.8002 14.4001C107.3002 15.1001 107.4002 15.9001 107.8002 16.4001 108.2002 16.9001 108.8002 17.3001 109.7002 17.0001L112.9002 16.0001 114.9002 22.0001 111.7002 23.0001C110.8002 23.3001 110.4992 24.0001 110.4992 24.6001 110.4992 25.2001 110.8002 26.0001 111.7002 26.2001L114.9002 27.2001 114.1002 30.4001z" mask="url(#b)"/>
    <path fill="#007BFF" d="M104.6998,27.4001 L102.8008,26.8001 C103.3008,25.1001 103.1998,23.3001 102.3998,21.8001 C101.5998,20.3001 100.1998,19.1001 98.5998,18.5001 C95.0998,17.4001 91.3998,19.3001 90.3008,22.7001 L88.3998,22.1001 C89.8998,17.6001 94.6998,15.1001 99.3008,16.6001 C101.4998,17.3001 103.3008,18.8001 104.3008,20.9001 C105.1998,22.9001 105.3998,25.2001 104.6998,27.4001" mask="url(#b)"/>
    <path fill="#007BFF" d="M96.4996,33.3 C95.6006,33.3 94.6996,33.2 93.8006,32.9 C91.6006,32.2 89.8006,30.7 88.8006,28.6 C87.8006,26.5 87.6006,24.2 88.3006,22 L90.1996,22.6 C89.6996,24.3 89.8006,26.1 90.6006,27.6 C91.3996,29.2 92.8006,30.3 94.3996,30.9 C97.8996,32 101.6006,30.1 102.6996,26.7 L104.6006,27.3 C103.4996,31 100.1996,33.3 96.4996,33.3" mask="url(#b)"/>
    <path fill="#003064" d="M99.6998,43.0998 L93.3998,43.0998 L93.3998,39.6998 C93.3998,38.7998 92.8008,38.2998 92.1998,38.0998 C91.5998,37.8998 90.8008,37.9998 90.3008,38.6998 L88.3008,41.3998 L83.1998,37.6998 L85.1998,34.9998 C85.6998,34.2998 85.5998,33.4998 85.1998,32.9998 C84.8008,32.4998 84.1998,32.0998 83.3008,32.3998 L80.0998,33.3998 L78.0998,27.3998 L81.3008,26.3998 C82.1998,26.0998 82.4998,25.3998 82.4998,24.7998 C82.4998,24.1998 82.1998,23.4998 81.3008,23.1998 L77.9998,21.9998 L79.0998,18.6998 L80.9998,19.2998 L80.4998,20.6998 L81.8008,21.0998 C83.3998,21.5998 84.3998,22.9998 84.3998,24.5998 C84.3998,26.1998 83.3998,27.5998 81.8008,28.0998 L80.4998,28.4998 L81.1998,30.6998 L82.4998,30.2998 C84.0998,29.7998 85.6998,30.2998 86.6998,31.6998 C87.6998,32.9998 87.6998,34.6998 86.6998,36.0998 L85.8998,37.1998 L87.8008,38.5998 L88.5998,37.4998 C89.5998,36.1998 91.1998,35.5998 92.8008,36.1998 C94.3998,36.6998 95.3998,38.0998 95.3998,39.6998 L95.3998,41.0998 L97.6998,41.0998 L97.6998,39.6998 C97.6998,38.0998 98.6998,36.6998 100.3008,36.1998 C101.8998,35.6998 103.4998,36.1998 104.4998,37.5998 L105.3008,38.6998 L107.1998,37.2998 L106.3998,36.1998 C105.3998,34.8998 105.3998,33.1998 106.3998,31.7998 C107.3998,30.4998 108.9998,29.8998 110.5998,30.4998 L111.8998,30.8998 L112.3998,29.2998 L114.3008,29.8998 L113.1998,33.3998 L109.9998,32.3998 C109.0998,32.0998 108.3998,32.4998 108.0998,32.9998 C107.6998,33.4998 107.5998,34.2998 108.0998,34.9998 L110.0998,37.6998 L104.9998,41.3998 L102.9998,38.6998 C102.4998,37.9998 101.6998,37.8998 101.0998,38.0998 C100.4998,38.2998 99.8998,38.7998 99.8998,39.6998 L99.6998,43.0998 Z" mask="url(#b)"/>
    <path fill="#007BFF" d="M96.4996,20.6999 C98.7646,20.6999 100.6006,22.5359 100.6006,24.7999 C100.6006,27.0639 98.7646,28.8999 96.4996,28.8999 C94.2356,28.8999 92.3996,27.0639 92.3996,24.7999 C92.3996,22.5359 94.2356,20.6999 96.4996,20.6999" mask="url(#b)"/>
    <path fill="#007BFF" d="M96.4996,21.1999 C94.4996,21.1999 92.8996,22.7999 92.8996,24.7999 C92.8996,26.7999 94.4996,28.3999 96.4996,28.3999 C98.4996,28.3999 100.1006,26.7999 100.1006,24.7999 C99.9996,22.7999 98.3996,21.1999 96.4996,21.1999 M96.4996,29.3999 C93.9996,29.3999 91.8996,27.2999 91.8996,24.7999 C91.8996,22.2999 93.9996,20.1999 96.4996,20.1999 C98.9996,20.1999 101.1006,22.2999 101.1006,24.7999 C100.9996,27.2999 98.9996,29.3999 96.4996,29.3999" mask="url(#b)"/>
    <path fill="#003064" d="M96.9,2.5002 C84.8,2.5002 75,12.3002 75,24.4002 C75,34.9002 82.5,44.0002 92.8,45.9002 L93.2,46.0002 L96.9,50.9002 L100.6,46.0002 L101,45.9002 C111.3,44.0002 118.8,34.9002 118.8,24.4002 C118.8,12.3002 109,2.5002 96.9,2.5002 L96.9,2.5002 Z M96.9,54.2002 L92.1,47.8002 C81,45.5002 73,35.8002 73,24.4002 C73,11.2002 83.7,0.5002 96.9,0.5002 C110.1,0.5002 120.8,11.2002 120.8,24.4002 C120.8,35.8002 112.8,45.5002 101.7,47.8002 L96.9,54.2002 Z" mask="url(#b)"/>
    <path fill="#FFD15D" d="M152.9996,11.5002 C157.6946,11.5002 161.4996,15.3052 161.4996,20.0002 C161.4996,24.6942 157.6946,28.5002 152.9996,28.5002 C148.3056,28.5002 144.4996,24.6942 144.4996,20.0002 C144.4996,15.3052 148.3056,11.5002 152.9996,11.5002" mask="url(#b)"/>
    <path fill="#003064" d="M159.3004,37.3 C158.6994,37.3 158.3004,36.9 158.3004,36.3 L158.3004,33.3 C158.3004,31.3 159.1004,29.4 160.6004,28 C162.8004,25.9 163.9994,23.1 163.9994,20.1 C163.9994,17 162.8004,14.2 160.6004,12.1 C158.4004,10 155.4994,8.9 152.4004,9.1 C146.6994,9.4 142.1994,14.1 141.9994,19.7 C141.9004,22.8 143.1994,25.9 145.4004,28.1 C146.9004,29.5 147.6994,31.3 147.6994,33.2 L147.6994,36.4 C147.6994,37 147.3004,37.4 146.6994,37.4 C146.1004,37.4 145.6994,37 145.6994,36.4 L145.6994,33.2 C145.6994,31.8 145.1004,30.5 143.9994,29.5 C141.3004,26.9 139.8004,23.3 139.9004,19.6 C140.1004,12.9 145.4994,7.4 152.1994,7 C155.8004,6.8 159.3004,8.1 161.9004,10.6 C164.4994,13.1 165.9994,16.4 165.9994,20.1 C165.9994,23.7 164.6004,27 161.9994,29.5 C160.9004,30.6 160.3004,31.9 160.3004,33.4 L160.3004,36.4 C160.3004,36.9 159.9004,37.3 159.3004,37.3" mask="url(#b)"/>
    <path fill="#003064" d="M153.1002,44.5002 C152.6002,44.5002 152.1002,44.1002 152.1002,43.5002 C152.1002,42.9002 152.4992,42.5002 153.1002,42.5002 L155.8002,42.5002 C156.4002,42.4002 156.9992,42.1002 157.4992,41.7002 C157.9992,41.2002 158.4002,40.4002 158.4002,39.6002 L158.4002,36.5002 C158.4002,35.9002 158.8002,35.5002 159.4002,35.5002 C159.9992,35.5002 160.4002,35.9002 160.4002,36.5002 L160.4002,39.6002 C160.4002,40.9002 159.9002,42.1002 158.9992,43.1002 C158.2002,43.9002 157.2002,44.4002 156.1002,44.5002 L155.9992,44.5002 L153.1002,44.5002 Z" mask="url(#b)"/>
    <path fill="#003064" d="M161.6002,37.3 L161.6002,37.3 L144.6002,37.3 C143.9992,37.3 143.6002,36.9 143.6002,36.3 C143.6002,35.7 143.9992,35.3 144.6002,35.3 L161.6002,35.3 C162.2002,35.3 162.6002,35.7 162.6002,36.3 C162.6002,36.9 162.1002,37.3 161.6002,37.3" mask="url(#b)"/>
    <path fill="#003064" d="M153.1002,44.5002 L150.6002,44.5002 C149.3002,44.5002 148.1002,44.0002 147.1002,43.1002 C146.2002,42.2002 145.7002,40.9002 145.7002,39.6002 L145.7002,36.8002 C145.7002,36.2002 146.1002,35.8002 146.7002,35.8002 C147.3002,35.8002 147.7002,36.2002 147.7002,36.8002 L147.7002,39.6002 C147.7002,40.4002 147.9992,41.1002 148.6002,41.7002 C149.1002,42.2002 149.9002,42.6002 150.7002,42.6002 L153.2002,42.6002 C153.8002,42.6002 154.2002,43.0002 154.2002,43.6002 C154.2002,44.2002 153.6002,44.5002 153.1002,44.5002" mask="url(#b)"/>
    <polygon fill="#003064" points="156.1 36.3 154.1 36.3 154.1 29 159.3 19.1 159.3 17.9 161.3 17.9 161.3 19.6 156.1 29.5" mask="url(#b)"/>
    <polygon fill="#003064" points="151.9 36.3 149.9 36.3 149.9 29.5 144.6 19.6 144.6 17.9 146.6 17.9 146.6 19.1 151.9 29" mask="url(#b)"/>
    <path fill="#003064" d="M148.1998,18.5998 C148.1998,18.0998 148.5998,17.5998 149.1998,17.5998 C149.6998,17.5998 150.1998,18.0998 150.1998,18.5998 C150.1998,19.1998 149.6998,19.5998 149.1998,19.5998 C148.5998,19.5998 148.1998,19.1998 148.1998,18.5998 M152.1998,18.5998 C152.1998,18.0998 152.5998,17.5998 153.1998,17.5998 C153.6998,17.5998 154.1998,18.0998 154.1998,18.5998 C154.1998,19.1998 153.6998,19.5998 153.1998,19.5998 C152.5998,19.5998 152.1998,19.1998 152.1998,18.5998 M156.1998,18.5998 C156.1998,18.0998 156.5998,17.5998 157.1998,17.5998 C157.6998,17.5998 158.1998,18.0998 158.1998,18.5998 C158.1998,19.1998 157.6998,19.5998 157.1998,19.5998 C156.5998,19.5998 156.1998,19.1998 156.1998,18.5998" mask="url(#b)"/>
    <path fill="#003064" d="M153.1002,3.5002 C147.3002,3.5002 141.8002,5.8002 137.6002,9.9002 C133.4002,14.0002 131.2002,19.5002 131.2002,25.4002 C131.2002,35.9002 138.7002,45.0002 148.9992,46.9002 L149.4002,47.0002 L153.1002,51.9002 L156.8002,47.0002 L157.2002,46.9002 C167.4992,45.0002 174.9992,35.9002 174.9992,25.4002 C174.9992,13.3002 165.2002,3.5002 153.1002,3.5002 L153.1002,3.5002 Z M153.1002,55.2002 L148.3002,48.8002 C137.2002,46.5002 129.2002,36.8002 129.2002,25.4002 C129.2002,19.0002 131.7002,13.0002 136.2002,8.5002 C140.7002,4.0002 146.7002,1.5002 153.1002,1.5002 C166.3002,1.5002 176.9992,12.2002 176.9992,25.4002 C176.9992,36.8002 168.9992,46.5002 157.9002,48.8002 L153.1002,55.2002 Z" mask="url(#b)"/>
    <polygon fill="#003064" points="124.9 74.8 126.9 74.8 126.9 70.8 124.9 70.8" mask="url(#b)"/>
    <polygon fill="#003064" points="124.9 84.8 126.9 84.8 126.9 80.8 124.9 80.8" mask="url(#b)"/>
    <polygon fill="#003064" points="128.9 78.8 132.9 78.8 132.9 76.8 128.9 76.8" mask="url(#b)"/>
    <polygon fill="#003064" points="118.9 78.8 122.9 78.8 122.9 76.8 118.9 76.8" mask="url(#b)"/>
    <polygon fill="#003064" points="64.9 54.8 66.9 54.8 66.9 50.8 64.9 50.8" mask="url(#b)"/>
    <polygon fill="#003064" points="64.9 64.8 66.9 64.8 66.9 60.8 64.9 60.8" mask="url(#b)"/>
    <polygon fill="#003064" points="68.9 58.8 72.9 58.8 72.9 56.8 68.9 56.8" mask="url(#b)"/>
    <polygon fill="#003064" points="58.9 58.8 62.9 58.8 62.9 56.8 58.9 56.8" mask="url(#b)"/>
    <path fill="#007BFF" d="M57.9996 84.8C58.5526 84.8 58.9996 85.248 58.9996 85.8 58.9996 86.352 58.5526 86.8 57.9996 86.8 57.4476 86.8 56.9996 86.352 56.9996 85.8 56.9996 85.248 57.4476 84.8 57.9996 84.8M72.9996 68.8C74.1036 68.8 74.9996 69.696 74.9996 70.8 74.9996 71.904 74.1036 72.8 72.9996 72.8 71.8956 72.8 70.9996 71.904 70.9996 70.8 70.9996 69.696 71.8956 68.8 72.9996 68.8" mask="url(#b)"/>
    <path fill="#FFD15D" d="M122.9996,58.8 C124.1036,58.8 124.9996,59.696 124.9996,60.8 C124.9996,61.904 124.1036,62.8 122.9996,62.8 C121.8956,62.8 120.9996,61.904 120.9996,60.8 C120.9996,59.696 121.8956,58.8 122.9996,58.8" mask="url(#b)"/>
    <path fill="#007BFF" d="M179.9996 88.8C180.5526 88.8 180.9996 89.248 180.9996 89.8 180.9996 90.352 180.5526 90.8 179.9996 90.8 179.4476 90.8 178.9996 90.352 178.9996 89.8 178.9996 89.248 179.4476 88.8 179.9996 88.8M129.9996 62.8C130.5526 62.8 130.9996 63.248 130.9996 63.8 130.9996 64.352 130.5526 64.8 129.9996 64.8 129.4476 64.8 128.9996 64.352 128.9996 63.8 128.9996 63.248 129.4476 62.8 129.9996 62.8M134.9996 84.8C136.1036 84.8 136.9996 85.696 136.9996 86.8 136.9996 87.904 136.1036 88.8 134.9996 88.8 133.8956 88.8 132.9996 87.904 132.9996 86.8 132.9996 85.696 133.8956 84.8 134.9996 84.8" mask="url(#b)"/>
  </g>
</svg>
