<svg xmlns="http://www.w3.org/2000/svg" width="96" height="84" viewBox="0 0 96 84">
  <path fill="#0078FF" d="M84,72 L84,84 L66,84 L66,72 L36,72 L36,84 L18,84 L18,72 L15,72 C10.038,72 6,67.962 6,63 L6,57.021 L0,57.021 L0,51.021 L6,51.021 L6,39.003 L0,39.003 L0,33.003 L6,33.003 L6,20.997 L0,20.997 L0,14.997 L6,14.997 L6,9 C6,4.038 10.038,0 15,0 L87,0 C91.962,0 96,4.038 96,9 L96,63 C96,67.962 91.965,72 87,72 L84,72 Z M24.003,66 L24.003,6 L15,6 C13.347,6 12,7.344 12,9 L12,14.997 L18,14.997 L18,20.997 L12,20.997 L12,33.003 L18,33.003 L18,39.003 L12,39.003 L12,51.021 L18,51.021 L18,57.021 L12,57.021 L12,63 C12,64.656 13.344,66 15,66 L24.003,66 Z M30.003,66 L87,66 C88.656,66 90,64.656 90,63 L90,9 C90,7.344 88.656,6 87,6 L30.003,6 L30.003,66 Z M54,48 C47.382,48 42,42.618 42,36 C42,29.385 47.382,24.003 54,24.003 C60.618,24.003 66,29.385 66,36 C66,42.618 60.618,48 54,48 Z M54,30.003 C50.691,30.003 48,32.691 48,36 C48,39.309 50.691,42 54,42 C57.309,42 60,39.309 60,36 C60,32.691 57.309,30.003 54,30.003 Z M24,78 L30,78 L30,72 L24,72 L24,78 Z M72,78 L78,78 L78,72 L72,72 L72,78 Z M72,32.997 L78,32.997 L78,38.997 L72,38.997 L72,32.997 Z"/>
</svg>
