<svg xmlns="http://www.w3.org/2000/svg" width="48" height="48" viewBox="0 0 48 48">
  <g fill="none" fill-rule="evenodd">
    <path fill="#3B5998" d="M0,24 C0,10.7451653 10.7451653,0 24,0 C37.2548347,0 48,10.7451653 48,24 C48,37.2548347 37.2548347,48 24,48 C10.7451653,48 0,37.2548347 0,24 Z"/>
    <path fill="#FFFFFF" d="M25.7015551,37.3114767 L25.7015551,24.2542096 L29.3059319,24.2542096 L29.7835896,19.7546031 L25.7015551,19.7546031 L25.7076789,17.5025067 C25.7076789,16.32894 25.8191834,15.7001161 27.5047641,15.7001161 L29.7580737,15.7001161 L29.7580737,11.2 L26.1531866,11.2 C21.8231375,11.2 20.2990725,13.3827933 20.2990725,17.0535652 L20.2990725,19.7551126 L17.6,19.7551126 L17.6,24.2547192 L20.2990725,24.2547192 L20.2990725,37.3114767 L25.7015551,37.3114767 Z"/>
  </g>
</svg>
