<svg xmlns="http://www.w3.org/2000/svg" width="96" height="96" viewBox="0 0 96 96">
  <path fill="#0078FF" d="M45,6.08669333 L45,0 L51,0 L51,6.08669333 C76.0742186,7.64056815 96,28.5354518 96,53.994 L95.7501325,53.994 C95.9144494,54.9698301 96,55.9720915 96,56.994 L90,56.994 C90,50.376 84.618,44.994 78,44.994 C71.382,44.994 66,50.376 66,56.994 L63,56.994 L60,56.994 C60,51.4115579 56.1705305,46.7085704 51,45.373446 L51,82.497 C51,89.94 44.943,95.997 37.5,95.997 C30.057,95.997 24,89.94 24,82.497 L30,82.497 C30,86.634 33.363,89.997 37.5,89.997 C41.637,89.997 45,86.634 45,82.497 L45,45.373446 C39.8294695,46.7085704 36,51.4115579 36,56.994 L33,56.994 L30,56.994 C30,50.376 24.618,44.994 18,44.994 C11.382,44.994 6,50.376 6,56.994 L0,56.994 C0,55.9720915 0.0855505724,54.9698301 0.249867457,53.994 L0,53.994 C0,28.5354518 19.9257814,7.64056815 45,6.08669333 Z M7.66709539,42.261593 C10.5932563,40.2033964 14.1577565,38.994 18,38.994 C24.2543783,38.994 29.7728173,42.1985511 33,47.0523362 C36.2271827,42.1985511 41.7456217,38.994 48,38.994 C54.2543783,38.994 59.7728173,42.1985511 63,47.0523362 C66.2271827,42.1985511 71.7456217,38.994 78,38.994 C81.8422435,38.994 85.4067437,40.2033964 88.3329046,42.261593 C83.2440389,24.7934614 67.0894737,11.994 48,11.994 C28.9105263,11.994 12.7559611,24.7934614 7.66709539,42.261593 Z"/>
</svg>
