<svg xmlns="http://www.w3.org/2000/svg" width="52" height="64" viewBox="0 0 52 64">
  <path fill="#002F63" d="M35.446793,21.3243289 L35.446793,16.6485498 C35.446793,14.1306349 34.444245,11.7159499 32.657263,9.93670835 C30.8676261,8.15746678 28.4450911,7.15926142 25.9162223,7.15926142 L25.2966263,7.15926142 C20.0340493,7.15926142 15.7660555,11.4061247 15.7660555,16.6485498 L15.7660555,21.3243289 C13.3648282,21.5149619 10.9688428,21.7691393 8.57796295,22.0895045 L8.57796295,16.6670539 C8.58062198,12.2533826 10.3383274,8.01960097 13.4708899,4.89559167 C16.6034523,1.77158236 20.8502746,0.0106415591 25.2833515,0 L25.9029475,0 C30.3358202,0.0105914015 34.5825745,1.7686678 37.7154092,4.890237 C40.8479716,8.01187398 42.6109911,12.2403687 42.616301,16.6535656 L42.616301,22.0760161 C40.2416231,21.7635881 37.8536706,21.5147111 35.4472695,21.3240578 L35.446793,21.3243289 Z M3.37710327,28.7801984 C18.0609897,26.013393 33.1335873,26.013393 47.8174738,28.7801984 L48.1498729,28.8410952 C49.9209252,29.1747047 51.2026508,30.7156363 51.1999959,32.5081629 L51.1999959,57.995036 C51.2026549,59.7874948 49.9209252,61.3284874 48.1498729,61.6621037 L45.8762871,62.0883829 C39.1910683,63.3539828 32.4021024,63.9947131 25.5972749,64 C18.7950343,64 12.0087233,63.3672068 5.32370873,62.1095304 L3.05012301,61.6832512 L3.05012301,61.680603 C1.28172561,61.3496438 0,59.8087054 0,58.0135353 L0,32.5293735 C0,30.7342713 1.28172561,29.1932786 3.05012301,28.8623058 L3.37710327,28.7801984 Z M15.3863031,45.6514753 L21.9226408,53.176481 L21.9226408,53.1738329 C22.239083,53.5312672 22.6964551,53.7351378 23.175094,53.7351378 C23.6537329,53.7351378 24.1084772,53.5312672 24.4275471,53.1738329 L35.0323493,41.6246911 C35.6359884,40.965416 35.6120531,39.9513228 34.9791653,39.3212341 L33.0858494,37.4704839 C32.4582749,36.8482781 31.4531265,36.8165093 30.790956,37.4016459 L23.1188466,44.2007211 L19.5448826,41.4153438 C18.8774227,40.8937515 17.9254344,40.9520022 17.3271188,41.5503764 L15.4683171,43.4064134 C14.8673397,44.0233256 14.8301092,44.9923446 15.3858845,45.6516468 L15.3863031,45.6514753 Z"/>
</svg>
