<svg xmlns="http://www.w3.org/2000/svg" xmlns:xlink="http://www.w3.org/1999/xlink" width="193" height="161" viewBox="0 0 193 161">
  <defs>
    <polygon id="a" points="0 193 193 193 193 0 0 0"/>
  </defs>
  <g fill="none" fill-rule="evenodd" transform="translate(0 -16)">
    <path fill="#EBEFF3" d="M53.3002,85.0002 L105.8002,137.5002 C112.5002,144.2002 121.0002,148.6002 130.1002,150.2002 L64.9002,85.0002 L53.3002,85.0002 Z"/>
    <path fill="#EBEFF3" d="M33.6,154.2004 L33.8,154.3004 C37.5,158.0994 37.4,164.2004 33.6,168.0004 C31.8,169.8004 29.3,170.8994 26.7,170.8994 C24.1,170.8994 21.6,169.8994 19.8,168.0004 C18,166.2004 16.9,163.7004 16.9,161.0994 C16.9,158.5004 17.9,156.0004 19.8,154.2004 C21.6,152.3994 24.1,151.3004 26.7,151.3004 C29.4,151.3994 31.8,152.3994 33.6,154.2004 M19.8,60.8004 C18,59.0004 16.9,56.5004 16.9,53.9004 C16.9,51.3004 17.9,48.8004 19.8,47.0004 C21.6,45.2004 24.1,44.0994 26.7,44.0994 C29.3,44.0994 31.8,45.0994 33.6,47.0004 C37.4,50.8004 37.4,57.0004 33.6,60.8004 C31.8,62.5994 29.3,63.7004 26.7,63.7004 C24.1,63.5994 21.7,62.5994 19.8,60.8004 M103.8,139.5004 L65,100.7004 L62.7,103.0004 L62.4,103.0004 L28.9,69.5004 C32.3,69.0004 35.5,67.5004 37.9,65.0004 C44.1,58.8004 44.1,48.8004 37.9,42.7004 C34.9,39.7004 31,38.0994 26.7,38.0994 C22.5,38.0994 18.5,39.7004 15.5,42.7004 C9.3,48.9004 9.3,58.9004 15.5,65.0004 L58.1,107.5994 L17.2,148.5004 C16.6,148.8994 16,149.3994 15.5,149.8994 C12.5,152.8994 10.9,156.8004 10.9,161.0994 C10.9,165.3004 12.5,169.3004 15.5,172.3004 C18.5,175.3004 22.4,176.8994 26.7,176.8994 C30.9,176.8994 34.9,175.3004 37.9,172.3004 C44.1,166.0994 44.1,156.0994 37.9,150.0004 C35.4,147.5004 32.3,146.0994 29.1,145.5994 L58.4,116.3004 L66.9,116.3004 L113,162.3994 C122.4,171.8004 134.8,176.8994 148.1,176.8994 L150.5,176.8994 L119.3,149.7004 C113.6,147.5004 108.3,144.0004 103.8,139.5004"/>
    <path fill="#EBEFF3" d="M86.3998,102.3996 L150.5008,38.2996 L148.0998,38.2996 C134.7998,38.2996 122.3998,43.5006 113.0008,52.7996 L74.7998,91.0006 L86.3998,102.3996 Z"/>
    <polygon fill="#EBF7FF" points="94.3 62.1 70.699 85.6 107.199 122.1 192.1 122.1 192.1 62.1"/>
    <polygon fill="#C5DDEA" points="126.7 62.1 103.7 62.1 75.4 90.4 86.9 101.8"/>
    <path fill="#003064" d="M135.8998,105.2004 L124.8998,105.2004 C121.8998,105.2004 119.5008,102.8004 119.5008,99.8004 L121.5008,99.8004 C121.5008,101.7004 123.0008,103.2004 124.8998,103.2004 L135.8998,103.2004 C138.0998,103.2004 139.8998,101.3994 139.8998,99.2004 L139.8998,97.3004 C139.8998,95.0994 138.0998,93.3004 135.8998,93.3004 L125.0008,93.3004 C121.6998,93.3004 119.0008,90.5994 119.0008,87.3004 L119.0008,85.4004 C119.0008,82.0994 121.6998,79.4004 125.0008,79.4004 L136.6998,79.4004 C139.1998,79.4004 141.1998,81.4004 141.1998,83.9004 L139.1998,83.9004 C139.1998,82.5004 138.0998,81.4004 136.6998,81.4004 L125.0008,81.4004 C122.7998,81.4004 121.0008,83.2004 121.0008,85.4004 L121.0008,87.3004 C121.0008,89.5004 122.7998,91.3004 125.0008,91.3004 L135.8998,91.3004 C139.1998,91.3004 141.8998,94.0004 141.8998,97.3004 L141.8998,99.2004 C141.8998,102.5004 139.1998,105.2004 135.8998,105.2004"/>
    <mask id="b" fill="white">
      <use xlink:href="#a"/>
    </mask>
    <polygon fill="#003064" points="130.5 110.5 132.5 110.5 132.5 74.5 130.5 74.5" mask="url(#b)"/>
    <polygon fill="#003064" points="150.1 89.1 164.1 89.1 164.1 87.1 150.1 87.1" mask="url(#b)"/>
    <polygon fill="#003064" points="150.1 93.1 164.1 93.1 164.1 91.1 150.1 91.1" mask="url(#b)"/>
    <polygon fill="#003064" points="150.1 97.1 164.1 97.1 164.1 95.1 150.1 95.1" mask="url(#b)"/>
    <polygon fill="#003064" points="100.1 89.1 114.1 89.1 114.1 87.1 100.1 87.1" mask="url(#b)"/>
    <polygon fill="#003064" points="100.1 93.1 114.1 93.1 114.1 91.1 100.1 91.1" mask="url(#b)"/>
    <polygon fill="#003064" points="100.1 97.1 114.1 97.1 114.1 95.1 100.1 95.1" mask="url(#b)"/>
    <path fill="#003064" d="M172.1,118.0998 L170.1,118.0998 C170.1,108.2008 178.2,100.0998 188.1,100.0998 L188.1,102.0998 C179.2,102.0998 172.1,109.2998 172.1,118.0998" mask="url(#b)"/>
    <polygon fill="#003064" points="189.1 119.1 103.1 119.1 103.1 117.1 187.1 117.1 187.1 67.1 90.3 67.1 90.3 65.1 189.1 65.1" mask="url(#b)"/>
    <path fill="#003064" d="M188.1 85.0998C178.2 85.0998 170.1 76.9998 170.1 67.0998L172.1 67.0998C172.1 75.8998 179.3 83.0998 188.1 83.0998L188.1 85.0998zM16.6996 125.3996C13.0006 125.3996 9.5996 126.7996 7.0006 129.3996 4.3996 132.0006 3.0006 135.5006 3.0006 139.0996 3.0006 142.7006 4.3996 146.2006 7.0006 148.7996 9.5996 151.3996 13.0996 152.7996 16.6996 152.7996 20.3996 152.7996 23.8006 151.3996 26.3996 148.7996 29.0006 146.2006 30.3996 142.7006 30.3996 139.0996 30.3996 135.5006 29.0006 132.0006 26.3996 129.3996 23.8996 126.7996 20.3996 125.3996 16.6996 125.3996M16.6996 154.8996C12.5006 154.8996 8.5006 153.2996 5.5006 150.2996 2.5006 147.2996.8996 143.3996.8996 139.0996.8996 134.7996 2.5996 131.0006 5.5996 128.0006 8.5996 125.0006 12.5006 123.3996 16.8006 123.3996 21.0006 123.3996 25.0006 125.0006 28.0006 128.0006 31.0006 131.0006 32.5996 134.8996 32.5996 139.2006 32.5996 143.5006 31.0006 147.3996 28.0006 150.3996 25.0006 153.3996 20.8996 154.8996 16.6996 154.8996M16.6996 18.0002C13.0006 18.0002 9.5996 19.4002 7.0006 22.0002 4.3996 24.6002 3.0006 28.1002 3.0006 31.7002 3.0006 35.3002 4.3996 38.8002 7.0006 41.4002 9.5996 44.0002 13.0996 45.4002 16.6996 45.4002 20.3996 45.4002 23.8006 44.0002 26.3996 41.4002 29.0006 38.8002 30.3996 35.3002 30.3996 31.7002 30.3996 28.0002 29.0006 24.6002 26.3996 22.0002 23.8006 19.4002 20.3996 18.0002 16.6996 18.0002M16.6996 47.6002C12.5006 47.6002 8.5006 46.0002 5.5006 43.0002 2.5006 40.0002.8996 36.0002.8996 31.8002.8996 27.6002 2.5006 23.6002 5.5006 20.6002 8.5006 17.6002 12.5006 16.0002 16.6996 16.0002 20.8996 16.0002 24.8996 17.6002 27.8996 20.6002 30.8996 23.6002 32.5006 27.5002 32.5006 31.8002 32.5006 36.0002 30.8996 40.0002 27.8996 43.0002 24.8996 46.0002 20.8996 47.6002 16.6996 47.6002" mask="url(#b)"/>
    <polygon fill="#003064" points="120.1 65.6 122.1 65.6 122.1 54.7 120.1 54.7" mask="url(#b)"/>
    <path fill="#003064" d="M140.5004,154.8996 L138.1004,154.8996 C124.8004,154.8996 112.3994,149.7006 103.0004,140.3996 L5.6004,43.0006 L7.0004,41.5996 L104.3994,139.0006 C112.8004,147.3996 123.8004,152.2996 135.6004,152.8996 L65.6994,83.0006 L51.6004,83.0006 L15.3994,46.7996 L16.8004,45.3996 L52.3994,81.0006 L66.5004,81.0006 L66.8004,81.2996 L140.5004,154.8996 Z" mask="url(#b)"/>
    <polygon fill="#003064" points="17.7 124.9 16.301 123.501 47.501 92.3 57.4 92.3 57.4 94.3 48.301 94.3" mask="url(#b)"/>
    <path fill="#003064" d="M70.3998,86.3 L69.0008,84.9 L135.5998,18.3 C123.7998,18.9 112.7998,23.8 104.3998,32.2 L54.0008,82.6 L52.5998,81.2 L103.0008,30.8 C112.3998,21.4 124.7998,16.3 138.0998,16.3 L140.5008,16.3 L70.3998,86.3 Z" mask="url(#b)"/>
    <polygon fill="#003064" points="7.24 126.591 48.817 85.013 50.231 86.428 8.654 128.005" mask="url(#b)"/>
    <path fill="#003064" d="M61.1 87.0998C60.5 87.0998 60.1 87.4998 60.1 88.0998 60.1 88.6998 60.5 89.0998 61.1 89.0998 61.7 89.0998 62.1 88.6998 62.1 88.0998 62.1 87.4998 61.6 87.0998 61.1 87.0998M61.1 91.0998C59.4 91.0998 58.1 89.7998 58.1 88.0998 58.1 86.3998 59.4 85.0998 61.1 85.0998 62.8 85.0998 64.1 86.3998 64.1 88.0998 64.1 89.7998 62.7 91.0998 61.1 91.0998M16.6996 22.0002C14.0996 22.0002 11.5996 23.0002 9.8006 24.9002 8.0006 26.7002 6.8996 29.2002 6.8996 31.8002 6.8996 34.4002 7.8996 36.9002 9.8006 38.7002 11.5996 40.5002 14.0996 41.6002 16.6996 41.6002 19.3006 41.6002 21.8006 40.6002 23.5996 38.7002 27.3996 34.9002 27.3996 28.7002 23.5996 24.9002 21.8006 23.1002 19.3006 22.0002 16.6996 22.0002M16.6996 43.6002C13.5996 43.6002 10.5996 42.4002 8.3996 40.1002 6.1996 37.9002 4.8996 34.9002 4.8996 31.8002 4.8996 28.7002 6.0996 25.7002 8.3996 23.5002 10.5996 21.3002 13.5996 20.1002 16.6996 20.1002 19.8996 20.1002 22.8006 21.3002 25.0006 23.5002 27.1996 25.7002 28.3996 28.7002 28.3996 31.8002 28.3996 35.0002 27.1996 37.9002 25.0006 40.1002 22.8006 42.4002 19.8996 43.6002 16.6996 43.6002M16.6996 129.3996C14.0996 129.3996 11.5996 130.3996 9.8006 132.2996 8.0006 134.0996 6.8996 136.5996 6.8996 139.2006 6.8996 141.7996 7.8996 144.2996 9.8006 146.0996 11.6996 147.8996 14.0996 149.0006 16.6996 149.0006 19.3006 149.0006 21.8006 148.0006 23.5996 146.0996 27.3996 142.2996 27.5006 136.2006 23.8006 132.3996L23.5996 132.2996C21.8006 130.3996 19.3006 129.3996 16.6996 129.3996M16.6996 150.8996C13.5996 150.8996 10.5996 149.7006 8.3996 147.3996 6.1996 145.2006 4.8996 142.2006 4.8996 139.0996 4.8996 136.0006 6.0996 133.0006 8.3996 130.7996 10.5996 128.5996 13.5996 127.3996 16.6996 127.3996 19.8006 127.3996 22.6996 128.5996 24.8996 130.7006L25.0996 130.7996C29.6996 135.3996 29.5996 142.7996 25.0006 147.5006 22.8006 149.7006 19.8996 150.8996 16.6996 150.8996" mask="url(#b)"/>
    <path fill="#007BFF" d="M133.1,42.0998 C143.041,42.0998 151.1,50.1588 151.1,60.0998 C151.1,70.0408 143.041,78.0998 133.1,78.0998 C123.159,78.0998 115.1,70.0408 115.1,60.0998 C115.1,50.1588 123.159,42.0998 133.1,42.0998" mask="url(#b)"/>
    <path fill="#FFFFFF" d="M133.1,75.0998 C129.1,75.0998 125.3,73.4998 122.5,70.6998 C119.7,67.8998 118.1,64.0998 118.1,60.0998 C118.1,56.5998 119.3,53.1998 121.5,50.5998 C121.9,50.1998 122.5,50.0998 122.9,50.4998 C123.3,50.8998 123.4,51.4998 123,51.8998 C121.1,54.1998 120,57.1998 120,60.1998 C120,63.6998 121.4,66.8998 123.8,69.3998 C126.3,71.7998 129.5,73.1998 133,73.1998 C140.2,73.1998 146,67.3998 146,60.1998 C146,52.9998 140.2,47.1998 133,47.1998 C131.7,47.1998 130.4,47.3998 129.2,47.7998 L128.4,48.1998 C127.9,48.3998 127.3,48.1998 127.1,47.6998 C126.9,47.1998 127.1,46.5998 127.6,46.3998 L128.5,45.9998 C130,45.4998 131.5,45.2998 133,45.2998 C141.3,45.2998 148,51.9998 148,60.2998 C148.1,68.2998 141.4,75.0998 133.1,75.0998" mask="url(#b)"/>
    <path fill="#FFFFFF" d="M136.1,67.0998 L130.5,67.0998 C128.7,67.0998 127.3,65.6998 127.3,63.8998 C127.3,63.2998 127.7,62.8998 128.3,62.8998 C128.9,62.8998 129.3,63.2998 129.3,63.8998 C129.3,64.5998 129.8,65.0998 130.5,65.0998 L136.1,65.0998 C136.9,65.0998 137.6,64.3998 137.6,63.5998 L137.6,62.5998 C137.6,61.7998 136.9,61.0998 136.1,61.0998 L130.6,61.0998 C128.7,61.0998 127.1,59.4998 127.1,57.5998 L127.1,56.5998 C127.1,54.6998 128.7,53.0998 130.6,53.0998 L136.5,53.0998 C138,53.0998 139.3,54.2998 139.3,55.8998 C139.3,56.4998 138.9,56.8998 138.3,56.8998 C137.7,56.8998 137.3,56.4998 137.3,55.8998 C137.3,55.4998 137,55.0998 136.5,55.0998 L130.6,55.0998 C129.8,55.0998 129.1,55.7998 129.1,56.5998 L129.1,57.5998 C129.1,58.3998 129.8,59.0998 130.6,59.0998 L136.1,59.0998 C138,59.0998 139.6,60.6998 139.6,62.5998 L139.6,63.5998 C139.6,65.4998 138,67.0998 136.1,67.0998" mask="url(#b)"/>
    <path fill="#FFFFFF" d="M133.5004 70.5002C132.8994 70.5002 132.5004 70.1002 132.5004 69.5002L132.5004 51.5002C132.5004 50.9002 132.8994 50.5002 133.5004 50.5002 134.1004 50.5002 134.5004 50.9002 134.5004 51.5002L134.5004 69.5002C134.5004 70.1002 134.1004 70.5002 133.5004 70.5002M125.1 50.0998C125 50.0998 124.8 50.0998 124.7 49.9998 124.6 49.9998 124.5 49.8998 124.4 49.7998 124.3 49.6998 124.2 49.5998 124.2 49.4998 124.2 49.3998 124.1 49.2998 124.1 49.0998 124.1 48.7998 124.2 48.5998 124.4 48.3998 124.5 48.2998 124.6 48.1998 124.7 48.1998 125.1 47.9998 125.5 48.0998 125.8 48.3998 126 48.5998 126.1 48.7998 126.1 49.0998 126.1 49.1998 126.1 49.3998 126 49.4998 126 49.5998 125.9 49.6998 125.8 49.7998 125.6 49.9998 125.3 50.0998 125.1 50.0998" mask="url(#b)"/>
    <path fill="#EBEFF3" d="M70.1996,80.9001 L130.0996,21.0001 C120.8996,22.6001 112.5006,27.0001 105.8006,33.7001 L60.6996,78.8001 L68.1996,78.8001 L70.1996,80.9001 Z" mask="url(#b)"/>
    <path fill="#003064" d="M16.6996 125.3996C13.0006 125.3996 9.5996 126.7996 7.0006 129.3996 4.3996 132.0006 3.0006 135.5006 3.0006 139.0996 3.0006 142.7006 4.3996 146.2006 7.0006 148.7996 9.5996 151.3996 13.0996 152.7996 16.6996 152.7996 20.3996 152.7996 23.8006 151.3996 26.3996 148.7996 29.0006 146.2006 30.3996 142.7006 30.3996 139.0996 30.3996 135.5006 29.0006 132.0006 26.3996 129.3996 23.8996 126.7996 20.3996 125.3996 16.6996 125.3996M16.6996 154.8996C12.5006 154.8996 8.5006 153.2996 5.5006 150.2996 2.5006 147.2996.8996 143.3996.8996 139.0996.8996 134.7996 2.5996 131.0006 5.5996 128.0006 8.5996 125.0006 12.5006 123.3996 16.8006 123.3996 21.0006 123.3996 25.0006 125.0006 28.0006 128.0006 31.0006 131.0006 32.5996 134.8996 32.5996 139.2006 32.5996 143.5006 31.0006 147.3996 28.0006 150.3996 25.0006 153.3996 20.8996 154.8996 16.6996 154.8996M16.6996 18.0002C13.0006 18.0002 9.5996 19.4002 7.0006 22.0002 4.3996 24.6002 3.0006 28.1002 3.0006 31.7002 3.0006 35.3002 4.3996 38.8002 7.0006 41.4002 9.5996 44.0002 13.0996 45.4002 16.6996 45.4002 20.3996 45.4002 23.8006 44.0002 26.3996 41.4002 29.0006 38.8002 30.3996 35.3002 30.3996 31.7002 30.3996 28.0002 29.0006 24.6002 26.3996 22.0002 23.8006 19.4002 20.3996 18.0002 16.6996 18.0002M16.6996 47.6002C12.5006 47.6002 8.5006 46.0002 5.5006 43.0002 2.5006 40.0002.8996 36.0002.8996 31.8002.8996 27.6002 2.5006 23.6002 5.5006 20.6002 8.5006 17.6002 12.5006 16.0002 16.6996 16.0002 20.8996 16.0002 24.8996 17.6002 27.8996 20.6002 30.8996 23.6002 32.5006 27.5002 32.5006 31.8002 32.5006 36.0002 30.8996 40.0002 27.8996 43.0002 24.8996 46.0002 20.8996 47.6002 16.6996 47.6002" mask="url(#b)"/>
    <path fill="#003064" d="M140.5004,154.8996 L138.1004,154.8996 C124.8004,154.8996 112.3994,149.7006 103.0004,140.3996 L5.6004,43.0006 L7.0004,41.5996 L104.3994,139.0006 C112.8004,147.3996 123.8004,152.2996 135.6004,152.8996 L65.6994,83.0006 L51.6004,83.0006 L15.3994,46.7996 L16.8004,45.3996 L52.3994,81.0006 L66.5004,81.0006 L66.8004,81.2996 L140.5004,154.8996 Z" mask="url(#b)"/>
    <polygon fill="#003064" points="17.7 124.9 16.301 123.501 47.501 92.3 57.4 92.3 57.4 94.3 48.301 94.3" mask="url(#b)"/>
    <path fill="#003064" d="M70.3998,86.3 L69.0008,84.9 L135.5998,18.3 C123.7998,18.9 112.7998,23.8 104.3998,32.2 L54.0008,82.6 L52.5998,81.2 L103.0008,30.8 C112.3998,21.4 124.7998,16.3 138.0998,16.3 L140.5008,16.3 L70.3998,86.3 Z" mask="url(#b)"/>
    <polygon fill="#003064" points="7.24 126.591 48.817 85.013 50.231 86.428 8.654 128.005" mask="url(#b)"/>
    <path fill="#003064" d="M61.1 87.0998C60.5 87.0998 60.1 87.4998 60.1 88.0998 60.1 88.6998 60.5 89.0998 61.1 89.0998 61.7 89.0998 62.1 88.6998 62.1 88.0998 62.1 87.4998 61.6 87.0998 61.1 87.0998M61.1 91.0998C59.4 91.0998 58.1 89.7998 58.1 88.0998 58.1 86.3998 59.4 85.0998 61.1 85.0998 62.8 85.0998 64.1 86.3998 64.1 88.0998 64.1 89.7998 62.7 91.0998 61.1 91.0998M16.6996 22.0002C14.0996 22.0002 11.5996 23.0002 9.8006 24.9002 8.0006 26.7002 6.8996 29.2002 6.8996 31.8002 6.8996 34.4002 7.8996 36.9002 9.8006 38.7002 11.5996 40.5002 14.0996 41.6002 16.6996 41.6002 19.3006 41.6002 21.8006 40.6002 23.5996 38.7002 27.3996 34.9002 27.3996 28.7002 23.5996 24.9002 21.8006 23.1002 19.3006 22.0002 16.6996 22.0002M16.6996 43.6002C13.5996 43.6002 10.5996 42.4002 8.3996 40.1002 6.1996 37.9002 4.8996 34.9002 4.8996 31.8002 4.8996 28.7002 6.0996 25.7002 8.3996 23.5002 10.5996 21.3002 13.5996 20.1002 16.6996 20.1002 19.8996 20.1002 22.8006 21.3002 25.0006 23.5002 27.1996 25.7002 28.3996 28.7002 28.3996 31.8002 28.3996 35.0002 27.1996 37.9002 25.0006 40.1002 22.8006 42.4002 19.8996 43.6002 16.6996 43.6002M16.6996 129.3996C14.0996 129.3996 11.5996 130.3996 9.8006 132.2996 8.0006 134.0996 6.8996 136.5996 6.8996 139.2006 6.8996 141.7996 7.8996 144.2996 9.8006 146.0996 11.6996 147.8996 14.0996 149.0006 16.6996 149.0006 19.3006 149.0006 21.8006 148.0006 23.5996 146.0996 27.3996 142.2996 27.5006 136.2006 23.8006 132.3996L23.5996 132.2996C21.8006 130.3996 19.3006 129.3996 16.6996 129.3996M16.6996 150.8996C13.5996 150.8996 10.5996 149.7006 8.3996 147.3996 6.1996 145.2006 4.8996 142.2006 4.8996 139.0996 4.8996 136.0006 6.0996 133.0006 8.3996 130.7996 10.5996 128.5996 13.5996 127.3996 16.6996 127.3996 19.8006 127.3996 22.6996 128.5996 24.8996 130.7006L25.0996 130.7996C29.6996 135.3996 29.5996 142.7996 25.0006 147.5006 22.8006 149.7006 19.8996 150.8996 16.6996 150.8996" mask="url(#b)"/>
    <path fill="#EBEFF3" d="M70.1996,80.9001 L130.0996,21.0001 C120.8996,22.6001 112.5006,27.0001 105.8006,33.7001 L60.6996,78.8001 L68.1996,78.8001 L70.1996,80.9001 Z" mask="url(#b)"/>
    <path fill="#FFD15D" d="M164.1,101.0998 C171.28,101.0998 177.1,106.9198 177.1,114.0998 C177.1,121.2798 171.28,127.0998 164.1,127.0998 C156.92,127.0998 151.1,121.2798 151.1,114.0998 C151.1,106.9198 156.92,101.0998 164.1,101.0998" mask="url(#b)"/>
    <path fill="#003064" d="M166.1996,119.3996 L162.1996,119.3996 C160.8006,119.3996 159.5996,118.2006 159.5996,116.7996 C159.5996,116.2006 160.0006,115.7996 160.5996,115.7996 C161.1996,115.7996 161.5996,116.2006 161.5996,116.7996 C161.5996,117.0996 161.8996,117.3996 162.1996,117.3996 L166.1996,117.3996 C166.5996,117.3996 167.0006,117.0006 167.0006,116.5996 L167.0006,115.8996 C167.0006,115.5006 166.5996,115.0996 166.1996,115.0996 L162.1996,115.0996 C160.6996,115.0996 159.3996,113.7996 159.3996,112.2996 L159.3996,111.5996 C159.3996,110.0006 160.6996,108.7996 162.1996,108.7996 L166.5006,108.7996 C167.8006,108.7996 168.8006,109.7996 168.8006,111.0996 C168.8006,111.7006 168.3996,112.0996 167.8006,112.0996 C167.1996,112.0996 166.8006,111.7006 166.8006,111.0996 C166.8006,110.8996 166.6996,110.7996 166.5006,110.7996 L162.1996,110.7996 C161.8006,110.7996 161.3996,111.2006 161.3996,111.5996 L161.3996,112.2996 C161.3996,112.7006 161.8006,113.0996 162.1996,113.0996 L166.1996,113.0996 C167.6996,113.0996 169.0006,114.3996 169.0006,115.8996 L169.0006,116.5996 C169.0006,118.0996 167.8006,119.3996 166.1996,119.3996" mask="url(#b)"/>
    <path fill="#003064" d="M164.5004,122.5002 C163.8994,122.5002 163.5004,122.1002 163.5004,121.5002 L163.5004,107.5002 C163.5004,106.8992 163.8994,106.5002 164.5004,106.5002 C165.1004,106.5002 165.5004,106.8992 165.5004,107.5002 L165.5004,121.5002 C165.5004,122.1002 165.1004,122.5002 164.5004,122.5002" mask="url(#b)"/>
    <polygon fill="#003064" points="66.1 35 68.1 35 68.1 31 66.1 31" mask="url(#b)"/>
    <polygon fill="#003064" points="66.1 45 68.1 45 68.1 41 66.1 41" mask="url(#b)"/>
    <polygon fill="#003064" points="70.1 39 74.1 39 74.1 37 70.1 37" mask="url(#b)"/>
    <polygon fill="#003064" points="60.1 39 64.1 39 64.1 37 60.1 37" mask="url(#b)"/>
    <polygon fill="#003064" points="162.1 144.1 164.1 144.1 164.1 140.1 162.1 140.1" mask="url(#b)"/>
    <polygon fill="#003064" points="162.1 154.1 164.1 154.1 164.1 150.1 162.1 150.1" mask="url(#b)"/>
    <polygon fill="#003064" points="166.1 148.1 170.1 148.1 170.1 146.1 166.1 146.1" mask="url(#b)"/>
    <polygon fill="#003064" points="156.1 148.1 160.1 148.1 160.1 146.1 156.1 146.1" mask="url(#b)"/>
    <polygon fill="#003064" points="44.1 140.1 46.1 140.1 46.1 136.1 44.1 136.1" mask="url(#b)"/>
    <polygon fill="#003064" points="44.1 150.1 46.1 150.1 46.1 146.1 44.1 146.1" mask="url(#b)"/>
    <polygon fill="#003064" points="48.1 144.1 52.1 144.1 52.1 142.1 48.1 142.1" mask="url(#b)"/>
    <polygon fill="#003064" points="38.1 144.1 42.1 144.1 42.1 142.1 38.1 142.1" mask="url(#b)"/>
    <path fill="#FFD15D" d="M160.1,50.0998 C161.204,50.0998 162.1,50.9958 162.1,52.0998 C162.1,53.2048 161.204,54.0998 160.1,54.0998 C158.996,54.0998 158.1,53.2048 158.1,52.0998 C158.1,50.9958 158.996,50.0998 160.1,50.0998" mask="url(#b)"/>
    <path fill="#007BFF" d="M142.1 106.0998C143.204 106.0998 144.1 106.9958 144.1 108.0998 144.1 109.2038 143.204 110.0998 142.1 110.0998 140.996 110.0998 140.1 109.2038 140.1 108.0998 140.1 106.9958 140.996 106.0998 142.1 106.0998M178.1 86.0998C180.309 86.0998 182.1 87.8908 182.1 90.0998 182.1 92.3088 180.309 94.0998 178.1 94.0998 175.891 94.0998 174.1 92.3088 174.1 90.0998 174.1 87.8908 175.891 86.0998 178.1 86.0998" mask="url(#b)"/>
    <path fill="#FFD15D" d="M130.1,128.0998 C131.204,128.0998 132.1,128.9958 132.1,130.0998 C132.1,131.2038 131.204,132.0998 130.1,132.0998 C128.996,132.0998 128.1,131.2038 128.1,130.0998 C128.1,128.9958 128.996,128.0998 130.1,128.0998" mask="url(#b)"/>
    <path fill="#007BFF" d="M150.1,134.0998 C152.309,134.0998 154.1,135.8908 154.1,138.0998 C154.1,140.3088 152.309,142.0998 150.1,142.0998 C147.891,142.0998 146.1,140.3088 146.1,138.0998 C146.1,135.8908 147.891,134.0998 150.1,134.0998" mask="url(#b)"/>
  </g>
</svg>
