<svg xmlns="http://www.w3.org/2000/svg" xmlns:xlink="http://www.w3.org/1999/xlink" width="161" height="191" viewBox="0 0 161 191">
  <defs>
    <polygon id="a" points="0 193 193 193 193 0 0 0"/>
  </defs>
  <g fill="none" fill-rule="evenodd" transform="translate(-16 -1)">
    <path fill="#007BFF" d="M61.8999,24.6001 C63.0039,24.6001 63.8999,25.4961 63.8999,26.6001 C63.8999,27.7041 63.0039,28.6001 61.8999,28.6001 C60.7959,28.6001 59.8999,27.7041 59.8999,26.6001 C59.8999,25.4961 60.7959,24.6001 61.8999,24.6001 Z"/>
    <path fill="#EBF7FF" d="M110.7002,106.7002 C110.7002,111.5992 106.7002,115.5992 101.8002,115.5992 L98.4002,115.5992 L98.4002,121.8002 L92.4002,121.8002 L92.4002,115.5992 L88.8002,115.5992 C84.3002,115.5992 80.7002,111.9002 80.7002,107.4002 L86.7002,107.4002 C86.7002,108.5992 87.7002,109.5992 88.8002,109.5992 L92.4002,109.5992 L92.4002,100.3002 L89.0002,100.3002 C84.1002,100.3002 80.1002,96.3002 80.1002,91.4002 L80.1002,87.9002 C80.1002,83.0002 84.1002,79.0002 89.0002,79.0002 L92.4002,79.0002 L92.4002,73.3002 L98.4002,73.3002 L98.4002,79.0002 L102.8002,79.0002 C106.7002,79.0002 109.9002,82.2002 109.9002,86.1002 L103.9002,86.1002 C103.9002,85.5002 103.4002,85.0002 102.8002,85.0002 L98.4002,85.0002 L98.4002,94.3002 L101.8002,94.3002 C106.7002,94.3002 110.7002,98.3002 110.7002,103.2002 L110.7002,106.7002 Z M85.1002,65.8002 L105.1002,65.8002 L105.1002,61.8002 L85.1002,61.8002 L85.1002,65.8002 Z M157.2002,86.6002 L156.5002,86.6002 L156.2002,86.6002 C154.3002,86.6002 149.2002,86.6002 146.3002,80.0002 C144.3002,75.4002 141.5002,71.2002 138.0002,67.6002 C137.7002,68.8002 137.4002,69.6002 137.4002,69.7002 L131.5992,68.0002 C131.5992,68.0002 132.3002,65.7002 132.9002,63.1002 L133.3002,61.4002 L133.3002,61.3002 L134.7002,54.8002 C134.9002,54.1002 135.0002,53.1002 134.8002,52.7002 C133.9002,52.3002 131.2002,53.3002 129.7002,53.8002 C129.3002,53.9002 129.0002,54.1002 128.7002,54.2002 C128.0992,54.4002 126.5002,55.0002 122.4002,56.7002 L121.4002,57.1002 L120.4002,56.8002 C118.4002,56.2002 116.4002,55.8002 114.4002,55.5002 C113.9002,55.4002 113.4002,55.4002 113.0002,55.3002 C112.8002,55.3002 94.3002,53.5002 81.2002,55.8002 L81.0002,55.8002 C80.5002,55.9002 80.0002,56.0002 79.6002,56.1002 C61.4002,60.4002 48.2002,76.4002 47.5002,95.0002 L47.5002,95.1002 L47.6002,99.2002 C48.2002,110.0992 53.2002,120.2002 61.5002,127.7002 L62.5002,128.5992 L62.5002,133.0992 C63.3002,133.0002 64.2002,132.9002 65.0002,132.9002 L117.7002,132.9002 L117.7002,135.9002 C117.7002,140.7002 115.9002,145.0002 112.9002,148.3002 L126.5002,148.3002 L129.0992,147.0002 L129.0992,133.2002 L130.7002,132.3002 C130.8002,132.2002 142.5992,125.5992 146.9002,112.0002 C148.3002,106.5992 149.4002,105.0002 150.5992,103.0992 C152.7002,99.7002 156.0992,98.0002 158.4002,97.2002 L158.4002,86.6002 L157.2002,86.6002 Z"/>
    <path fill="#EBF7FF" d="M101.7998 100.2998L98.4008 100.2998 98.4008 109.5998 101.7998 109.5998C103.4008 109.5998 104.6998 108.2998 104.6998 106.6998L104.6998 103.1998C104.6998 101.5998 103.4008 100.2998 101.7998 100.2998M86.1001 87.8999L86.1001 91.3999C86.1001 92.9999 87.4001 94.2999 89.0001 94.2999L92.4001 94.2999 92.4001 84.9999 89.0001 84.9999C87.4001 84.9999 86.1001 86.2999 86.1001 87.8999"/>
    <path fill="#EBEFF3" d="M150.9004 128.2002C153.9004 127.7002 156.9004 128.4002 159.2004 130.0002 159.4004 130.0992 159.5994 130.3002 159.7004 130.4002L152.5994 135.4002 135.0004 144.0002 135.0004 136.5992C136.7004 135.5002 139.4004 133.5002 142.2994 130.5002L144.7994 129.7002C146.9004 129.0992 148.9004 128.5992 150.9004 128.2002M29.2998 185.7998L29.2998 185.7998C29.2998 186.9998 28.2998 187.9998 27.0998 187.9998L20.0998 187.9998 20.0998 173.7998 27.0998 173.7998C27.6998 173.7998 28.1998 173.9998 28.5998 174.4008 28.9998 174.7998 29.1998 175.4008 29.1998 175.9008L29.2998 185.7998z"/>
    <path fill="#003064" d="M53.2002,184.7998 L32.3002,184.7998 L32.3002,182.7998 L53.0002,182.7998 L130.0992,167.9008 L173.5992,141.1998 C167.9002,136.0998 160.9002,135.1998 154.5992,138.7998 L127.3002,152.1998 L80.6002,152.1998 L80.6002,150.1998 L99.0002,150.1998 C106.9002,150.1998 113.0992,144.4008 113.7002,136.7998 L65.0002,136.7998 C60.8002,136.7998 56.8002,138.4008 53.8002,141.4008 L33.0002,162.2998 L31.6002,160.9008 L52.4002,140.0998 C55.8002,136.6998 60.2002,134.9008 65.0002,134.9008 L115.7002,134.9008 L115.7002,135.9008 C115.7002,142.1998 112.3002,147.4998 107.0992,150.2998 L127.0002,150.2998 L153.8002,137.0998 C161.0002,132.9008 169.5992,134.1998 176.0002,140.6998 L176.9002,141.5998 L130.9002,169.7998 L130.7002,169.7998 L53.2002,184.7998 Z"/>
    <path fill="#003064" d="M154.2002 139C153.9002 139 153.5992 138.9 153.4002 138.6 153.0992 138.1 153.2002 137.5 153.5992 137.2L162.8002 130.7C162.0992 129.8 161.3002 129.1 160.4002 128.4 157.7002 126.5 154.2002 125.7 150.5992 126.3L147.3002 126.8C146.7002 126.9 146.2002 126.5 146.2002 126 146.0992 125.5 146.5002 124.9 147.0002 124.9L150.3002 124.4C154.4002 123.7 158.5002 124.7 161.5992 126.9 163.0002 127.9 164.0992 129.1 165.0992 130.5 165.4002 131 165.3002 131.6 164.8002 131.9L154.8002 139 154.2002 139zM18.1001 190L27.1001 190C29.4001 190 31.3001 188.1 31.3001 185.8L31.4001 154.8C31.4001 153.7 31.0001 152.7 30.2001 151.9 29.4001 151.1 28.4001 150.7 27.3001 150.7L18.2001 150.7 18.2001 190 18.1001 190zM27.1001 192L27.1001 192 16.1001 192 16.1001 148.7 27.2001 148.7C28.8001 148.7 30.4001 149.3 31.6001 150.5 32.8001 151.7 33.4001 153.2 33.4001 154.9L33.3001 185.9C33.3001 189.2 30.5001 192 27.1001 192L27.1001 192z"/>
    <path fill="#003064" d="M132.0996,150.0996 C131.4996,150.0996 131.0996,149.7006 131.0996,149.0996 L131.0996,134.4006 L131.5996,134.0996 C131.7006,133.9996 144.2006,126.9996 148.7996,112.5996 C150.0996,107.4996 151.0996,105.9996 152.2006,104.2006 C154.4996,100.5996 158.5996,99.2006 160.2996,98.7006 L160.2996,84.5996 L157.2006,84.5996 L156.7006,84.5996 L156.2006,84.5996 C154.4996,84.5996 150.4996,84.5996 148.0996,79.2006 C145.2996,72.7996 140.9996,67.2006 135.5996,62.7996 L135.0996,62.3996 L136.5996,55.5996 C136.5996,55.4996 137.5996,52.2006 135.9996,51.2006 C134.4006,50.2006 131.4996,51.2006 128.9996,52.0996 C128.7006,52.2006 128.2996,52.2996 127.9996,52.4996 C127.0996,52.7996 124.7996,53.7006 121.5996,54.9996 L121.2996,55.0996 L120.9996,54.9996 C118.9996,54.3996 116.9006,53.8996 114.7006,53.5996 C114.2006,53.4996 113.7006,53.4996 113.2006,53.3996 C112.9996,53.3996 94.2006,51.4996 80.7996,53.8996 L80.5996,53.8996 L79.0996,54.2006 C59.9996,58.7006 46.2006,75.4996 45.4996,94.9996 L45.4996,95.0996 L45.5996,99.2996 C46.2996,110.7996 51.4996,121.4006 60.2006,129.2006 L60.4996,129.4996 L60.4996,135.7996 C60.4996,136.4006 60.0996,136.7996 59.4996,136.7996 C58.8996,136.7996 58.4996,136.4006 58.4996,135.7996 L58.4996,130.4006 C49.5996,122.2996 44.2996,111.2996 43.5996,99.4006 L43.3996,94.9996 C44.0996,74.4996 58.5996,56.9996 78.4996,52.2996 C78.9996,52.2006 79.5996,52.0996 80.0996,51.9996 L80.2996,51.9996 C93.9996,49.4996 113.0996,51.3996 113.2996,51.3996 C113.7996,51.4996 114.4006,51.4996 114.9006,51.5996 C116.9996,51.8996 119.0996,52.3996 121.0996,52.9996 C124.2996,51.7006 126.2996,50.8996 127.2996,50.5996 C127.5996,50.4996 127.9996,50.3996 128.2996,50.2006 C131.2996,49.0996 134.5996,47.8996 136.9996,49.4996 C139.9006,51.3996 138.4996,55.8996 138.4006,56.0996 L137.2006,61.5996 C142.5996,66.0996 146.9996,71.8996 149.7996,78.3996 C151.7006,82.5996 154.4006,82.5996 156.0996,82.5996 L156.7996,82.5996 L157.0996,82.5996 L162.0996,82.5996 L162.0996,100.4006 L161.2996,100.4996 C161.2006,100.4996 156.0996,101.4006 153.7006,105.2006 C152.5996,106.9996 151.7006,108.2996 150.4996,113.0996 C146.2006,126.7996 135.4006,133.9996 132.9006,135.4996 L132.9006,148.9996 C133.0996,149.7006 132.5996,150.0996 132.0996,150.0996"/>
    <path fill="#003064" d="M105.0996 65.7998L85.0996 65.7998C84.4996 65.7998 84.0996 65.3998 84.0996 64.7998 84.0996 64.1998 84.4996 63.7998 85.0996 63.7998L105.0996 63.7998C105.7006 63.7998 106.0996 64.1998 106.0996 64.7998 106.0996 65.3998 105.7006 65.7998 105.0996 65.7998M32.7002 101.2998C32.0002 101.2998 31.4002 101.1998 30.7002 101.0998 24.8002 100.1998 20.7002 94.5998 21.6002 88.6998 22.3002 83.8998 26.9002 80.4998 31.7002 81.2998 33.6002 81.5998 35.3002 82.5998 36.5002 84.1998 37.7002 85.7998 38.1002 87.6998 37.8002 89.5998 37.6002 91.1998 36.7002 92.5998 35.4002 93.5998 34.1002 94.5998 32.5002 94.8998 30.9002 94.6998L31.2002 92.6998C32.3002 92.8998 33.3002 92.5998 34.2002 91.9998 35.1002 91.3998 35.6002 90.3998 35.8002 89.3998 36.0002 87.9998 35.7002 86.5998 34.8002 85.4998 34.0002 84.3998 32.7002 83.5998 31.3002 83.3998 27.6002 82.7998 24.0002 85.3998 23.5002 89.0998 22.8002 93.8998 26.1002 98.4008 30.9002 99.1998 37.1002 100.0998 42.8002 95.8998 43.8002 89.6998L45.8002 89.9998C44.8002 96.5998 39.2002 101.2998 32.7002 101.2998M135.4004 69.2002L133.5004 68.6002C133.5004 68.6002 134.5994 65.0002 135.2004 61.8002L137.2004 62.2002C136.5004 65.4002 135.5004 69.0002 135.4004 69.2002M140.7002 83.8999C140.3002 83.8999 139.9002 83.5999 139.8002 83.1999 138.8002 80.3999 137.8002 78.2999 137.0002 77.1999 136.7002 76.7999 136.8002 76.0999 137.2002 75.7999 137.5992 75.4999 138.3002 75.5999 138.5992 75.9999 139.8002 77.5999 140.9002 80.3999 141.5992 82.4999 141.8002 82.9999 141.5002 83.5999 141.0002 83.7999 140.9002 83.8999 140.8002 83.8999 140.7002 83.8999M88.7998 113.7002C85.3998 113.7002 82.6998 110.9002 82.6998 107.5002L84.6998 107.5002C84.6998 109.8002 86.5998 111.7002 88.7998 111.7002L101.7998 111.5992C104.4998 111.5992 106.6998 109.4002 106.6998 106.7002L106.6998 103.2002C106.6998 100.5002 104.4998 98.3002 101.7998 98.3002L88.9998 98.3002C85.1998 98.3002 82.0998 95.2002 82.0998 91.4002L82.0998 87.9002C82.0998 84.1002 85.1998 81.0002 88.9998 81.0002L102.7998 81.0002C105.5998 81.0002 107.9008 83.3002 107.9008 86.1002L105.9008 86.1002C105.9008 84.4002 104.4998 83.0002 102.7998 83.0002L88.9998 83.0002C86.2998 83.0002 84.0998 85.2002 84.0998 87.9002L84.0998 91.4002C84.0998 94.1002 86.2998 96.3002 88.9998 96.3002L101.7998 96.3002C105.5998 96.3002 108.6998 99.4002 108.6998 103.2002L108.6998 106.7002C108.6998 110.5002 105.5998 113.5992 101.7998 113.5992L88.7998 113.7002z"/>
    <mask id="b" fill="white">
      <use xlink:href="#a"/>
    </mask>
    <polygon fill="#003064" points="94.4 121.8 96.4 121.8 96.4 73.3 94.4 73.3" mask="url(#b)"/>
    <path fill="#EBEFF3" d="M80.6001 147.2998L80.6001 147.2998 104.0001 147.2998C107.6001 145.7998 110.3001 142.6998 111.2001 138.9008L106.4001 138.9008C104.3001 140.4008 101.7001 141.2998 98.9001 141.2998L86.6001 141.2998C83.3001 141.2998 80.6001 143.9008 80.6001 147.2998M162.5 138.7002L129.4 159.0002 52.8 173.8002 35.3 173.8002 35.3 180.8002 52.8 180.8002 129.4 166.0002 170.1 141.0002C167.7 139.5002 165.1 138.7002 162.5 138.7002" mask="url(#b)"/>
    <path fill="#007BFF" d="M109.0996,9.7998 C119.0406,9.7998 127.0996,17.8588 127.0996,27.7998 C127.0996,37.7408 119.0406,45.7998 109.0996,45.7998 C99.1596,45.7998 91.0996,37.7408 91.0996,27.7998 C91.0996,17.8588 99.1596,9.7998 109.0996,9.7998" mask="url(#b)"/>
    <path fill="#FFFFFF" d="M109.0996,42.7998 C105.0996,42.7998 101.2996,41.1998 98.4996,38.3998 C95.7006,35.5998 94.0996,31.7998 94.0996,27.7998 C94.0996,24.2998 95.2996,20.8998 97.4996,18.2998 C97.9006,17.8998 98.4996,17.7998 98.9006,18.1998 C99.2996,18.5998 99.4006,19.1998 98.9996,19.5998 C97.0996,21.8998 95.9996,24.8998 95.9996,27.8998 C95.9996,31.3998 97.4006,34.5998 99.7996,37.0998 C102.2996,39.4998 105.4996,40.8998 108.9996,40.8998 C116.2006,40.8998 121.9996,35.0998 121.9996,27.8998 C121.9996,20.6998 116.2006,14.8998 108.9996,14.8998 C107.7006,14.8998 106.4006,15.0998 105.2006,15.4998 L104.4006,15.8998 C103.9006,16.0998 103.2996,15.8998 103.0996,15.3998 C102.9006,14.8998 103.0996,14.2998 103.5996,14.0998 L104.4996,13.6998 C105.9996,13.1998 107.4996,12.9998 108.9996,12.9998 C117.2996,12.9998 123.9996,19.6998 123.9996,27.9998 C124.0996,35.9998 117.4006,42.7998 109.0996,42.7998" mask="url(#b)"/>
    <path fill="#FFFFFF" d="M112.0996,34.7002 L106.4996,34.7002 C104.7006,34.7002 103.2996,33.3002 103.2996,31.5002 C103.2996,30.9002 103.7006,30.5002 104.2996,30.5002 C104.9006,30.5002 105.2996,30.9002 105.2996,31.5002 C105.2996,32.2002 105.7996,32.7002 106.4996,32.7002 L112.0996,32.7002 C112.9006,32.7002 113.5996,32.0002 113.5996,31.2002 L113.5996,30.2002 C113.5996,29.4002 112.9006,28.7002 112.0996,28.7002 L106.5996,28.7002 C104.7006,28.7002 103.0996,27.1002 103.0996,25.2002 L103.0996,24.2002 C103.0996,22.3002 104.7006,20.7002 106.5996,20.7002 L112.4996,20.7002 C113.9996,20.7002 115.2996,21.9002 115.2996,23.5002 C115.2996,24.1002 114.9006,24.5002 114.2996,24.5002 C113.7006,24.5002 113.2996,24.1002 113.2996,23.5002 C113.2996,23.1002 112.9996,22.7002 112.4996,22.7002 L106.5996,22.7002 C105.7996,22.7002 105.0996,23.4002 105.0996,24.2002 L105.0996,25.2002 C105.0996,26.0002 105.7996,26.7002 106.5996,26.7002 L112.0996,26.7002 C113.9996,26.7002 115.5996,28.3002 115.5996,30.2002 L115.5996,31.2002 C115.5996,33.2002 114.0996,34.7002 112.0996,34.7002" mask="url(#b)"/>
    <path fill="#FFFFFF" d="M109.5 37.5C108.9 37.5 108.5 37.1 108.5 36.5L108.5 18.5C108.5 17.9 108.9 17.5 109.5 17.5 110.1 17.5 110.5 17.9 110.5 18.5L110.5 36.5C110.5 37.1 110.1 37.5 109.5 37.5M101.0996 17.7998C100.7996 17.7998 100.5996 17.6998 100.4006 17.4998 100.2006 17.2998 100.0996 17.0998 100.0996 16.7998 100.0996 16.4998 100.2006 16.2998 100.4006 16.0998 100.5996 15.8998 100.9996 15.7998 101.2996 15.7998 101.4006 15.7998 101.4006 15.7998 101.4996 15.8998 101.5996 15.8998 101.5996 15.8998 101.7006 15.9998 101.7006 15.9998 101.7996 16.0998 101.9006 16.0998 102.0996 16.2998 102.2006 16.5998 102.2006 16.7998 102.2006 17.0998 102.0996 17.2998 101.9006 17.4998 101.5996 17.6998 101.4006 17.7998 101.0996 17.7998" mask="url(#b)"/>
    <path fill="#FFD15D" d="M75.1001,33.7998 C82.2801,33.7998 88.1001,39.6198 88.1001,46.7998 C88.1001,53.9798 82.2801,59.7998 75.1001,59.7998 C67.9201,59.7998 62.1001,53.9798 62.1001,46.7998 C62.1001,39.6198 67.9201,33.7998 75.1001,33.7998" mask="url(#b)"/>
    <path fill="#003064" d="M77.2998,52.1001 L73.2998,52.1001 C71.8998,52.1001 70.6998,50.9001 70.6998,49.5001 C70.6998,48.9001 71.0998,48.5001 71.6998,48.5001 C72.2998,48.5001 72.6998,48.9001 72.6998,49.5001 C72.6998,49.8001 72.9998,50.1001 73.2998,50.1001 L77.2998,50.1001 C77.6998,50.1001 78.0998,49.7001 78.0998,49.3001 L78.0998,48.6001 C78.0998,48.2001 77.6998,47.8001 77.2998,47.8001 L73.2998,47.8001 C71.7998,47.8001 70.4998,46.5001 70.4998,45.0001 L70.4998,44.3001 C70.4998,42.7001 71.7998,41.5001 73.2998,41.5001 L77.5998,41.5001 C78.8998,41.5001 79.8998,42.5001 79.8998,43.8001 C79.8998,44.4001 79.4998,44.8001 78.8998,44.8001 C78.2998,44.8001 77.8998,44.4001 77.8998,43.8001 C77.8998,43.6001 77.7998,43.5001 77.5998,43.5001 L73.2998,43.5001 C72.8998,43.5001 72.4998,43.9001 72.4998,44.3001 L72.4998,45.0001 C72.4998,45.4001 72.8998,45.8001 73.2998,45.8001 L77.2998,45.8001 C78.7998,45.8001 80.0998,47.1001 80.0998,48.6001 L80.0998,49.3001 C80.0998,50.8001 78.7998,52.1001 77.2998,52.1001" mask="url(#b)"/>
    <path fill="#003064" d="M75.5,54.5 C74.9,54.5 74.5,54.1 74.5,53.5 L74.5,39.5 C74.5,38.9 74.9,38.5 75.5,38.5 C76.1,38.5 76.5,38.9 76.5,39.5 L76.5,53.5 C76.5,54.1 76.1,54.5 75.5,54.5" mask="url(#b)"/>
    <polygon fill="#003064" points="142.3 5 144.3 5 144.3 1 142.3 1" mask="url(#b)"/>
    <polygon fill="#003064" points="142.3 15 144.3 15 144.3 11 142.3 11" mask="url(#b)"/>
    <polygon fill="#003064" points="136.3 9 140.3 9 140.3 7 136.3 7" mask="url(#b)"/>
    <polygon fill="#003064" points="146.3 9 150.3 9 150.3 7 146.3 7" mask="url(#b)"/>
    <polygon fill="#003064" points="162.3 45 164.3 45 164.3 41 162.3 41" mask="url(#b)"/>
    <polygon fill="#003064" points="162.3 55 164.3 55 164.3 51 162.3 51" mask="url(#b)"/>
    <polygon fill="#003064" points="156.3 49 160.3 49 160.3 47 156.3 47" mask="url(#b)"/>
    <polygon fill="#003064" points="166.3 49 170.3 49 170.3 47 166.3 47" mask="url(#b)"/>
    <path fill="#007BFF" d="M131.9004,34.6001 C133.0044,34.6001 133.9004,35.4961 133.9004,36.6001 C133.9004,37.7041 133.0044,38.6001 131.9004,38.6001 C130.7964,38.6001 129.9004,37.7041 129.9004,36.6001 C129.9004,35.4961 130.7964,34.6001 131.9004,34.6001" mask="url(#b)"/>
    <path fill="#003064" d="M79 11.7998C78.7 11.7998 78.5 11.6998 78.3 11.4998 78.1 11.2998 78 10.9998 78 10.7998 78 10.4998 78.1 10.2998 78.3 10.0998 78.3 10.0998 78.4 9.9998 78.5 9.9998 78.5 9.9998 78.6 9.8998 78.7 9.8998 78.8 9.8998 78.8 9.7998 78.9 9.7998L79.3 9.7998C79.4 9.7998 79.4 9.7998 79.5 9.8998 79.6 9.8998 79.6 9.8998 79.7 9.9998 79.8 9.9998 79.8 10.0998 79.9 10.0998 80.1 10.2998 80.2 10.4998 80.2 10.7998 80.2 11.0998 80.1 11.2998 79.9 11.4998 79.9 11.4998 79.8 11.5998 79.7 11.5998 79.7 11.5998 79.6 11.6998 79.5 11.6998 79.4 11.6998 79.4 11.6998 79.3 11.7998 79.2 11.6998 79.1 11.7998 79 11.7998M79 28.2002C78.4 28.2002 78 27.8002 78 27.2002L78 18.6002C78 18.0002 78.4 17.6002 79 17.6002 79.6 17.6002 80 18.0002 80 18.6002L80 27.2002C80 27.8002 79.6 28.2002 79 28.2002M75 8.7002C74.7 8.7002 74.5 8.6002 74.3 8.4002 74.1 8.2002 74 7.9002 74 7.7002 74 7.4002 74.1 7.2002 74.3 7.0002 74.5 6.8002 74.9 6.7002 75.2 6.7002 75.3 6.7002 75.3 6.7002 75.4 6.8002 75.5 6.8002 75.5 6.9002 75.6 6.9002 75.7 6.9002 75.7 7.0002 75.8 7.0002 75.9 7.2002 76 7.4002 76 7.7002 76 8.0002 75.9 8.2002 75.7 8.4002 75.7 8.4002 75.6 8.5002 75.5 8.5002 75.4 8.5002 75.4 8.6002 75.3 8.6002 75.2 8.6002 75.2 8.6002 75.1 8.7002L75 8.7002zM75 25.1001C74.4 25.1001 74 24.7001 74 24.1001L74 15.5001C74 14.9001 74.4 14.5001 75 14.5001 75.6 14.5001 76 14.9001 76 15.5001L76 24.1001C76 24.7001 75.6 25.1001 75 25.1001M71 15.7002C70.7 15.7002 70.5 15.6002 70.3 15.4002 70.2 15.3002 70.1 15.2002 70.1 15.1002 70.1 15.0002 70 14.9002 70 14.7002 70 14.6002 70 14.4002 70.1 14.3002 70.2 14.2002 70.2 14.1002 70.3 14.0002 70.4 13.9002 70.5 13.8002 70.6 13.8002 70.8 13.7002 71 13.7002 71.2 13.7002 71.3 13.7002 71.3 13.7002 71.4 13.8002 71.5 13.8002 71.5 13.9002 71.6 13.9002 71.7 13.9002 71.7 14.0002 71.8 14.0002 72 14.2002 72.1 14.5002 72.1 14.7002 72.1 15.0002 72 15.2002 71.8 15.4002 71.8 15.4002 71.7 15.5002 71.6 15.5002 71.6 15.5002 71.5 15.6002 71.4 15.6002 71.3 15.6002 71.3 15.6002 71.2 15.7002L71 15.7002zM71 32.2002C70.4 32.2002 70 31.8002 70 31.2002L70 22.6002C70 22.0002 70.4 21.6002 71 21.6002 71.6 21.6002 72 22.0002 72 22.6002L72 31.2002C72 31.7002 71.6 32.2002 71 32.2002" mask="url(#b)"/>
    <path fill="#007BFF" d="M44.6001 49.2998C45.7041 49.2998 46.6001 50.1958 46.6001 51.2998 46.6001 52.4048 45.7041 53.2998 44.6001 53.2998 43.4961 53.2998 42.6001 52.4048 42.6001 51.2998 42.6001 50.1958 43.4961 49.2998 44.6001 49.2998M154 59.2998C154.994 59.2998 155.8 60.1058 155.8 61.0998 155.8 62.0938 154.994 62.8998 154 62.8998 153.006 62.8998 152.2 62.0938 152.2 61.0998 152.2 60.1058 153.006 59.2998 154 59.2998" mask="url(#b)"/>
  </g>
</svg>
