<svg xmlns="http://www.w3.org/2000/svg" width="96" height="96" viewBox="0 0 96 96">
  <path fill="#0078FF" d="M41.4272236,89 L56.6719104,89 C56.2322359,87.0697722 56,85.0615144 56,83 C56,80.9384856 56.2322359,78.9302278 56.6719104,77 L41.4272236,77 C41.1456995,78.9600079 41,80.9632996 41,83 C41,85.0367004 41.1456995,87.0399921 41.4272236,89 Z M42.7460252,95 C46.7854412,108.52745 57.4725504,119.214559 71,123.253975 L71,107.183791 C65.7340425,104.560127 61.4398894,100.266238 58.8160891,95 L42.7460252,95 Z M42.7460252,71 L58.8160891,71 C61.4398894,65.7337621 65.7340425,61.4398733 71,58.8162089 L71,42.7460252 C57.4725504,46.7854412 46.7854412,57.4725504 42.7460252,71 Z M124.572776,89 C124.8543,87.0399921 125,85.0367004 125,83 C125,80.9632996 124.8543,78.9600079 124.572776,77 L109.32809,77 C109.767764,78.9302278 110,80.9384856 110,83 C110,85.0615144 109.767764,87.0697722 109.32809,89 L124.572776,89 Z M123.253975,95 L107.183911,95 C104.560111,100.266238 100.265958,104.560127 95,107.183791 L95,123.253975 C108.52745,119.214559 119.214559,108.52745 123.253975,95 Z M123.253975,71 C119.214559,57.4725504 108.52745,46.7854412 95,42.7460252 L95,58.8162089 C100.265958,61.4398733 104.560111,65.7337621 107.183911,71 L123.253975,71 Z M89,124.572776 L89,109.328028 C87.069698,109.767747 85.0614283,110 83,110 C80.9385717,110 78.930302,109.767747 77,109.328028 L77,124.572776 C78.9600079,124.8543 80.9632996,125 83,125 C85.0367004,125 87.0399921,124.8543 89,124.572776 Z M89,41.4272236 C87.0399921,41.1456995 85.0367004,41 83,41 C80.9632996,41 78.9600079,41.1456995 77,41.4272236 L77,56.6719724 C78.930302,56.2322525 80.9385717,56 83,56 C85.0614283,56 87.069698,56.2322525 89,56.6719724 L89,41.4272236 Z M83,131 C56.534,131 35,109.466 35,83 C35,56.534 56.534,35 83,35 C109.466,35 131,56.534 131,83 C131,109.466 109.466,131 83,131 Z M83,62 C71.42,62 62,71.423 62,83 C62,94.577 71.42,104 83,104 C94.58,104 104,94.577 104,83 C104,71.423 94.58,62 83,62 Z" transform="translate(-35 -35)"/>
</svg>
