<svg xmlns="http://www.w3.org/2000/svg" xmlns:xlink="http://www.w3.org/1999/xlink" width="161" height="192" viewBox="0 0 161 192">
  <defs>
    <polygon id="a" points="0 192 161 192 161 0 0 0"/>
  </defs>
  <g fill="none" fill-rule="evenodd">
    <path fill="#007BFF" d="M37,2.9002 C39.209,2.9002 41,4.6912 41,6.9002 C41,9.1092 39.209,10.9002 37,10.9002 C34.791,10.9002 33,9.1092 33,6.9002 C33,4.6912 34.791,2.9002 37,2.9002 Z"/>
    <path fill="#003064" d="M55 129.0003L53 129.0003 53 114.3003C53 107.3993 49.8 100.3993 44.2 95.1003 22 74.4003 20.8 39.6003 41.5 17.4003 51.3 7.0003 64.6.7003 78.9.0003L86 .0003C94.2.4003 102.2 2.7003 109.3 6.7003L108.3 8.5003C101.4 4.7003 93.7 2.5003 85.9 2.1003L78.9 2.1003C49.7 3.5003 27.3 28.5003 28.8 57.7003 29.5 71.4003 35.5 84.3003 45.6 93.7003 51.6 99.3993 55 106.8993 55 114.3003L55 129.0003zM111.9004 129.0003L109.9004 129.0003 109.9004 114.3003C109.9004 106.8993 113.2994 99.3003 119.2994 93.7003 140.0994 74.4003 141.9004 42.1003 123.2994 20.7003L124.7994 19.4003C144.0004 41.7003 142.2004 75.2003 120.5994 95.2003 115.0004 100.5003 111.7994 107.5003 111.7994 114.3993L111.7994 129.0003 111.9004 129.0003z"/>
    <path fill="#FFD15D" d="M59.5,139.5003 L107.5,139.5003 L107.5,142.8993 C107.5,151.0003 101,157.5003 92.9,157.5003 L74.1,157.5003 C66,157.5003 59.5,151.0003 59.5,142.8993 L59.5,139.5003 Z"/>
    <path fill="#FFD15D" d="M60,140.0003 L60,142.8993 C60,150.7003 66.6,157.0003 74.8,157.0003 L92.8,157.0003 C100.4,157.2003 106.8,151.2003 107,143.5003 L107,142.8993 L107,140.0003 L60,140.0003 Z M92.8,158.0003 L74.8,158.0003 C66.1,158.0003 59,151.2003 59,142.8993 L59,139.0003 L108,139.0003 L108,142.8993 C108,151.2003 101.4,157.8993 93.1,158.0003 L92.8,158.0003 Z"/>
    <path fill="#EBEFF3" d="M51.7002,128.8001 L53.0002,131.6001 C53.5002,132.0001 55.4002,135.0001 56.0992,135.7001 C56.5992,136.1001 56.9002,136.5001 57.3002,137.1001 C57.7002,137.3001 58.0992,137.6001 58.3002,138.0001 L108.0002,138.0001 C108.4002,137.3001 114.8002,131.4001 115.3002,130.8001 L116.3002,129.0001 L51.7002,128.8001 Z"/>
    <mask id="b" fill="white">
      <use xlink:href="#a"/>
    </mask>
    <polygon fill="#003064" points="50 130 117.5 130 117.5 128 50 128" mask="url(#b)"/>
    <polygon fill="#003064" points="53.8 134 113.401 134 113.401 132 53.8 132" mask="url(#b)"/>
    <polygon fill="#003064" points="57.8 138 109 138 109 136 57.8 136" mask="url(#b)"/>
    <path fill="#003064" d="M94,162.0003 L73,162.0003 C69.7,162.0003 66.4,161.1003 63.5,159.3993 L64.5,157.7003 C67.1,159.2003 70,160.0003 73,160.0003 L94,160.0003 C97,160.0003 99.9,159.2003 102.5,157.7003 L103.5,159.3993 C100.6,161.1003 97.4,162.0003 94,162.0003" mask="url(#b)"/>
    <polygon fill="#003064" points="6 77 8 77 8 73 6 73" mask="url(#b)"/>
    <polygon fill="#003064" points="6 87 8 87 8 83 6 83" mask="url(#b)"/>
    <polygon fill="#003064" points="10 81 14 81 14 79 10 79" mask="url(#b)"/>
    <polygon fill="#003064" points="0 81 4 81 4 79 0 79" mask="url(#b)"/>
    <path fill="#003064" d="M6.7998,35.9002 C5.6998,35.9002 4.7998,36.8002 4.7998,37.9002 C4.7998,39.0002 5.6998,39.9002 6.7998,39.9002 C7.9008,39.9002 8.7998,39.0002 8.7998,37.9002 C8.7998,36.8002 7.9008,35.9002 6.7998,35.9002 M6.7998,41.9002 C4.5998,41.9002 2.7998,40.1002 2.7998,37.9002 C2.7998,35.7002 4.5998,33.9002 6.7998,33.9002 C8.9998,33.9002 10.7998,35.7002 10.7998,37.9002 C10.7998,40.1002 8.9998,41.9002 6.7998,41.9002" mask="url(#b)"/>
    <polygon fill="#003064" points="79 169 81 169 81 161 79 161" mask="url(#b)"/>
    <polygon fill="#003064" points="85 169 87 169 87 161 85 161" mask="url(#b)"/>
    <path fill="#003064" d="M80 173.0003C79.7 173.0003 79.5 172.8993 79.3 172.7003 79.2 172.6003 79.1 172.5003 79.1 172.3993 79 172.3003 79 172.2003 79 172.0003 79 171.7003 79.1 171.5003 79.3 171.3003 79.6 171.0003 80 170.8993 80.4 171.1003 80.5 171.2003 80.6 171.2003 80.7 171.3003 80.9 171.5003 81 171.7003 81 172.0003 81 172.1003 81 172.3003 80.9 172.3993 80.8 172.7003 80.6 172.8003 80.4 172.8993 80.3 173.0003 80.1 173.0003 80 173.0003M86 173.0003C85.4 173.0003 85 172.5003 85 172.0003 85 171.7003 85.1 171.5003 85.3 171.3003 85.5 171.1003 85.9 171.0003 86.2 171.0003 86.3 171.0003 86.3 171.0003 86.4 171.1003 86.5 171.1003 86.5 171.2003 86.6 171.2003 86.7 171.2003 86.7 171.3003 86.8 171.3003 87.2 171.7003 87.2 172.3003 86.8 172.7003 86.7 172.7003 86.7 172.8003 86.6 172.8003 86.5 172.8003 86.5 172.8993 86.4 172.8993 86.3 172.8993 86.3 173.0003 86.2 173.0003L86 173.0003zM80 177.0003C79.7 177.0003 79.5 176.8993 79.3 176.7003 79.2 176.6003 79.1 176.5003 79.1 176.3993 79 176.3003 79 176.2003 79 176.0003 79 175.7003 79.1 175.5003 79.3 175.3003 79.6 175.0003 80 174.8993 80.4 175.1003 80.5 175.2003 80.6 175.2003 80.7 175.3003 80.7 175.3003 80.8 175.3993 80.8 175.5003 80.8 175.6003 80.9 175.6003 80.9 175.7003 80.9 175.8003 81 175.8003 81 175.8993L81 176.1003C81 176.2003 81 176.3993 80.9 176.5003 80.9 176.6003 80.8 176.7003 80.7 176.8003 80.6 176.8993 80.5 177.0003 80.4 177.0003L80 177.0003zM86 177.0003C85.7 177.0003 85.5 176.8993 85.3 176.7003 85.2 176.6003 85.1 176.5003 85.1 176.3993 85 176.3003 85 176.2003 85 176.0003 85 175.7003 85.1 175.5003 85.3 175.3003 85.5 175.1003 85.9 175.0003 86.2 175.0003 86.3 175.0003 86.3 175.0003 86.4 175.1003 86.5 175.1003 86.5 175.2003 86.6 175.2003 86.7 175.2003 86.7 175.3003 86.8 175.3003 87 175.5003 87.1 175.7003 87.1 176.0003 87.1 176.1003 87.1 176.3003 87 176.3993 86.9 176.5003 86.9 176.6003 86.8 176.7003 86.8 176.7003 86.7 176.8003 86.6 176.8003 86.5 176.8003 86.5 176.8993 86.4 176.8993 86.3 176.8993 86.3 177.0003 86.2 177.0003L86 177.0003z" mask="url(#b)"/>
    <polygon fill="#003064" points="70.9 182 68.9 182 68.9 171 31.9 171 31.9 182 29.9 182 29.9 169 70.9 169" mask="url(#b)"/>
    <polygon fill="#007BFF" points="24.9 192 73 192 73 179 24.9 179" mask="url(#b)"/>
    <path fill="#003064" d="M38.9004,187.0003 L34.9004,187.0003 C34.2994,187.0003 33.9004,186.6003 33.9004,186.0003 C33.9004,185.3993 34.2994,185.0003 34.9004,185.0003 L38.9004,185.0003 C39.5004,185.0003 39.9004,185.3993 39.9004,186.0003 C39.9004,186.6003 39.4004,187.0003 38.9004,187.0003" mask="url(#b)"/>
    <path fill="#003064" d="M32.9004,185.0003 C32.2994,185.0003 31.9004,185.3993 31.9004,186.0003 C31.9004,186.6003 32.2994,187.0003 32.9004,187.0003 C33.5004,187.0003 33.9004,186.6003 33.9004,186.0003 C33.9004,185.3993 33.4004,185.0003 32.9004,185.0003 M32.9004,189.0003 C31.2004,189.0003 29.9004,187.7003 29.9004,186.0003 C29.9004,184.3003 31.2004,183.0003 32.9004,183.0003 C34.5994,183.0003 35.9004,184.3003 35.9004,186.0003 C35.9004,187.7003 34.5004,189.0003 32.9004,189.0003" mask="url(#b)"/>
    <path fill="#EBEFF3" d="M16.0996,108.5003 L16.0996,124.3003 L27.0996,133.8003 C29.4996,136.2003 32.7006,137.5003 35.9996,137.3993 L39.2996,137.3993 L26.9996,126.8993 L26.9996,116.5003 C27.0996,113.8003 25.9996,111.1003 23.9996,109.3003 L23.9996,108.5003 C23.9996,103.6003 21.0996,99.5003 16.0996,99.5003 L16.0996,100.6003 C14.9006,99.8993 13.4996,99.5003 12.0996,99.5003 L12.0996,100.6003 C14.7006,102.1003 16.0996,105.1003 16.0996,108.5003" mask="url(#b)"/>
    <path fill="#003064" d="M39.4004,138.3997 C39.2004,138.3997 38.9004,138.2997 38.7004,138.2007 L26.0994,127.3997 L26.0994,116.5997 C26.2004,114.2007 25.2004,111.7997 23.5004,110.0997 L23.0994,109.7997 L23.0994,108.5997 C23.0994,104.5997 21.0004,100.5997 16.2004,100.5997 L13.2004,100.5997 L13.2004,100.7007 C13.2004,101.2997 12.7994,101.7007 12.2004,101.7007 C11.5994,101.7007 11.2004,101.2997 11.2004,100.7007 L11.2004,98.5997 L16.2004,98.5997 C21.4004,98.5997 25.0994,102.7007 25.0994,108.5997 L25.0994,108.8997 C27.0994,110.8997 28.2004,113.7007 28.0994,116.5997 L28.0994,126.5007 L40.0004,136.5997 C40.4004,137.0007 40.5004,137.5997 40.0994,138.0007 C40.0004,138.2997 39.7004,138.3997 39.4004,138.3997" mask="url(#b)"/>
    <path fill="#003064" d="M64.2002,170.3997 C63.5992,170.3997 63.2002,170.0007 63.2002,169.3997 L63.2002,147.5007 C63.2002,145.0997 62.2002,142.7007 60.5002,141.0007 L37.0002,117.5007 C34.4002,121.0997 34.8002,126.0007 38.0002,129.0997 L47.5992,138.2007 L36.0992,138.2997 C32.5002,138.2997 29.0002,136.8997 26.4002,134.3997 L15.0992,124.5997 L15.0992,108.3997 C15.0992,104.7007 13.3002,101.0007 9.2002,100.5007 L9.2002,130.0007 L37.2002,156.7007 L37.2002,169.3997 C37.2002,170.0007 36.8002,170.3997 36.2002,170.3997 C35.5992,170.3997 35.2002,170.0007 35.2002,169.3997 L35.2002,157.5997 L7.2002,130.8997 L7.2002,98.5007 L8.2002,98.5007 C13.4002,98.5007 17.0992,102.5997 17.0992,108.5007 L17.0992,123.7997 L27.8002,133.0007 C30.0002,135.2007 33.0002,136.3997 36.0992,136.3997 L42.7002,136.2997 L36.5992,130.5997 C32.4002,126.3997 32.2002,119.3997 36.2002,115.3997 L36.9002,114.7007 L61.9002,139.7007 C64.0002,141.7997 65.2002,144.5997 65.2002,147.5997 L65.2002,169.5007 C65.2002,170.0007 64.7002,170.3997 64.2002,170.3997" mask="url(#b)"/>
    <polygon fill="#003064" points="137.3 182 135.3 182 135.3 171 98.401 171 98.401 182 96.401 182 96.401 169 137.3 169" mask="url(#b)"/>
    <polygon fill="#007BFF" points="94.2 192 142.3 192 142.3 179 94.2 179" mask="url(#b)"/>
    <path fill="#003064" d="M132.2998,187.0003 L128.2998,187.0003 C127.6998,187.0003 127.2998,186.6003 127.2998,186.0003 C127.2998,185.3993 127.6998,185.0003 128.2998,185.0003 L132.2998,185.0003 C132.9008,185.0003 133.2998,185.3993 133.2998,186.0003 C133.2998,186.6003 132.9008,187.0003 132.2998,187.0003" mask="url(#b)"/>
    <path fill="#003064" d="M134.2998,185.0003 C133.6998,185.0003 133.2998,185.3993 133.2998,186.0003 C133.2998,186.6003 133.6998,187.0003 134.2998,187.0003 C134.9008,187.0003 135.2998,186.6003 135.2998,186.0003 C135.2998,185.3993 134.9008,185.0003 134.2998,185.0003 M134.2998,189.0003 C132.5998,189.0003 131.2998,187.7003 131.2998,186.0003 C131.2998,184.3003 132.5998,183.0003 134.2998,183.0003 C135.9998,183.0003 137.2998,184.3003 137.2998,186.0003 C137.2998,187.7003 135.9998,189.0003 134.2998,189.0003" mask="url(#b)"/>
    <path fill="#EBEFF3" d="M151.0996,108.5003 L151.0996,124.3003 L140.0996,133.8003 C137.7006,136.2003 134.4996,137.5003 131.2006,137.3993 L127.9006,137.3993 L140.2006,126.8993 L140.2006,116.5003 C140.0996,113.8003 141.2006,111.1003 143.2006,109.3003 L143.2006,108.5003 C143.2006,103.6003 146.0996,99.5003 151.0996,99.5003 L151.0996,100.6003 C152.2996,99.8993 153.7006,99.5003 155.0996,99.5003 L155.0996,100.6003 C152.4996,102.1003 151.0996,105.1003 151.0996,108.5003" mask="url(#b)"/>
    <path fill="#003064" d="M127.7998,138.3997 C127.1998,138.3997 126.7998,138.0007 126.7998,137.3997 C126.7998,137.0997 126.9008,136.7997 127.0998,136.5997 L138.9998,126.3997 L138.9998,116.5007 C138.9008,113.5997 139.9998,110.8997 141.9998,108.7997 L141.9998,108.5007 C141.9998,102.5997 145.5998,98.5007 150.9008,98.5007 L155.9008,98.5007 L155.9008,100.5997 C155.9008,101.2007 155.4998,101.5997 154.9008,101.5997 C154.2998,101.5997 153.9008,101.2007 153.9008,100.5997 L153.9008,100.5007 L150.9008,100.5007 C146.1998,100.5007 143.9998,104.5007 143.9998,108.5007 L143.9998,109.7007 L143.5998,110.0007 C141.7998,111.7007 140.7998,114.0007 140.9998,116.5007 L140.9998,127.2997 L128.4008,138.0997 C128.2998,138.2997 128.0998,138.3997 127.7998,138.3997" mask="url(#b)"/>
    <path fill="#003064" d="M103,170.3997 C102.4,170.3997 102,170.0007 102,169.3997 L102,147.5007 C102,144.5007 103.2,141.7007 105.3,139.5997 L130.3,114.5997 L131,115.2997 C133,117.2997 134.1,120.0997 133.9,122.8997 C133.8,125.7007 132.6,128.3997 130.7,130.5007 L124.6,136.2997 L131.2,136.3997 C134.3,136.3997 137.2,135.2007 139.4,133.0997 L150.1,123.7997 L150.1,108.5007 C150.1,102.5997 153.7,98.5007 159,98.5007 L160,98.5007 L160,130.7997 L132,157.5007 L132,169.2997 C132,169.8997 131.6,170.2997 131,170.2997 C130.4,170.2997 130,169.8997 130,169.2997 L130,156.5997 L158,129.8997 L158,100.5007 C154,101.0007 152.1,104.7007 152.1,108.3997 L152.1,124.5997 L140.7,134.3997 C138.1,136.8997 134.7,138.2997 131.1,138.2997 L119.6,138.2007 L129.2,129.0997 C132.3,126.0007 132.8,121.0997 130.2,117.5007 L106.7,141.0007 C105,142.7007 104,145.0997 104,147.5007 L104,169.3997 C104,170.0007 103.6,170.3997 103,170.3997" mask="url(#b)"/>
    <path fill="#007BFF" d="M157,73.9998 C159.209,73.9998 161,75.7908 161,77.9998 C161,80.2088 159.209,81.9998 157,81.9998 C154.791,81.9998 153,80.2088 153,77.9998 C153,75.7908 154.791,73.9998 157,73.9998" mask="url(#b)"/>
    <polygon fill="#003064" points="149 30 151 30 151 26 149 26" mask="url(#b)"/>
    <polygon fill="#003064" points="149 40 151 40 151 36 149 36" mask="url(#b)"/>
    <polygon fill="#003064" points="153 34 157 34 157 32 153 32" mask="url(#b)"/>
    <polygon fill="#003064" points="143 34 147 34 147 32 143 32" mask="url(#b)"/>
    <path fill="#003064" d="M77.5 52.2L76.6 50.4C77.2 50.1 77.8 49.8 78.5 49.5L79.3 51.3 77.5 52.2zM74.3 54.2L73.1 52.6C73.7 52.2 74.2 51.8 74.8 51.4L75.9 53.1C75.3 53.5 74.8 53.8 74.3 54.2L74.3 54.2zM71.3 56.7L69.9 55.3C70.4 54.8 70.9 54.4 71.4 53.9L72.7 55.4C72.2 55.8 71.7 56.2 71.3 56.7L71.3 56.7zM68.7 59.5L67.1 58.3C67.5 57.8 68 57.2 68.4 56.7L69.9 58C69.5 58.5 69.1 59 68.7 59.5L68.7 59.5zM66.5 62.7L64.8 61.7C65.2 61.1 65.5 60.5 65.9 60L67.5 61.1C67.2 61.6 66.8 62.2 66.5 62.7L66.5 62.7zM64.7 66.1L62.9 65.3C63.2 64.7 63.5 64 63.8 63.4L65.6 64.3C65.2 65 65 65.6 64.7 66.1L64.7 66.1zM63.4 69.8L61.5 69.3C61.7 68.6 61.9 68 62.1 67.3L64 68C63.8 68.6 63.6 69.2 63.4 69.8L63.4 69.8zM62.7 73.6L60.7 73.3C60.8 72.6 60.9 71.9 61 71.3L63 71.7C62.9 72.3 62.7 72.9 62.7 73.6L62.7 73.6zM62.4 77.4L60.4 77.4C60.4 76.7 60.4 76 60.5 75.3L62.5 75.4C62.4 76.1 62.4 76.8 62.4 77.4L62.4 77.4zM60.7 81.5C60.6 80.8 60.5 80.1 60.5 79.4L62.5 79.3C62.5 79.9 62.6 80.6 62.7 81.2L60.7 81.5zM105.5 82C105.4 81.4 105.3 80.8 105.2 80.1L107.1 79.6C107.3 80.3 107.4 81 107.5 81.7L105.5 82zM61.5 85.6C61.3 84.9 61.2 84.3 61 83.6L63 83.2C63.1 83.8 63.3 84.5 63.5 85.1L61.5 85.6zM107.5 85.9L105.5 85.7C105.5 85.2 105.6 84.6 105.6 84.1L105.6 83.8 107.6 83.8 107.6 84.1C107.6 84.8 107.6 85.4 107.5 85.9L107.5 85.9zM62.9 89.5C62.6 88.9 62.4 88.2 62.2 87.6L64.1 86.9C64.3 87.5 64.5 88.1 64.8 88.7L62.9 89.5zM106.7 90.1L104.8 89.5C105 88.9 105.1 88.3 105.3 87.7L107.3 88.1C107.1 88.7 106.9 89.4 106.7 90.1L106.7 90.1zM64.8 93.2C64.4 92.6 64.1 92 63.8 91.4L65.6 90.5C65.9 91.1 66.2 91.6 66.6 92.2L64.8 93.2zM105.1 93.9L103.4 92.9C103.7 92.3 104 91.8 104.2 91.2L106 92C105.7 92.7 105.4 93.3 105.1 93.9L105.1 93.9zM67.3 96.5C66.8 96 66.4 95.4 66 94.9L67.6 93.7C68 94.2 68.4 94.7 68.8 95.2L67.3 96.5zM102.6 97.4L101.1 96.1C101.5 95.6 101.9 95.1 102.3 94.6L103.9 95.8C103.5 96.3 103.1 96.8 102.6 97.4L102.6 97.4zM70.4 99.3C69.9 98.9 69.3 98.4 68.8 97.9L70.2 96.4C70.7 96.8 71.2 97.3 71.7 97.6L70.4 99.3zM99.6 100.2L98.4 98.6C98.9 98.2 99.4 97.8 99.9 97.4L101.3 98.9C100.7 99.3 100.1 99.8 99.6 100.2L99.6 100.2zM73.8 101.6C73.2 101.3 72.6 100.9 72 100.5L73.1 98.8C73.6 99.1 74.2 99.5 74.7 99.8L73.8 101.6zM95.9 102.4L95.1 100.6C95.7 100.3 96.2 100 96.8 99.7L97.8 101.4C97.2 101.7 96.6 102.1 95.9 102.4L95.9 102.4zM77.7 103.3C77 103.1 76.4 102.8 75.8 102.5L76.6 100.7C77.2 101 77.8 101.2 78.4 101.4L77.7 103.3zM92 103.8L91.5 101.9C92.1 101.7 92.7 101.5 93.3 101.3L94 103.2C93.4 103.4 92.7 103.6 92 103.8L92 103.8zM81.7 104.3C81 104.2 80.3 104 79.7 103.9L80.2 102C80.8 102.2 81.4 102.3 82.1 102.4L81.7 104.3zM87.9 104.5L87.7 102.5C88.3 102.4 89 102.4 89.6 102.2L90 104.2C89.3 104.3 88.6 104.4 87.9 104.5L87.9 104.5zM85.7 104.6C85.1 104.6 84.4 104.6 83.8 104.5L84 102.5C84.6 102.5 85.2 102.6 85.7 102.6L85.9 102.6 85.9 104.6 85.7 104.6zM90.7002 37.8001L101.8002 46.5001 127.8002 5.7001 66.9002 24.1001 83.0002 31.4001 82.9002 45.6001 90.7002 37.8001zM80.9002 50.4001L81.0002 32.6001 61.0992 23.7001 132.2002 2.2001 102.2002 49.4001 90.8002 40.4001 80.9002 50.4001z" mask="url(#b)"/>
    <polygon fill="#FFD15D" points="85 33 84.9 40.7 88.8 36.8" mask="url(#b)"/>
    <polygon fill="#FFD15D" points="86.5 31.2 119.5 10.3 72.6 24.5" mask="url(#b)"/>
    <polygon fill="#FFD15D" points="87.8 32.7 90.5 35.2 101.2 43.6 121.901 11.2" mask="url(#b)"/>
  </g>
</svg>
