<svg xmlns="http://www.w3.org/2000/svg" xmlns:xlink="http://www.w3.org/1999/xlink" width="193" height="193" viewBox="0 0 193 193">
  <defs>
    <polygon id="a" points="0 193 193 193 193 0 0 0"/>
  </defs>
  <g fill="none" fill-rule="evenodd">
    <path fill="#EBEFF3" d="M96.1998 33.3C85.4998 33.3 74.8998 36.1 65.5998 41.3 61.3008 44 61.1998 44 60.9998 44.1 53.9998 47.2 47.8008 51.4 42.4998 56.7L34.5998 64.6C34.0998 65.1 33.9998 66 34.3998 66.4 34.6998 66.7 35.0998 66.8 35.3008 66.8 35.4998 66.8 35.6998 66.8 35.9998 66.6L40.6998 61.9 44.8998 66.2 40.3998 70.7C40.1998 70.9 40.0998 71 39.8998 71.2L33.8008 77.2C33.3008 77.7 33.1998 78.6 33.5998 79 33.8998 79.4 34.3008 79.5 34.4998 79.5 34.6998 79.5 35.0998 79.5 35.4998 79.1L46.8008 68 50.9998 72.2 37.1998 86.1C36.6998 86.6 36.5998 87.5 36.9998 88 37.3008 88.3 37.6998 88.5 38.0998 88.5 38.3008 88.5 38.6998 88.5 38.9998 88.2L41.4998 85.7 52.9998 74.2 57.1998 78.4 45.8008 89.9C45.3008 90.4 45.1998 91.3 45.5998 91.8 45.8998 92.2 46.3008 92.3 46.5998 92.4 46.8008 92.4 47.3008 92.4 47.5998 92L65.9998 73.6 70.1998 77.8 65.0998 82.9C64.8008 83.2 64.6998 83.6 64.6998 83.8 64.6998 84 64.6998 84.4 65.0998 84.7 65.3998 85 65.8008 85 65.9998 85 66.1998 85 66.5998 85 66.8998 84.6L70.8998 80.5C74.5998 76.9 75.3998 74.3 75.3998 71.2L75.3998 71 76.0998 62.5 76.0998 62.4C75.8008 52.9 80.8998 50.7 83.3008 50.2 83.5998 50.1 92.0998 48.2 94.0998 47.8 93.9998 47.2 93.8998 46.6 93.9998 45.9 94.1998 43.8 95.3008 41.8 96.9998 40.6 97.3008 40.4 97.6998 40.1 98.0998 40 97.8998 39.3 97.8008 38.5 97.8998 37.8 97.9998 36 98.6998 34.3 99.8998 33L96.1998 33.3zM142.4996 94.5998L142.4996 94.5998C142.4996 94.2998 142.4996 93.9998 142.3996 93.7008 142.3996 94.0998 142.3996 94.3998 142.4996 94.5998"/>
    <path fill="#EBEFF3" d="M142.4996 94.8996C142.6006 95.2996 142.6006 95.0996 142.4996 94.5996L142.3996 94.5996C142.4996 94.7006 142.4996 94.7996 142.4996 94.8996M148.1002 61.0002C144.9992 54.0002 140.8002 47.8002 135.4992 42.5002L127.6002 34.6002C127.1002 34.1002 126.2002 34.0002 125.8002 34.3992 125.4992 34.7002 125.4002 35.1002 125.4002 35.3002 125.4002 35.5002 125.4002 35.7002 125.6002 36.0002L130.3002 40.7002 125.9992 45.0002 121.4992 40.5002C121.3002 40.3002 121.2002 40.2002 120.9992 40.0002L114.9992 33.8992C114.4992 33.3992 113.6002 33.3002 113.2002 33.7002 112.8002 34.0002 112.7002 34.3992 112.7002 34.6002 112.7002 34.8002 112.7002 35.2002 113.1002 35.6002L124.3002 46.8002 121.9992 49.0002 122.1002 49.1002 121.9992 49.0002 119.9992 51.0002 108.8002 39.8002 106.2002 37.2002C105.7002 36.7002 104.8002 36.6002 104.3002 37.0002 103.9992 37.3002 103.8002 37.7002 103.8002 38.1002 103.8002 38.3002 103.8002 38.7002 104.1002 39.0002L106.6002 41.5002 117.9992 52.8992 115.8002 55.1002 115.9002 55.2002 115.8002 55.1002 113.8002 57.1002 102.4002 45.7002C101.9002 45.2002 100.9992 45.1002 100.4992 45.3992 100.1002 45.7002 99.9992 46.1002 99.9002 46.3992 99.9002 46.6002 99.9002 47.1002 100.3002 47.3992L118.7002 65.8002 116.4992 68.0002 116.6002 68.1002 116.4992 68.0002 114.4992 70.0002 109.4002 64.8992C109.1002 64.6002 108.7002 64.5002 108.4992 64.5002 108.3002 64.5002 107.9002 64.5002 107.6002 64.8992 107.3002 65.2002 107.2002 65.6002 107.2002 65.8002 107.2002 66.0002 107.2002 66.3992 107.6002 66.7002L111.7002 70.7002C115.3002 74.3992 117.9002 75.2002 120.9992 75.2002L121.2002 75.2002 129.7002 75.8992 129.8002 75.8992C139.3002 75.6002 141.4992 80.7002 141.9992 83.1002 142.1002 83.3992 142.3002 90.6002 142.4992 93.6002 142.6002 93.8992 142.6002 94.3002 142.6002 94.5002 143.7002 94.0002 144.9992 93.7002 146.3002 93.8002 148.4002 94.0002 150.4002 95.1002 151.6002 96.8002 151.8002 97.1002 152.1002 97.5002 152.2002 97.8992 152.9002 97.7002 153.7002 97.6002 154.4002 97.7002 156.1002 97.8002 157.6002 98.3992 158.9002 99.3992 158.7002 88.8002 155.9992 74.5002 150.9002 65.5002 148.3002 61.3002 148.2002 61.2002 148.1002 61.0002M98.1002 144.3L98.2002 144.3 98.2002 144.1C97.8002 144.3 97.7002 144.4 98.1002 144.3M152.1998 121.0002L158.3008 115.0002C158.8008 114.5002 158.8998 113.6002 158.4998 113.2002 158.1998 112.8002 157.8008 112.7002 157.5998 112.7002 157.3998 112.7002 156.9998 112.7002 156.5998 113.1002L145.3998 124.3002 143.3998 122.3002 143.3008 122.3992 143.3998 122.3002 141.1998 120.1002 154.9998 106.3002C155.4998 105.8002 155.5998 104.8992 155.1998 104.3992 154.8998 104.1002 154.4998 103.8992 154.0998 103.8992 153.8998 103.8992 153.4998 103.8992 153.1998 104.2002L139.3008 118.0002 135.0998 113.8002 146.4998 102.3992C146.9998 101.8992 147.1998 101.0002 146.8008 100.5002 146.4998 100.1002 146.0998 100.0002 145.8008 99.8992 145.5998 99.8992 145.0998 99.8992 144.8008 100.3002L126.3998 118.7002 124.3998 116.7002 124.3008 116.8002 124.3998 116.7002 122.1998 114.5002 127.3008 109.3992C127.8008 108.8992 127.8008 108.1002 127.3008 107.6002 126.9998 107.3002 126.5998 107.3002 126.3998 107.2002 126.1998 107.2002 125.8008 107.2002 125.4998 107.6002L121.4998 111.7002C117.8008 115.3002 116.9998 117.8992 116.9998 121.0002L116.9998 121.2002 116.3008 129.7002 116.3008 129.8002C116.5998 139.3002 111.4998 141.5002 109.0998 142.0002 108.8008 142.1002 99.6998 144.1002 98.3008 144.3992 98.3998 145.0002 98.4998 145.7002 98.3998 146.3002 98.1998 148.3992 97.0998 150.3992 95.3998 151.6002 95.0998 151.8002 94.6998 152.1002 94.3008 152.2002 94.4998 152.8992 94.5998 153.7002 94.4998 154.3992 94.3998 156.1002 93.8008 157.7002 92.6998 158.8992 93.8998 158.8992 96.5998 159.0002 96.8008 159.0002 107.1998 158.8992 117.4998 156.1002 126.5998 151.0002 130.8998 148.3002 130.9998 148.3002 131.1998 148.2002 138.1998 145.1002 144.3998 140.8992 149.6998 135.6002L157.5998 127.7002C158.0998 127.2002 158.1998 126.3002 157.8008 125.8992 157.4998 125.6002 157.0998 125.5002 156.8998 125.5002 156.6998 125.5002 156.4998 125.5002 156.1998 125.7002L151.4998 130.3992 147.3008 126.1002 151.8008 121.6002C151.8998 121.3002 152.0998 121.1002 152.1998 121.0002M91.9996 144.7004L73.6006 126.3004 77.8006 122.0994 82.8996 127.2004C83.3996 127.7004 84.1996 127.7004 84.6996 127.2004 84.9996 126.8994 85.1006 126.5004 85.1006 126.3004 85.1006 126.0994 84.9996 125.7004 84.6996 125.3994L80.6006 121.3994C76.9996 117.7004 74.3996 116.8994 71.3006 116.8994L71.1006 116.8994 62.6006 116.2004 62.4996 116.2004C52.9996 116.5004 50.8006 111.3994 50.3006 109.0004 50.1996 108.7004 48.6996 100.8004 48.1006 98.0994 47.6006 98.2004 47.1006 98.3004 46.4996 98.3004L45.8996 98.3004C43.8006 98.0994 41.8006 97.0004 40.6006 95.3004 40.3996 95.0004 40.1006 94.5994 39.9996 94.2004 39.3006 94.3994 38.4996 94.5004 37.8006 94.3994 36.1006 94.3004 34.4996 93.7004 33.3006 92.5994L33.3006 96.8994C33.4996 107.3004 36.1996 117.5004 41.3006 126.5004 43.9996 130.8004 43.9996 130.8994 44.1006 131.0994 47.1996 138.0994 51.3996 144.3004 56.6996 149.5994L64.6006 157.5004C65.1006 158.0004 65.9996 158.0994 66.3996 157.7004 66.6996 157.3994 66.8006 157.0004 66.8006 156.8004 66.8006 156.5994 66.8006 156.3994 66.6006 156.0994L61.8996 151.3994 66.1996 147.2004 70.6996 151.7004C70.8996 151.8994 70.9996 152.0004 71.1996 152.2004L77.1996 158.3004C77.6996 158.8004 78.6006 158.8994 78.9996 158.5004 79.3996 158.2004 79.4996 157.8004 79.4996 157.5994 79.4996 157.3994 79.4996 157.0004 79.1006 156.5994L67.8996 145.3994 72.1006 141.2004 83.3006 152.3994 85.8996 155.0004C86.3996 155.5004 87.3006 155.5994 87.8006 155.2004 88.1006 154.8994 88.3006 154.5004 88.3006 154.0994 88.3006 153.8994 88.3006 153.5004 87.9996 153.2004L74.1006 139.3004 78.3006 135.0994 89.6996 146.5004C90.1996 147.0004 91.1006 147.2004 91.6006 146.8004 91.9996 146.5004 92.1006 146.0994 92.1996 145.8004 92.3996 145.5004 92.3006 145.0994 91.9996 144.7004"/>
    <path fill="#003064" d="M87.9,148.8996 L87.9,148.8996 C87.9,148.7996 87.8,148.7996 87.8,148.7996 L87.9,148.8996 Z"/>
    <polygon fill="#003064" points="87.8 148.7 87.8 148.7 76.4 137.3"/>
    <path fill="#003064" d="M48.9 70.3L37.7 81.5 48.9 70.3zM148.6002 104.5998L148.8002 104.3998 148.6002 104.5998zM124.3004 116.5998L124.3004 116.5998 125.4994 115.3998C124.9994 115.9998 124.4994 116.3998 124.3004 116.5998M148.6002 104.5998C148.7002 104.4998 148.7002 104.4998 148.7002 104.3998L148.6002 104.5998zM161.9 97.3996C161.3 97.3996 160.9 97.0006 160.9 96.3996 160.9 85.2996 158 74.3996 152.6 64.7996 150 60.5996 149.9 60.5006 149.9 60.3996 146.7 53.2006 142.3 46.7006 136.9 41.2996L129 33.3996C127.8 32.2006 125.6 32.0996 124.4 33.2006 123.7 33.7996 123.4 34.5996 123.3 35.5006 123.3 36.2996 123.5 37.0006 124 37.5996L128.8 42.3996 127.4 43.7996 122.9 39.2996 122.5 38.8996 116.4 32.7006C115.1 31.3996 113.1 31.2996 111.9 32.3996 111.2 33.0006 110.7 33.8996 110.7 34.7996 110.7 35.7006 111 36.5996 111.7 37.2996L122.9 48.5006 121.5 49.8996 107.7 36.0996C106.5 34.8996 104.4 34.7006 103.1 35.7996 102.4 36.3996 101.9 37.3996 101.9 38.2996 101.9 39.2006 102.2 40.0996 102.8 40.7006L105.3 43.2006 116.7 54.5996 115.3 56.0006 103.9 44.5996C102.7 43.3996 100.7 43.2006 99.4 44.2006 98.6 44.7996 98.1 45.5996 98 46.5996 97.9 47.5996 98.3 48.5006 99 49.2006L117.4 67.5996 116 69.0006 110.9 63.8996C109.7 62.7006 107.5 62.7006 106.3 63.8996 105.7 64.5006 105.3 65.2996 105.3 66.2006 105.3 67.0996 105.6 67.8996 106.3 68.5006L110.4 72.5006C113.9 76.0996 116.9 77.5006 121.1 77.5006L129.8 78.2006 129.9 78.2006C137.7 77.8996 139.7 81.7006 140.1 83.8996 140.1 83.8996 140.4 85.0006 140.7 86.0996 140.8 86.5996 140.5 87.2006 140 87.2996 139.5 87.3996 138.9 87.0996 138.8 86.5996 138.6 85.5996 138.2 84.3996 138.2 84.3996 137.5 80.7006 133.4 80.0996 130 80.2006L129.7 80.2006 121 79.5006C116.3 79.5006 112.8 77.8996 109 73.8996L104.9 69.8996C103.9 68.8996 103.3 67.5996 103.3 66.2006 103.3 64.7996 103.8 63.5006 104.8 62.5006 105.7 61.5996 106.7 61.0996 107.9 61.0006L97.5 50.5006C96.4 49.3996 95.8 47.8996 96 46.2996 96.1 44.7996 96.9 43.2996 98.2 42.3996 99 41.7996 99.9 41.5006 100.9 41.3996 100.2 40.3996 99.8 39.2006 99.9 38.0006 100 36.5006 100.7 35.0006 101.8 34.0006 103.7 32.3996 106.8 32.5006 108.8 34.2006 109 32.7996 109.6 31.5996 110.7 30.7006 112.8 29.0006 116 29.2006 117.9 31.2006L121.4 34.7996C121.6 33.5996 122.1 32.3996 123.1 31.5996 125.1 29.7996 128.5 29.8996 130.5 31.8996L138.4 39.7996C144 45.3996 148.6 52.0996 151.9 59.5006 152 59.7006 153.6 62.2006 154.5 63.7006 160.1 73.7006 163.1 84.8996 163.1 96.3996 162.9 96.8996 162.5 97.3996 161.9 97.3996M78.4 162.8996C77 162.8996 75.5 162.2996 74.5 161.2996L71 157.7006C70.8 158.8996 70.3 160.0996 69.3 160.8996 67.3 162.7006 63.9 162.5996 61.9 160.5996L54 152.7006C48.4 147.0996 43.8 140.3996 40.5 133.0006 40.4 132.7996 38.8 130.2996 37.9 128.7996 32.3 118.7996 29.3 107.5996 29.3 96.0996 29.3 95.5006 29.7 95.0996 30.3 95.0996 30.9 95.0996 31.3 95.5006 31.3 96.0996 31.3 107.2006 34.2 118.0996 39.6 127.7006 42.2 131.8996 42.3 132.0006 42.3 132.0996 45.5 139.2996 49.9 145.7996 55.3 151.2006L63.2 159.0996C64.4 160.2996 66.6 160.3996 67.8 159.2996 68.5 158.7006 68.9 157.8996 68.9 157.0006 68.9 156.2006 68.7 155.5006 68.2 154.8996L63.4 150.0996 64.8 148.7006 69.3 153.2006 69.7 153.5996 75.8 159.7996C77.1 161.0996 79.1 161.2006 80.3 160.0996 81 159.5006 81.5 158.5996 81.5 157.7006 81.5 156.7996 81.2 155.8996 80.5 155.2006L69.3 144.0006 70.7 142.5996 84.5 156.3996C85.7 157.5996 87.8 157.7006 89.1 156.7006 89.8 156.0996 90.3 155.0996 90.3 154.2006 90.3 153.2996 90 152.3996 89.4 151.7996L75.7 138.0006 77.1 136.5996 88.5 148.0006C89.7 149.2006 91.7 149.3996 93 148.5006 93.8 147.8996 94.3 147.0996 94.4 146.0996 94.5 145.0996 94.1 144.2006 93.4 143.5006L75 125.0996 76.4 123.7006 81.5 128.7996C82.8 130.0996 84.9 130.0996 86.1 128.7996 86.7 128.2006 87.1 127.3996 87.1 126.5006 87.1 125.5996 86.8 124.7996 86.1 124.2006L82 120.2006C78.5 116.5996 75.5 115.2006 71.3 115.2006L62.6 114.5006 62.5 114.5006C54.7 114.7996 52.8 111.0006 52.3 108.7996 52.3 108.7996 52 107.7006 51.7 106.5996 51.6 106.0996 51.9 105.5006 52.4 105.3996 52.9 105.2996 53.5 105.5996 53.6 106.0996 53.8 107.0996 54.2 108.2996 54.2 108.2996 54.9 112.0006 59 112.5996 62.4 112.5006L62.7 112.5006 71.4 113.2006C76.1 113.2006 79.6 114.7996 83.4 118.7996L87.5 122.7996C88.5 123.7996 89.1 125.0996 89.1 126.5006 89.1 127.8996 88.6 129.2006 87.6 130.2006 86.7 131.0996 85.6 131.5996 84.5 131.7006L94.9 142.0996C96 143.2006 96.6 144.7006 96.4 146.2996 96.3 147.7996 95.5 149.2996 94.2 150.2006 93.4 150.7996 92.5 151.0996 91.5 151.2006 92.2 152.2006 92.6 153.3996 92.5 154.5996 92.4 156.0996 91.7 157.5996 90.6 158.5996 88.7 160.2006 85.6 160.0996 83.6 158.3996 83.4 159.7996 82.8 161.0006 81.7 161.8996 80.7 162.5996 79.5 162.8996 78.4 162.8996M46.6002 96.5002L46.2002 96.5002C44.7002 96.3992 43.2002 95.6002 42.3002 94.3002 41.7002 93.5002 41.4002 92.6002 41.3002 91.6002 40.3002 92.3002 39.1002 92.7002 37.9002 92.6002 36.4002 92.5002 34.9002 91.8002 33.9002 90.7002 32.3002 88.8002 32.4002 85.7002 34.1002 83.7002 32.7002 83.5002 31.4992 82.8992 30.6002 81.8002 28.9002 79.7002 29.1002 76.5002 31.1002 74.6002L34.7002 71.1002C33.4992 70.8992 32.3002 70.3992 31.4992 69.3992 29.7002 67.3992 29.8002 64.0002 31.8002 62.0002L39.7002 54.1002C45.3002 48.5002 51.9992 43.8992 59.4002 40.6002 59.6002 40.5002 62.1002 38.8992 63.6002 38.0002 73.6002 32.3992 84.8002 29.3992 96.3002 29.3992 96.9002 29.3992 97.3002 29.8002 97.3002 30.3992 97.3002 31.0002 96.9002 31.3992 96.3002 31.3992 85.2002 31.3992 74.3002 34.3002 64.7002 39.7002 60.4992 42.3002 60.4002 42.3992 60.3002 42.3992 53.1002 45.6002 46.6002 50.0002 41.2002 55.3992L33.3002 63.3002C32.1002 64.5002 31.9992 66.7002 33.1002 67.8992 33.7002 68.6002 34.4992 68.8992 35.4002 69.0002 36.2002 69.0002 36.9002 68.8002 37.4992 68.3002L42.3002 63.5002 43.7002 64.8992 39.2002 69.3992C39.1002 69.5002 38.9002 69.7002 38.8002 69.8002L32.4992 76.0002C31.2002 77.3002 31.1002 79.3002 32.2002 80.5002 32.8002 81.2002 33.7002 81.7002 34.6002 81.7002 35.4992 81.7002 36.4002 81.3992 37.1002 80.7002L48.3002 69.5002 49.7002 70.8992 35.8002 84.8992C34.6002 86.1002 34.4992 88.2002 35.4992 89.5002 36.1002 90.2002 37.1002 90.7002 37.9992 90.7002 38.9002 90.7002 39.8002 90.3992 40.4002 89.8002L42.9002 87.3002 54.3002 75.8992 55.7002 77.3002 44.4002 88.6002C43.2002 89.8002 42.9992 91.8002 43.9992 93.1002 44.6002 93.8992 45.4002 94.3992 46.4002 94.5002 47.4002 94.6002 48.3002 94.2002 48.9992 93.5002L67.4002 75.1002 68.8002 76.5002 63.7002 81.6002C63.1002 82.2002 62.7002 83.0002 62.7002 83.8992 62.7002 84.8002 62.9992 85.6002 63.7002 86.2002 64.3002 86.8002 65.1002 87.2002 65.9992 87.2002 66.9002 87.2002 67.7002 86.8992 68.3002 86.2002L72.3002 82.1002C75.9002 78.6002 77.3002 75.6002 77.3002 71.3992L77.9992 62.7002 77.9992 62.6002C77.7002 54.7002 81.4992 52.8992 83.7002 52.3992 83.7002 52.3992 84.8002 52.1002 85.9002 51.8002 86.4002 51.7002 86.9992 52.0002 87.1002 52.5002 87.2002 53.0002 86.9002 53.6002 86.4002 53.7002 85.4002 53.8992 84.2002 54.3002 84.2002 54.3002 80.4992 55.0002 79.9002 59.1002 79.9992 62.5002L79.9992 62.8002 79.3002 71.5002C79.3002 76.2002 77.7002 79.7002 73.7002 83.6002L69.7002 87.7002C68.7002 88.7002 67.4002 89.3002 65.9992 89.3002 64.6002 89.3002 63.3002 88.8002 62.3002 87.8002 61.4002 87.0002 60.9002 85.8992 60.8002 84.7002L50.3002 94.8992C49.3002 95.8992 47.9992 96.5002 46.6002 96.5002"/>
    <path fill="#003064" d="M96.1002 163.0998C95.4992 163.0998 95.1002 162.7008 95.1002 162.0998 95.1002 161.4998 95.4992 161.0998 96.1002 161.0998 107.1002 161.0998 117.9992 158.2008 127.7002 152.7998 131.9002 150.2008 131.9992 150.0998 132.1002 150.0998 139.3002 146.8998 145.8002 142.4998 151.2002 137.0998L159.1002 129.2008C160.3002 127.9998 160.4002 125.7998 159.3002 124.5998 158.7002 123.8998 157.9002 123.4998 156.9992 123.4998 156.2002 123.4998 155.4992 123.7008 154.9002 124.2008L150.1002 128.9998 148.7002 127.5998 153.2002 123.0998C153.3002 122.9998 153.4992 122.7998 153.6002 122.7008L159.8002 116.5998C161.1002 115.2998 161.2002 113.2998 160.1002 112.0998 159.4992 111.3998 158.6002 110.8998 157.7002 110.8998 156.8002 110.8998 155.9002 111.2008 155.2002 111.8998L143.9992 123.0998 142.6002 121.7008 156.4002 107.8998C157.6002 106.7008 157.7002 104.5998 156.7002 103.2998 156.1002 102.5998 155.1002 102.0998 154.2002 102.0998 153.3002 102.0998 152.4002 102.3998 151.8002 102.9998L137.9002 116.8998 136.4992 115.4998 147.9002 104.0998C149.1002 102.8998 149.3002 100.8998 148.4002 99.5998 147.8002 98.7998 146.9992 98.2998 145.9992 98.2008 144.9992 98.0998 144.1002 98.4998 143.4002 99.2008L129.9992 112.2998 124.9002 117.3998 123.4992 115.9998 128.6002 110.8998C129.9002 109.5998 129.9002 107.5998 128.6002 106.2998 127.9992 105.7008 127.2002 105.2998 126.3002 105.2998 125.4002 105.2998 124.6002 105.5998 123.9992 106.2998L119.9992 110.3998C116.4002 113.8998 114.9992 116.8998 114.9992 121.0998L114.3002 129.7998 114.3002 129.8998C114.6002 137.7998 110.8002 139.5998 108.6002 140.0998 108.6002 140.0998 107.4992 140.3998 106.4002 140.7008 105.9002 140.7998 105.3002 140.4998 105.2002 139.9998 105.1002 139.4998 105.4002 138.8998 105.9002 138.7998 106.9002 138.5998 108.1002 138.2008 108.1002 138.2008 111.8002 137.4998 112.4002 133.3998 112.3002 129.9998L112.3002 129.7008 112.9992 120.9998C112.9992 116.2998 114.6002 112.7998 118.6002 108.8998L122.6002 104.7998C123.6002 103.7998 124.9002 103.2008 126.3002 103.2008 127.7002 103.2008 128.9992 103.7008 129.9992 104.7008 130.9002 105.5998 131.4002 106.7008 131.4992 107.7998L141.9002 97.3998C142.9992 96.2998 144.4992 95.7008 146.1002 95.8998 147.6002 95.9998 149.1002 96.7998 149.9992 98.0998 150.6002 98.8998 150.9002 99.7998 150.9992 100.7998 151.9992 100.0998 153.2002 99.7008 154.4002 99.7998 155.9002 99.8998 157.4002 100.5998 158.4002 101.7008 159.9992 103.5998 159.9002 106.7008 158.2002 108.7008 159.6002 108.8998 160.8002 109.4998 161.7002 110.5998 163.4002 112.7008 163.2002 115.8998 161.2002 117.7998L157.6002 121.2998C158.8002 121.4998 159.9992 121.9998 160.8002 122.9998 162.6002 124.9998 162.4992 128.3998 160.4992 130.3998L152.6002 138.2998C146.9992 143.8998 140.3002 148.4998 132.9002 151.7998 132.7002 151.8998 130.2002 153.4998 128.7002 154.3998 118.7002 160.2008 107.4002 163.0998 96.1002 163.0998M48.3004 65.5002C47.9994 65.5002 47.8004 65.3992 47.6004 65.2002 47.6004 65.1002 47.4994 65.1002 47.4994 65.0002 47.4994 64.8992 47.4004 64.8992 47.4004 64.8002 47.4004 64.7002 47.4004 64.7002 47.3004 64.6002L47.3004 64.3992C47.3004 64.1002 47.4004 63.8992 47.6004 63.7002 47.9994 63.3002 48.6994 63.3002 48.9994 63.7002 49.1994 63.8992 49.3004 64.1002 49.3004 64.3992L49.3004 64.6002C49.3004 64.7002 49.3004 64.7002 49.1994 64.8002 49.1994 64.8992 49.1004 64.8992 49.1004 65.0002 49.1004 65.1002 48.9994 65.1002 48.9994 65.2002 48.8004 65.3992 48.6004 65.5002 48.3004 65.5002M54.3004 71.5002C53.9994 71.5002 53.8004 71.3992 53.6004 71.2002 53.4004 71.0002 53.3004 70.8002 53.3004 70.5002 53.3004 70.2002 53.4004 70.0002 53.6004 69.8002 53.9994 69.3992 54.6004 69.3992 54.9994 69.8002 55.1994 70.0002 55.3004 70.2002 55.3004 70.5002 55.3004 70.8002 55.1994 71.0002 54.9994 71.2002 54.8004 71.3992 54.6004 71.5002 54.3004 71.5002M60.3004 77.5002C59.9994 77.5002 59.8004 77.3992 59.6004 77.2002 59.4004 77.0002 59.3004 76.8002 59.3004 76.5002 59.3004 76.3992 59.3004 76.2002 59.4004 76.1002 59.4994 76.0002 59.4994 75.8992 59.6004 75.8002 59.9994 75.3992 60.6994 75.3992 60.9994 75.8002 61.1004 75.8992 61.1994 76.0002 61.1994 76.1002 61.1994 76.2002 61.3004 76.3002 61.3004 76.5002 61.3004 76.8002 61.1994 77.0002 60.9994 77.2002 60.8004 77.3992 60.6004 77.5002 60.3004 77.5002M76.3004 133.5002C76.1994 133.5002 75.9994 133.5002 75.9004 133.3992 75.8004 133.3002 75.6994 133.3002 75.6004 133.2002 75.6004 133.1002 75.4994 133.1002 75.4994 133.0002 75.4994 132.8992 75.4004 132.8992 75.4004 132.8002 75.4004 132.7002 75.4004 132.7002 75.3004 132.6002L75.3004 132.3992C75.3004 132.1002 75.4004 131.8992 75.6004 131.7002 75.6994 131.6002 75.8004 131.5002 75.9004 131.5002 76.1004 131.3992 76.4004 131.3992 76.6994 131.5002 76.8004 131.6002 76.9004 131.6002 76.9994 131.7002 77.1994 131.8992 77.3004 132.1002 77.3004 132.3992L77.3004 132.6002C77.3004 132.7002 77.3004 132.7002 77.1994 132.8002 77.1994 132.8992 77.1004 132.8992 77.1004 133.0002 77.1004 133.1002 76.9994 133.1002 76.9994 133.2002 76.9004 133.3002 76.8004 133.3992 76.6994 133.3992 76.6004 133.3992 76.4004 133.5002 76.3004 133.5002M70.3004 139.5002C69.9994 139.5002 69.8004 139.3992 69.6004 139.2002 69.4994 139.1002 69.4004 139.0002 69.4004 138.8992 69.4004 138.8002 69.3004 138.6002 69.3004 138.5002 69.3004 138.2002 69.4004 138.0002 69.6004 137.8002 69.9994 137.3992 70.6994 137.3992 70.9994 137.8002 71.1994 138.0002 71.3004 138.2002 71.3004 138.5002 71.3004 138.6002 71.3004 138.8002 71.1994 138.8992 71.1004 139.0002 71.1004 139.1002 70.9994 139.2002 70.9004 139.2002 70.9004 139.3002 70.8004 139.3002 70.8004 139.3002 70.6994 139.3992 70.6004 139.3992L70.4004 139.3992C70.4004 139.5002 70.4004 139.5002 70.3004 139.5002M66.3004 145.5002C65.9994 145.5002 65.8004 145.3992 65.6004 145.2002 65.4004 145.0002 65.3004 144.8002 65.3004 144.5002 65.3004 144.2002 65.4004 144.0002 65.6004 143.8002 65.9994 143.3992 66.6004 143.3992 66.9994 143.8002 67.1994 144.0002 67.3004 144.2002 67.3004 144.5002 67.3004 144.8002 67.1994 145.0002 66.9994 145.2002 66.8004 145.3992 66.6004 145.5002 66.3004 145.5002M60.3004 151.5002C59.9994 151.5002 59.8004 151.3992 59.6004 151.2002 59.4004 151.0002 59.3004 150.7002 59.3004 150.5002 59.3004 150.2002 59.4004 150.0002 59.6004 149.8002 59.6994 149.7002 59.8004 149.6002 59.9004 149.6002 60.3004 149.5002 60.6994 149.5002 60.9994 149.8002 61.1994 150.0002 61.3004 150.2002 61.3004 150.5002 61.3004 150.8002 61.1994 151.0002 60.9994 151.2002 60.8004 151.3992 60.6004 151.5002 60.3004 151.5002M42.3004 59.5002C41.9994 59.5002 41.8004 59.3992 41.6004 59.2002 41.6004 59.1002 41.4994 59.1002 41.4994 59.0002 41.4994 58.8992 41.4004 58.8992 41.4004 58.8002 41.4004 58.7002 41.4004 58.7002 41.3004 58.6002L41.3004 58.3992 41.3004 58.2002C41.3004 58.1002 41.3004 58.1002 41.4004 58.0002 41.4004 57.8992 41.4994 57.8992 41.4994 57.8002 41.4994 57.7002 41.6004 57.7002 41.6004 57.6002 41.6994 57.5002 41.8004 57.3992 41.9004 57.3992 42.1004 57.3002 42.4004 57.3002 42.6994 57.3992 42.8004 57.5002 42.9004 57.5002 42.9994 57.6002 42.9994 57.6002 43.1004 57.7002 43.1004 57.8002 43.1004 57.8002 43.1994 57.8992 43.1994 58.0002 43.1994 58.1002 43.1994 58.1002 43.3004 58.2002L43.3004 58.3992 43.3004 58.6002C43.3004 58.7002 43.3004 58.7002 43.1994 58.8002 43.1994 58.8992 43.1004 58.8992 43.1004 59.0002 43.1004 59.1002 42.9994 59.1002 42.9994 59.2002 42.8004 59.3992 42.6004 59.5002 42.3004 59.5002M116.3004 61.5002C115.9994 61.5002 115.8004 61.3992 115.6004 61.2002 115.4004 61.0002 115.3004 60.8002 115.3004 60.5002 115.3004 60.2002 115.4004 60.0002 115.6004 59.8002 115.9994 59.3992 116.6994 59.3992 116.9994 59.8002 117.1994 60.0002 117.3004 60.2002 117.3004 60.5002 117.3004 60.8002 117.1994 61.0002 116.9994 61.2002 116.8004 61.3992 116.6004 61.5002 116.3004 61.5002M122.3004 55.5002C121.9994 55.5002 121.8004 55.3992 121.6004 55.2002 121.4004 55.0002 121.3004 54.8002 121.3004 54.5002 121.3004 54.2002 121.4004 54.0002 121.6004 53.8002 121.9994 53.3992 122.6004 53.3992 122.9994 53.8002 123.1994 54.0002 123.3004 54.2002 123.3004 54.5002 123.3004 54.8002 123.1994 55.0002 122.9994 55.2002 122.8004 55.3992 122.6004 55.5002 122.3004 55.5002M128.3004 49.5002C127.9994 49.5002 127.8004 49.3992 127.6004 49.2002 127.4994 49.1002 127.4004 49.0002 127.4004 48.8992 127.3004 48.8002 127.3004 48.6002 127.3004 48.5002 127.3004 48.2002 127.4004 48.0002 127.6004 47.8002 127.9994 47.3992 128.6994 47.3992 128.9994 47.8002 129.1994 48.0002 129.3004 48.2002 129.3004 48.5002 129.3004 48.6002 129.3004 48.8002 129.1994 48.8992 129.1004 49.0002 129.1004 49.1002 128.9994 49.2002 128.8004 49.3992 128.6004 49.5002 128.3004 49.5002M134.3004 45.5002C133.9994 45.5002 133.8004 45.3992 133.6004 45.2002 133.4004 45.0002 133.3004 44.8002 133.3004 44.5002 133.3004 44.3992 133.3004 44.2002 133.4004 44.1002 133.4994 44.0002 133.4994 43.8992 133.6004 43.8002 133.9004 43.5002 134.3004 43.3992 134.6994 43.6002 134.8004 43.7002 134.9004 43.7002 134.9994 43.8002 135.1994 44.0002 135.3004 44.3002 135.3004 44.5002L135.3004 44.7002C135.3004 44.8002 135.3004 44.8002 135.1994 44.8992 135.1994 45.0002 135.1004 45.0002 135.1004 45.1002 135.1004 45.2002 134.9994 45.2002 134.9994 45.3002 134.9004 45.3992 134.8004 45.5002 134.6994 45.5002L134.3004 45.5002z"/>
    <path fill="#003064" d="M130.3004 117.5002C129.9994 117.5002 129.8004 117.3992 129.6004 117.2002 129.4004 117.0002 129.3004 116.8002 129.3004 116.5002 129.3004 116.2002 129.4004 116.0002 129.6004 115.8002 129.9004 115.5002 130.3004 115.3992 130.6994 115.6002 130.8004 115.7002 130.9004 115.7002 130.9994 115.8002L131.1004 115.8992C131.1004 115.8992 131.1994 116.0002 131.1994 116.1002 131.1994 116.2002 131.1994 116.2002 131.3004 116.3002L131.3004 116.5002 131.3004 116.7002C131.3004 116.8002 131.3004 116.8002 131.1994 116.8992 131.1994 117.0002 131.1004 117.0002 131.1004 117.1002 131.1004 117.2002 130.9994 117.2002 130.9994 117.3002 130.9004 117.3992 130.8004 117.5002 130.6994 117.5002L130.3004 117.5002zM136.3004 123.5002C135.9994 123.5002 135.8004 123.3992 135.6004 123.2002 135.4994 123.1002 135.4004 123.0002 135.4004 122.8992 135.4004 122.8002 135.3004 122.7002 135.3004 122.5002 135.3004 122.3992 135.3004 122.2002 135.4004 122.1002 135.4994 122.0002 135.4994 121.8992 135.6004 121.8002 135.6994 121.7002 135.8004 121.6002 135.9004 121.6002 136.1004 121.5002 136.4004 121.5002 136.6994 121.6002 136.8004 121.7002 136.9004 121.7002 136.9994 121.8002 137.1004 121.8992 137.1994 122.0002 137.1994 122.1002 137.1994 122.2002 137.3004 122.3002 137.3004 122.5002 137.3004 122.6002 137.3004 122.8002 137.1994 122.8992 137.1004 123.0002 137.1004 123.1002 136.9994 123.2002 136.9004 123.3002 136.8004 123.3992 136.6994 123.3992 136.6004 123.3992 136.4004 123.5002 136.3004 123.5002M142.3004 129.5002L142.1004 129.5002 141.9004 129.5002C141.8004 129.5002 141.8004 129.3992 141.6994 129.3992 141.6004 129.3992 141.6004 129.3002 141.4994 129.3002 141.4994 129.2002 141.4004 129.2002 141.4004 129.1002 141.4004 129.0002 141.3004 129.0002 141.3004 128.8992 141.3004 128.8002 141.3004 128.8002 141.1994 128.7002L141.1994 128.5002C141.1994 128.2002 141.3004 128.0002 141.4994 127.8002 141.6004 127.7002 141.6004 127.7002 141.6994 127.7002 141.8004 127.7002 141.8004 127.6002 141.9004 127.6002 141.9994 127.6002 141.9994 127.6002 142.1004 127.5002 142.3004 127.5002 142.4994 127.5002 142.6994 127.6002 142.8004 127.7002 142.9004 127.7002 142.9994 127.8002 143.1994 128.0002 143.3004 128.2002 143.3004 128.5002L143.3004 128.7002C143.3004 128.8002 143.3004 128.8002 143.1994 128.8992 143.1994 129.0002 143.1004 129.0002 143.1004 129.1002 143.1004 129.2002 142.9994 129.2002 142.9994 129.3002 142.9004 129.3992 142.8004 129.5002 142.6994 129.5002L142.3004 129.5002zM148.3004 135.5002C148.1994 135.5002 147.9994 135.5002 147.9004 135.3992 147.8004 135.3992 147.6994 135.3002 147.6004 135.2002 147.6004 135.1002 147.4994 135.1002 147.4994 135.0002 147.4994 134.8992 147.4004 134.8992 147.4004 134.8002 147.4004 134.7002 147.4004 134.7002 147.3004 134.6002L147.3004 134.3992C147.3004 134.3002 147.3004 134.1002 147.4004 134.0002 147.4994 133.8992 147.4994 133.8002 147.6004 133.7002 147.6994 133.6002 147.8004 133.5002 147.9004 133.5002 148.1004 133.3992 148.3004 133.3992 148.4994 133.3992 148.6004 133.3992 148.6004 133.3992 148.6994 133.5002 148.8004 133.5002 148.8004 133.6002 148.9004 133.6002 148.9994 133.6002 148.9994 133.7002 149.1004 133.7002 149.3004 133.8992 149.4004 134.1002 149.4004 134.3992L149.4004 134.6002C149.4004 134.7002 149.4004 134.7002 149.3004 134.8002 149.3004 134.8992 149.1994 134.8992 149.1994 135.0002 149.1994 135.1002 149.1004 135.1002 149.1004 135.2002 148.9994 135.2002 148.9994 135.3002 148.9004 135.3002 148.9004 135.3002 148.8004 135.3992 148.6994 135.3992L148.4994 135.3992C148.4004 135.5002 148.4004 135.5002 148.3004 135.5002M140.3004 91.5002C140.1994 91.5002 139.9994 91.5002 139.9004 91.3992 139.8004 91.3992 139.6994 91.3002 139.6004 91.2002 139.6004 91.1002 139.4994 91.1002 139.4994 91.0002 139.4994 90.8992 139.4004 90.8992 139.4004 90.8002 139.4004 90.7002 139.4004 90.7002 139.3004 90.6002L139.3004 90.3992C139.3004 90.1002 139.4004 89.8992 139.6004 89.7002 139.6994 89.6002 139.8004 89.5002 139.9004 89.5002 140.1004 89.3992 140.4004 89.3992 140.6994 89.5002 140.8004 89.6002 140.9004 89.6002 140.9994 89.7002L141.1004 89.8002C141.1004 89.8002 141.1994 89.8992 141.1994 90.0002 141.1994 90.1002 141.1994 90.1002 141.3004 90.2002L141.3004 90.3992 141.3004 90.6002C141.3004 90.7002 141.3004 90.7002 141.1994 90.8002 141.1994 90.8992 141.1004 90.8992 141.1004 91.0002 141.1004 91.1002 140.9994 91.1002 140.9994 91.2002 140.9004 91.3002 140.8004 91.3992 140.6994 91.3992 140.6004 91.3992 140.4004 91.5002 140.3004 91.5002M161.3004 101.5002C161.1994 101.5002 160.9994 101.5002 160.9004 101.3992 160.8004 101.3992 160.6994 101.3002 160.6004 101.2002 160.6004 101.2002 160.4994 101.1002 160.4994 101.0002 160.4994 100.8992 160.4004 100.8992 160.4004 100.8002 160.4004 100.7002 160.4004 100.7002 160.3004 100.6002L160.3004 100.3992 160.3004 100.2002C160.3004 100.1002 160.3004 100.1002 160.4004 100.0002 160.4004 99.8992 160.4994 99.8992 160.4994 99.8002 160.4994 99.7002 160.6004 99.7002 160.6004 99.7002 160.6994 99.6002 160.8004 99.5002 160.9004 99.5002 161.3004 99.3992 161.6994 99.3992 161.9994 99.7002L162.1004 99.8002C162.1004 99.8002 162.1994 99.8992 162.1994 100.0002 162.1994 100.1002 162.1994 100.1002 162.3004 100.2002L162.3004 100.3992 162.3004 100.6002C162.3004 100.7002 162.3004 100.7002 162.1994 100.8002 162.1994 100.8992 162.1004 100.8992 162.1004 101.0002 162.1004 101.1002 161.9994 101.1002 161.9994 101.2002 161.8004 101.3992 161.6004 101.5002 161.3004 101.5002M102.3004 141.5002C102.1994 141.5002 101.9994 141.5002 101.9004 141.3992 101.8004 141.3992 101.6994 141.3002 101.6004 141.2002L101.4994 141.1002C101.4994 141.1002 101.4004 141.0002 101.4004 140.8992 101.4004 140.8002 101.4004 140.8002 101.3004 140.7002L101.3004 140.5002C101.3004 140.2002 101.4004 140.0002 101.6004 139.8002 101.6994 139.7002 101.8004 139.6002 101.9004 139.6002 102.3004 139.5002 102.6994 139.5002 102.9994 139.8002 103.1994 140.0002 103.3004 140.2002 103.3004 140.5002L103.3004 140.7002C103.3004 140.8002 103.3004 140.8002 103.1994 140.8992 103.1994 141.0002 103.1004 141.0002 103.1004 141.1002 103.1004 141.2002 102.9994 141.2002 102.9994 141.2002 102.8004 141.3992 102.4994 141.5002 102.3004 141.5002M92.3004 162.5002C91.9994 162.5002 91.8004 162.3992 91.6004 162.2002 91.4004 162.0002 91.3004 161.8002 91.3004 161.5002 91.3004 161.3992 91.3004 161.2002 91.4004 161.1002 91.4994 161.0002 91.4994 160.8992 91.6004 160.8002 91.6004 160.8002 91.6994 160.7002 91.8004 160.7002 91.9004 160.7002 91.9004 160.6002 91.9994 160.6002 92.1004 160.6002 92.1004 160.6002 92.1994 160.5002 92.4994 160.3992 92.9004 160.5002 93.1004 160.8002 93.1994 160.8992 93.3004 161.0002 93.3004 161.1002 93.3004 161.2002 93.4004 161.3002 93.4004 161.5002 93.4004 161.8002 93.3004 162.0002 93.1004 162.2002 92.8004 162.3992 92.4994 162.5002 92.3004 162.5002M52.1998 103.5002C52.0998 103.5002 51.8998 103.5002 51.8008 103.3992 51.6998 103.3992 51.5998 103.3002 51.4998 103.2002 51.3998 103.2002 51.3998 103.1002 51.3998 103.0002 51.3998 103.0002 51.3008 102.8992 51.3008 102.8002 51.3008 102.7002 51.3008 102.7002 51.1998 102.6002L51.1998 102.3992C51.1998 102.1002 51.3008 101.8992 51.4998 101.7002 51.8998 101.3002 52.4998 101.3002 52.8998 101.7002 53.0998 101.8992 53.1998 102.1002 53.1998 102.3992L53.1998 102.6002 53.1998 102.8002C53.1998 102.8992 53.0998 102.8992 53.0998 103.0002 53.0998 103.1002 52.9998 103.1002 52.9998 103.2002 52.8998 103.3002 52.8008 103.3992 52.6998 103.3992 52.4998 103.3992 52.3998 103.5002 52.1998 103.5002M30.1998 93.5002C29.8998 93.5002 29.6998 93.3992 29.4998 93.2002 29.3998 93.1002 29.3008 93.0002 29.3008 92.8992 29.1998 92.8002 29.1998 92.7002 29.1998 92.5002 29.1998 92.2002 29.3008 92.0002 29.4998 91.8002L29.5998 91.7002C29.6998 91.7002 29.6998 91.6002 29.8008 91.6002 29.8998 91.6002 29.8998 91.6002 29.9998 91.5002 30.1998 91.5002 30.3998 91.5002 30.5998 91.6002 30.6998 91.7002 30.8008 91.7002 30.8998 91.8002 31.0998 92.0002 31.1998 92.3002 31.1998 92.5002 31.1998 92.6002 31.1998 92.8002 31.0998 92.8992 30.9998 93.0002 30.9998 93.1002 30.8998 93.2002 30.8008 93.3002 30.6998 93.3992 30.5998 93.3992 30.4998 93.3992 30.3998 93.5002 30.1998 93.5002M90.3004 53.3996C90.1994 53.3996 89.9994 53.3996 89.9004 53.2996 89.8004 53.2006 89.6994 53.2006 89.6004 53.0996 89.4994 53.0006 89.4004 52.8996 89.4004 52.7996 89.4004 52.7006 89.3004 52.5996 89.3004 52.3996 89.3004 52.0996 89.4004 51.8996 89.6004 51.7006 89.6994 51.5996 89.8004 51.5006 89.9004 51.5006 90.3004 51.3996 90.6994 51.3996 90.9994 51.7006 91.1004 51.7006 91.1004 51.7996 91.1004 51.8996 91.1004 51.8996 91.1994 52.0006 91.1994 52.0996 91.1994 52.2006 91.1994 52.2006 91.3004 52.2996L91.3004 52.5006C91.3004 52.5996 91.3004 52.7996 91.1994 52.8996 91.1004 53.0006 91.1004 53.0996 90.9994 53.2006 90.8004 53.2996 90.4994 53.3996 90.3004 53.3996M99.3004 31.3996C98.9994 31.3996 98.8004 31.2996 98.6004 31.0996 98.4004 30.8996 98.3004 30.7006 98.3004 30.3996 98.3004 30.2996 98.3004 30.0996 98.4004 30.0006 98.4994 29.8996 98.4994 29.7996 98.6004 29.7006 98.6994 29.5996 98.8004 29.5006 98.9004 29.5006 99.3004 29.3996 99.6994 29.3996 99.9994 29.7006 100.1004 29.7996 100.1994 29.8996 100.1994 30.0006 100.3004 30.0996 100.3004 30.2006 100.3004 30.3996 100.3004 30.7006 100.1994 30.8996 99.9994 31.0996 99.8004 31.2996 99.4994 31.3996 99.3004 31.3996M16.8004 77.5002L16.6004 77.5002C16.1004 77.3992 15.6994 76.8002 15.9004 76.3002 24.6994 40.7002 56.4994 15.0002 92.9994 13.5002 93.6004 13.5002 93.9994 13.8992 93.9994 14.5002 93.9994 15.1002 93.6004 15.5002 92.9994 15.5002 57.3004 16.8992 26.3004 42.1002 17.6004 76.7002 17.6004 77.2002 17.1994 77.5002 16.8004 77.5002M20.4994 79.1002L20.3004 79.1002C19.8004 79.0002 19.4004 78.3992 19.6004 77.8992 27.8004 44.0002 57.8004 19.2002 92.6004 17.6002L93.4004 17.6002C93.9994 17.6002 94.4004 18.0002 94.4004 18.6002 94.4004 19.2002 93.9994 19.6002 93.4004 19.6002L92.6004 19.6002C58.8004 21.2002 29.4994 45.3992 21.4994 78.3992 21.4004 78.8002 20.9994 79.1002 20.4994 79.1002M20.3004 83.5002C20.1994 83.5002 19.9994 83.5002 19.9004 83.3992 19.8004 83.3002 19.6994 83.3002 19.6004 83.2002 19.4004 83.0002 19.3004 82.8002 19.3004 82.5002 19.3004 82.3992 19.3004 82.2002 19.4004 82.1002 19.4994 82.0002 19.4994 81.8992 19.6004 81.8002 19.6994 81.7002 19.8004 81.6002 19.9004 81.6002 20.1004 81.5002 20.4004 81.5002 20.6994 81.6002 20.8004 81.7002 20.9004 81.7002 20.9994 81.8002 21.1004 81.8992 21.1994 82.0002 21.1994 82.1002 21.1994 82.2002 21.3004 82.3002 21.3004 82.5002 21.3004 82.8002 21.1994 83.0002 20.9994 83.2002 20.9004 83.3002 20.8004 83.3992 20.6994 83.3992 20.6004 83.3992 20.4004 83.5002 20.3004 83.5002M16.3004 81.5002C15.9994 81.5002 15.8004 81.3992 15.6004 81.2002 15.4004 81.0002 15.3004 80.8002 15.3004 80.5002 15.3004 80.3992 15.3004 80.2002 15.4004 80.1002 15.4994 80.0002 15.4994 79.8992 15.6004 79.8002 15.9004 79.5002 16.3004 79.3992 16.6994 79.6002 16.8004 79.7002 16.9004 79.7002 16.9994 79.8002 17.1004 79.8992 17.1994 80.0002 17.1994 80.1002 17.1994 80.2002 17.3004 80.3002 17.3004 80.5002 17.3004 80.8002 17.1994 81.0002 16.9994 81.2002 16.9004 81.3002 16.8004 81.3992 16.6994 81.3992 16.6004 81.3992 16.4004 81.5002 16.3004 81.5002"/>
    <path fill="#003064" d="M88.3004 24.5002C87.9994 24.5002 87.6994 24.3992 87.4994 24.2002 87.1004 23.8002 87.1994 23.2002 87.6004 22.8002L94.6994 16.6002 87.6994 11.3002C87.3004 11.0002 87.1994 10.3002 87.4994 9.8992 87.8004 9.5002 88.4994 9.3992 88.9004 9.7002L97.9004 16.3992 88.9994 24.2002C88.8004 24.3992 88.6004 24.5002 88.3004 24.5002M179.3004 94.2004C178.8004 94.2004 178.3004 93.8004 178.3004 93.2004 176.9004 57.5004 151.6994 26.5004 117.1004 17.8004 116.6004 17.7004 116.1994 17.0994 116.4004 16.5994 116.4994 16.0994 117.1004 15.7004 117.6004 15.8994 153.1004 24.8004 178.9004 56.5994 180.3004 93.0994 180.3004 93.7004 179.8004 94.2004 179.3004 94.2004M175.1994 94.5004C174.6004 94.5004 174.1994 94.0994 174.1994 93.5004L174.1994 92.7004C172.6004 58.8994 148.4004 29.5994 115.4004 21.5994 114.9004 21.5004 114.4994 20.8994 114.6994 20.3994 114.8004 19.8994 115.4004 19.5004 115.9004 19.7004 149.8004 27.8994 174.6004 57.8994 176.1994 92.7004L176.1994 93.5004C176.1994 94.0004 175.8004 94.5004 175.1994 94.5004M111.3004 21.5002C111.1994 21.5002 110.9994 21.5002 110.9004 21.3992 110.8004 21.3992 110.6994 21.3002 110.6004 21.2002 110.4004 21.0002 110.3004 20.7002 110.3004 20.5002 110.3004 20.2002 110.4004 20.0002 110.6004 19.8002 110.6994 19.7002 110.8004 19.6002 110.9004 19.6002 111.3004 19.3992 111.6994 19.5002 111.9994 19.8002 112.1994 20.0002 112.3004 20.2002 112.3004 20.5002 112.3004 20.8002 112.1994 21.0002 111.9994 21.2002 111.8004 21.3992 111.6004 21.5002 111.3004 21.5002M113.3004 17.5002C112.9994 17.5002 112.8004 17.3992 112.6004 17.2002 112.4004 17.0002 112.3004 16.8002 112.3004 16.5002 112.3004 16.2002 112.4004 16.0002 112.6004 15.8002 112.6994 15.7002 112.8004 15.6002 112.9004 15.6002 113.3004 15.5002 113.6994 15.5002 113.9994 15.8002 114.1994 16.0002 114.3004 16.2002 114.3004 16.5002 114.3004 16.8002 114.1994 17.0002 113.9994 17.2002 113.8004 17.3992 113.6004 17.5002 113.3004 17.5002"/>
    <path fill="#003064" d="M177.4 98.0998L169.6 89.2008C169.2 88.7998 169.3 88.2008 169.7 87.7998 170.1 87.3998 170.7 87.4998 171.1 87.8998L177.3 94.9998 182.6 87.9998C182.9 87.5998 183.6 87.4998 184 87.7998 184.4 88.0998 184.5 88.7998 184.2 89.2008L177.4 98.0998zM100.3004 176.3996C99.6994 176.3996 99.3004 176.0006 99.3004 175.3996 99.3004 174.7996 99.6994 174.3996 100.3004 174.3996L101.1004 174.3996C134.9004 172.7996 164.1994 148.5996 172.1994 115.5996 172.3004 115.0996 172.9004 114.7006 173.4004 114.8996 173.9004 115.0006 174.3004 115.5996 174.1004 116.0996 165.9004 150.0006 135.9004 174.7996 101.1004 176.3996L100.3004 176.3996zM100.6004 180.3996C100.1004 180.3996 99.6004 180.0006 99.6004 179.3996 99.6004 178.7996 99.9994 178.3996 100.6004 178.3996 136.3004 177.0006 167.3004 151.7996 175.9994 117.2006 176.1004 116.7006 176.6994 116.2996 177.1994 116.5006 177.6994 116.5996 178.1004 117.2006 177.9004 117.7006 168.9004 153.2006 137.1994 179.0006 100.6004 180.3996L100.6004 180.3996zM173.3004 112.5002C172.9994 112.5002 172.8004 112.3992 172.6004 112.2002 172.4004 112.0002 172.3004 111.8002 172.3004 111.5002 172.3004 111.3992 172.3004 111.2002 172.4004 111.1002 172.4994 111.0002 172.4994 110.8992 172.6004 110.8002 172.9994 110.3992 173.6994 110.3992 173.9994 110.8002 174.1004 110.8992 174.1994 111.0002 174.1994 111.1002 174.1994 111.2002 174.3004 111.3002 174.3004 111.5002 174.3004 111.8002 174.1994 112.0002 173.9994 112.2002 173.9004 112.2002 173.9004 112.3002 173.8004 112.3002 173.8004 112.3002 173.6994 112.3992 173.6004 112.3992L173.4004 112.3992C173.4004 112.5002 173.4004 112.5002 173.3004 112.5002M177.3004 114.5002C176.9994 114.5002 176.8004 114.3992 176.6004 114.2002 176.4004 114.0002 176.3004 113.8002 176.3004 113.5002 176.3004 113.2002 176.4004 113.0002 176.6004 112.8002 176.9994 112.3992 177.6994 112.3992 177.9994 112.8002 178.1994 113.0002 178.3004 113.2002 178.3004 113.5002 178.3004 113.8002 178.1994 114.0002 177.9994 114.2002 177.8004 114.3992 177.6004 114.5002 177.3004 114.5002"/>
    <path fill="#003064" d="M105.3004 184.5002C105.1004 184.5002 104.9004 184.3992 104.6994 184.3002L95.6994 177.6002 104.6004 169.8002C104.9994 169.3992 105.6004 169.5002 105.9994 169.8992 106.4004 170.3002 106.3004 170.8992 105.9004 171.3002L98.8004 177.5002 105.8004 182.8002C106.1994 183.1002 106.3004 183.8002 105.9994 184.2002 105.9004 184.3002 105.6004 184.5002 105.3004 184.5002M77.9996 174.3L77.8006 174.3C43.8996 166.1 19.1006 136.1 17.4996 101.3L17.4996 100.5C17.4996 99.9 17.8996 99.5 18.4996 99.5 19.1006 99.5 19.4996 99.9 19.4996 100.5L19.4996 101.3C21.1006 135.1 45.3006 164.4 78.3006 172.4 78.8006 172.5 79.1996 173.1 78.9996 173.6 78.8006 174 78.3996 174.3 77.9996 174.3M76.3006 178.1L76.1006 178.1C40.6006 169.2 14.8006 137.4 13.3996 100.9 13.3996 100.3 13.8006 99.9 14.3996 99.9 14.8996 99.9 15.3996 100.3 15.3996 100.9 16.8006 136.6 41.9996 167.6 76.6006 176.3 77.1006 176.4 77.4996 177 77.3006 177.5 77.1996 177.8 76.8006 178.1 76.3006 178.1M82.3004 174.5002C81.9994 174.5002 81.8004 174.3992 81.6004 174.2002 81.4004 174.0002 81.3004 173.8002 81.3004 173.5002L81.3004 173.3002C81.3004 173.2002 81.3004 173.2002 81.4004 173.1002 81.4004 173.0002 81.4994 173.0002 81.4994 172.8992 81.4994 172.8002 81.6004 172.8002 81.6004 172.8002 81.6004 172.8002 81.6994 172.7002 81.8004 172.7002 81.8004 172.7002 81.9004 172.6002 81.9994 172.6002 82.1004 172.6002 82.1004 172.6002 82.1994 172.5002 82.4994 172.3992 82.9004 172.5002 83.1004 172.8002 83.3004 173.0002 83.4004 173.2002 83.4004 173.5002 83.4004 173.8002 83.3004 174.0002 83.1004 174.2002 82.8004 174.3992 82.6004 174.5002 82.3004 174.5002M80.3004 178.5002C79.9994 178.5002 79.8004 178.3992 79.6004 178.2002 79.4004 178.0002 79.3004 177.8002 79.3004 177.5002 79.3004 177.2002 79.4004 177.0002 79.6004 176.8002 79.9994 176.3992 80.6004 176.3992 80.9994 176.8002 81.1994 177.0002 81.3004 177.2002 81.3004 177.5002 81.3004 177.8002 81.1994 178.0002 80.9994 178.2002 80.8004 178.3992 80.6004 178.5002 80.3004 178.5002"/>
    <path fill="#003064" d="M10.3004 106.5002C10.1004 106.5002 9.9004 106.3992 9.6994 106.3002 9.3004 106.0002 9.1994 105.3002 9.4994 104.8992L16.1994 95.8992 23.9994 104.8002C24.4004 105.2002 24.3004 105.8002 23.9004 106.2002 23.4994 106.6002 22.9004 106.5002 22.4994 106.1002L16.3004 99.0002 10.9994 106.0002C10.9004 106.3992 10.6004 106.5002 10.3004 106.5002M88.9996 114.3L91.8996 115.2 92.3996 113.5C92.9996 111.8 94.4996 110.6 96.3006 110.6 98.1006 110.6 99.6996 111.7 100.1996 113.5L100.6996 115.2 103.6006 114.3 103.1006 112.6C102.4996 110.9 103.1006 109.1 104.6006 108 106.1006 106.9 107.9996 106.9 109.4996 108L110.8996 109 112.6996 106.6 111.3006 105.6C109.8006 104.5 109.1996 102.7 109.8006 101 110.3996 99.3 111.8996 98.1 113.6996 98.1L115.3996 98.1 115.3996 95.1 113.6996 95.1C111.8996 95.1 110.3006 94 109.8006 92.2 109.1996 90.5 109.8006 88.7 111.3006 87.6L112.6996 86.6 110.9996 84.2 109.6006 85.2C108.1006 86.3 106.1996 86.3 104.6996 85.2 103.1996 84.1 102.6006 82.3 103.1996 80.6L103.6996 78.9 100.8006 78 100.3006 79.7C99.6996 81.4 98.1996 82.6 96.3996 82.6 94.6006 82.6 92.9996 81.5 92.4996 79.7L91.9996 78 89.1006 79 89.6006 80.7C90.1996 82.4 89.6006 84.2 88.1006 85.3 86.6006 86.4 84.6996 86.4 83.1996 85.3L81.8006 84.3 79.9996 86.7 81.3996 87.7C82.8996 88.8 83.4996 90.6 82.8996 92.3 82.3006 94 80.8006 95.2 78.9996 95.2L77.3006 95.2 77.3006 98.2 78.9996 98.2C80.8006 98.2 82.3996 99.3 82.8996 101.1 83.4996 102.8 82.8996 104.6 81.3996 105.7L79.9996 106.7 81.6996 109.1 83.1006 108.1C84.6006 107 86.4996 107 87.9996 108.1 89.4996 109.2 90.1006 111 89.4996 112.7L88.9996 114.3zM93.1996 117.7L86.4996 115.5 87.6996 111.9C88.1006 110.8 87.4996 110 86.8996 109.5 86.3006 109.1 85.3006 108.8 84.3996 109.5L81.3996 111.7 77.3006 106.1 80.3006 103.9C81.1996 103.2 81.3006 102.2 81.1006 101.5 80.8996 100.8 80.1996 100 79.1006 100L75.3996 100 75.3996 93 79.1006 93C80.1996 93 80.8996 92.2 81.1006 91.5 81.3006 90.8 81.1996 89.8 80.3006 89.1L77.3006 86.9 81.3996 81.2 84.3996 83.4C85.3006 84.1 86.3006 83.8 86.8996 83.4 87.4996 83 87.9996 82.1 87.6996 81L86.4996 77.4 93.1996 75.2 94.3996 78.8C94.8006 79.9 95.6996 80.3 96.3996 80.3 97.1006 80.3 98.1006 79.9 98.3996 78.8L99.6006 75.2 106.3006 77.4 105.1006 81C104.6996 82.1 105.3006 82.9 105.8996 83.4 106.4996 83.8 107.4996 84.1 108.3996 83.4L111.3996 81.2 115.4996 86.8 112.4996 89C111.6006 89.7 111.4996 90.7 111.6996 91.4 111.8996 92.1 112.6006 92.9 113.6996 92.9L117.3996 92.9 117.3996 99.9 113.6996 99.9C112.6006 99.9 111.8996 100.7 111.6996 101.4 111.4996 102.1 111.6006 103.1 112.4996 103.8L115.4996 106 111.3996 111.7 108.3996 109.5C107.4996 108.8 106.4996 109.1 105.8996 109.5 105.3006 109.9 104.8006 110.8 105.1006 111.9L106.3006 115.5 99.6006 117.7 98.3996 114.1C97.9996 113 97.1006 112.6 96.3996 112.6 95.6996 112.6 94.6996 113 94.3996 114.1L93.1996 117.7z"/>
    <path fill="#007BFF" d="M96.4,94.5998 C95.8,94.5998 95.2,94.8998 94.8,95.3998 C94.2,96.2998 94.4,97.4998 95.2,98.2008 C96.1,98.7998 97.3,98.5998 98,97.7998 C98.6,96.8998 98.4,95.7008 97.6,94.9998 C97.2,94.7998 96.8,94.5998 96.4,94.5998 M96.4,100.5998 C95.6,100.5998 94.8,100.3998 94.1,99.7998 C92.3,98.4998 91.9,95.9998 93.2,94.2008 C94.5,92.3998 97,91.9998 98.8,93.2998 C100.6,94.5998 101,97.0998 99.7,98.8998 C98.8,100.0998 97.6,100.5998 96.4,100.5998"/>
    <path fill="#003064" d="M94.4996 85.2004C94.4996 84.5994 94.8996 84.2004 95.3996 84.0994 95.8996 84.0994 96.3996 84.5004 96.4996 85.0004 96.4996 85.5994 96.1006 86.0004 95.6006 86.0994L95.4996 86.0994C94.9996 86.0994 94.4996 85.7004 94.4996 85.2004L94.4996 85.2004zM99.1996 86.5004C98.6996 86.3994 98.3006 85.8004 98.4996 85.3004 98.6006 84.8004 99.1996 84.5004 99.6996 84.5994 100.1996 84.7004 100.4996 85.3004 100.3996 85.8004 100.3006 86.2004 99.8996 86.5004 99.3996 86.5004L99.1996 86.5004zM90.6996 86.5004C90.4996 86.0004 90.6996 85.3994 91.1996 85.2004 91.6996 85.0004 92.3006 85.2004 92.4996 85.7004 92.6996 86.2004 92.4996 86.8004 91.9996 87.0004 91.8996 87.0994 91.6996 87.0994 91.6006 87.0994 91.1996 87.0994 90.8996 86.8994 90.6996 86.5004L90.6996 86.5004zM102.6006 88.0994C102.4996 88.0994 102.4996 88.0994 102.6006 88.0994 102.1006 87.7004 101.9996 87.0994 102.3006 86.7004 102.6006 86.2004 103.3006 86.2004 103.6996 86.5004 104.1006 86.8004 104.1996 87.3994 103.8996 87.8994 103.6996 88.2004 103.3996 88.3004 103.1006 88.3004 102.8996 88.3004 102.6996 88.2004 102.6006 88.0994L102.6006 88.0994zM87.6006 89.0004C87.1996 88.5994 87.1996 88.0004 87.6006 87.5994 87.9996 87.2004 88.6006 87.2004 88.9996 87.5994 89.3996 88.0004 89.3996 88.5994 88.9996 89.0004 88.8006 89.2004 88.4996 89.3004 88.3006 89.3004 87.9996 89.3004 87.8006 89.2004 87.6006 89.0004L87.6006 89.0004zM105.1006 90.7004L105.1006 90.7004C104.8006 90.2004 104.8996 89.5994 105.3996 89.3004 105.8996 89.0004 106.4996 89.0994 106.8006 89.5994 107.1006 90.0994 106.9996 90.7004 106.4996 91.0004 106.3006 91.0994 106.1006 91.2004 105.8996 91.2004 105.6006 91.2004 105.3006 91.0004 105.1006 90.7004L105.1006 90.7004zM85.4996 92.5004C84.9996 92.3004 84.8006 91.7004 84.9996 91.2004 85.1996 90.7004 85.8006 90.5004 86.3006 90.7004 86.8006 90.8994 86.9996 91.5004 86.8006 92.0004 86.6006 92.3994 86.3006 92.5994 85.8996 92.5994 85.8006 92.5994 85.6006 92.5994 85.4996 92.5004L85.4996 92.5004zM106.6006 94.0994C106.4996 93.5994 106.8006 93.0004 107.3006 92.8994 107.8006 92.8004 108.3996 93.0994 108.4996 93.5994 108.6006 94.0994 108.3006 94.7004 107.8006 94.8004L107.6006 94.8004C107.1006 94.8004 106.6996 94.5004 106.6006 94.0994L106.6006 94.0994zM84.6996 96.5004C84.1006 96.3994 83.6996 96.0004 83.8006 95.3994 83.8006 94.8994 84.3006 94.3994 84.8996 94.5004 85.4996 94.5994 85.8996 95.0004 85.8006 95.5994 85.8006 96.0994 85.3006 96.5004 84.6996 96.5004 84.8006 96.5004 84.8006 96.5004 84.6996 96.5004L84.6996 96.5004zM107.8006 98.8004C107.1996 98.7004 106.8006 98.3004 106.8996 97.7004 106.9996 97.2004 107.4996 96.8004 107.9996 96.8004 108.6006 96.8994 108.9996 97.3994 108.8996 97.8994 108.8006 98.3994 108.3996 98.8004 107.8006 98.8004L107.8006 98.8004zM84.1996 99.7004C84.1006 99.2004 84.3996 98.5994 84.8996 98.5004 85.3996 98.3994 85.9996 98.7004 86.1006 99.2004 86.1996 99.7004 85.8996 100.3004 85.3996 100.3994L85.1996 100.3994C84.6996 100.5004 84.3006 100.2004 84.1996 99.7004L84.1996 99.7004zM106.3006 102.5994C105.8006 102.3994 105.6006 101.8004 105.8006 101.3004 105.9996 100.8004 106.6006 100.5994 107.1006 100.8004 107.6006 101.0004 107.8006 101.5994 107.6006 102.0994 107.3996 102.5004 107.1006 102.7004 106.6996 102.7004 106.6006 102.7004 106.4996 102.7004 106.3006 102.5994L106.3006 102.5994zM85.8996 103.7004L85.8996 103.7004C85.6006 103.2004 85.6996 102.5994 86.1996 102.3004 86.6006 102.0004 87.3006 102.0994 87.6006 102.5994 87.8996 103.0994 87.8006 103.7004 87.3006 104.0004 87.1006 104.0994 86.8996 104.2004 86.6996 104.2004 86.4996 104.0994 86.1006 104.0004 85.8996 103.7004L85.8996 103.7004zM103.6996 105.7004C103.3006 105.3004 103.3006 104.7004 103.6996 104.3004 104.1006 103.8994 104.6996 103.8994 105.1006 104.3004 105.4996 104.7004 105.4996 105.3004 105.1006 105.7004 104.8996 105.8994 104.6006 106.0004 104.3996 106.0004 104.1996 106.0004 103.8996 105.8994 103.6996 105.7004L103.6996 105.7004zM88.9996 106.8004L88.9996 106.8004C88.6006 106.5004 88.4996 105.8994 88.8006 105.3994 89.1006 105.0004 89.8006 104.8994 90.1996 105.2004 90.6006 105.5004 90.8006 106.2004 90.3996 106.5994 90.1996 106.8994 89.8996 107.0004 89.6006 107.0004 89.3996 107.0004 89.1996 107.0004 88.9996 106.8004L88.9996 106.8004zM100.1996 107.5994C99.9996 107.0994 100.1996 106.5004 100.6996 106.3004 101.1996 106.0994 101.8006 106.3004 101.9996 106.8004 102.1996 107.3004 101.9996 107.8994 101.4996 108.0994 101.3996 108.2004 101.1996 108.2004 101.1006 108.2004 100.6996 108.2004 100.3006 108.0004 100.1996 107.5994L100.1996 107.5994zM92.8996 108.7004C92.3996 108.5994 92.1006 108.0004 92.1996 107.5004 92.3006 107.0004 92.8996 106.7004 93.3996 106.8004 93.8996 106.8994 94.1996 107.5004 94.1006 108.0004 93.9996 108.3994 93.6006 108.7004 93.1006 108.7004 93.1006 108.8004 92.9996 108.8004 92.8996 108.7004L92.8996 108.7004zM96.1996 108.3004C96.1996 107.7004 96.6006 107.3004 97.1006 107.2004 97.6996 107.2004 98.1006 107.5994 98.1996 108.0994 98.1996 108.5994 97.8006 109.0994 97.3006 109.2004L97.1996 109.2004C96.6996 109.2004 96.1996 108.8004 96.1996 108.3004L96.1996 108.3004zM91.6998 103.0998C88.0998 100.4998 87.3008 95.4998 89.8998 91.8998 92.4998 88.2998 97.4998 87.4998 101.0998 90.0998L99.8998 91.7008C97.1998 89.7998 93.4998 90.3998 91.4998 92.9998 89.5998 95.7008 90.1998 99.3998 92.8008 101.3998L91.6998 103.0998z"/>
    <mask id="b" fill="white">
      <use xlink:href="#a"/>
    </mask>
    <polygon fill="#003064" points="6.4 38.5 8.4 38.5 8.4 34.5 6.4 34.5" mask="url(#b)"/>
    <polygon fill="#003064" points="6.4 48.5 8.4 48.5 8.4 44.5 6.4 44.5" mask="url(#b)"/>
    <polygon fill="#003064" points="10.4 42.5 14.4 42.5 14.4 40.5 10.4 40.5" mask="url(#b)"/>
    <polygon fill="#003064" points=".4 42.5 4.4 42.5 4.4 40.5 .4 40.5" mask="url(#b)"/>
    <polygon fill="#003064" points="184.5 134.5 186.5 134.5 186.5 130.5 184.5 130.5" mask="url(#b)"/>
    <polygon fill="#003064" points="184.5 144.5 186.5 144.5 186.5 140.5 184.5 140.5" mask="url(#b)"/>
    <polygon fill="#003064" points="188.5 138.5 192.5 138.5 192.5 136.5 188.5 136.5" mask="url(#b)"/>
    <polygon fill="#003064" points="178.5 138.5 182.5 138.5 182.5 136.5 178.5 136.5" mask="url(#b)"/>
    <polygon fill="#003064" points="63.4 182.6 65.4 182.6 65.4 178.6 63.4 178.6" mask="url(#b)"/>
    <polygon fill="#003064" points="63.4 192.6 65.4 192.6 65.4 188.6 63.4 188.6" mask="url(#b)"/>
    <polygon fill="#003064" points="67.4 186.6 71.4 186.6 71.4 184.6 67.4 184.6" mask="url(#b)"/>
    <polygon fill="#003064" points="57.4 186.6 61.4 186.6 61.4 184.6 57.4 184.6" mask="url(#b)"/>
    <polygon fill="#003064" points="132.5 4.4 134.5 4.4 134.5 .4 132.5 .4" mask="url(#b)"/>
    <polygon fill="#003064" points="132.5 14.4 134.5 14.4 134.5 10.4 132.5 10.4" mask="url(#b)"/>
    <polygon fill="#003064" points="136.5 8.4 140.5 8.4 140.5 6.4 136.5 6.4" mask="url(#b)"/>
    <polygon fill="#003064" points="126.5 8.4 130.5 8.4 130.5 6.4 126.5 6.4" mask="url(#b)"/>
    <path fill="#003064" d="M163.9,160.3 C158,160.3 153.2,165.1 153.2,171 C153.2,176.9 158,181.7 163.9,181.7 C169.8,181.7 174.6,176.9 174.6,171 C174.6,165.1 169.8,160.3 163.9,160.3 M163.9,183.8 C156.9,183.8 151.2,178.1 151.2,171.1 C151.2,164.1 156.9,158.4 163.9,158.4 C170.9,158.4 176.6,164.1 176.6,171.1 C176.6,178.1 170.9,183.8 163.9,183.8" mask="url(#b)"/>
    <path fill="#003064" d="M163.9,160.3 C161,160.3 158.6,165.2 158.6,171 C158.6,176.8 161,181.7 163.9,181.7 C166.8,181.7 169.2,176.8 169.2,171 C169.2,165.2 166.7,160.3 163.9,160.3 M163.9,183.8 C159.8,183.8 156.6,178.2 156.6,171.1 C156.6,164 159.8,158.4 163.9,158.4 C168,158.4 171.2,164 171.2,171.1 C171.2,178.2 168,183.8 163.9,183.8" mask="url(#b)"/>
    <polygon fill="#003064" points="152.1 172 175.6 172 175.6 170 152.1 170" mask="url(#b)"/>
    <path fill="#FFD15D" d="M16.1998 164.3996C18.4088 164.3996 20.1998 166.1906 20.1998 168.3996 20.1998 170.6096 18.4088 172.3996 16.1998 172.3996 13.9908 172.3996 12.1998 170.6096 12.1998 168.3996 12.1998 166.1906 13.9908 164.3996 16.1998 164.3996M162.3004 23.8C163.4044 23.8 164.3004 24.696 164.3004 25.8 164.3004 26.904 163.4044 27.8 162.3004 27.8 161.1964 27.8 160.3004 26.904 160.3004 25.8 160.3004 24.696 161.1964 23.8 162.3004 23.8M183.3004 157.8C185.3434 157.8 186.9994 159.456 186.9994 161.5 186.9994 163.543 185.3434 165.2 183.3004 165.2 181.2564 165.2 179.6004 163.543 179.6004 161.5 179.6004 159.456 181.2564 157.8 183.3004 157.8" mask="url(#b)"/>
  </g>
</svg>
