<svg xmlns="http://www.w3.org/2000/svg" width="50" height="47" viewBox="0 0 50 47">
  <path fill="#0593FC" fill-opacity=".16" fill-rule="evenodd" d="M251.5381,17.477978 C253.278466,13.1966753 255.434293,9.53488341 258.005644,6.49249249 C260.576996,3.45010157 263.116952,1.28595905 265.625588,0 L265.719661,0 L270,3.66966967 L270,5.5045045 C268.369387,7.13547696 266.872067,9.33098386 265.507996,12.0910911 C264.143925,14.8511983 263.4619,18.2228696 263.4619,22.2062062 C263.4619,24.2135569 263.728439,25.8366638 264.261524,27.0755756 C264.794609,28.3144873 265.578546,29.6396326 266.613358,31.0510511 C267.585455,32.368375 268.314516,33.5602216 268.800564,34.6266266 C269.286613,35.6930317 269.529633,37.0730646 269.529633,38.7667668 C269.529633,40.2722798 269.153343,41.6601538 268.400753,42.9304304 C267.648162,44.2007071 266.621204,45.1965263 265.319849,45.9179179 C264.018495,46.6393096 262.568211,47 260.968956,47 L260.921919,47 C258.601431,47 256.531837,46.2550959 254.713076,44.7652653 C252.894315,43.2754347 251.475389,41.3073195 250.456256,38.8608609 C249.437123,36.4144022 248.927563,33.8111583 248.927563,31.0510511 C248.927563,26.2835931 249.797734,21.7592807 251.5381,17.477978 Z M222.610536,17.477978 C224.350902,13.1966753 226.506729,9.53488341 229.078081,6.49249249 C231.649433,3.45010157 234.189389,1.28595905 236.698024,0 L236.792098,0 L241.072437,3.66966967 L241.072437,5.5045045 C239.441823,7.13547696 237.944504,9.33098386 236.580433,12.0910911 C235.216362,14.8511983 234.534337,18.2228696 234.534337,22.2062062 C234.534337,24.2135569 234.800875,25.8366638 235.33396,27.0755756 C235.867046,28.3144873 236.650983,29.6396326 237.685795,31.0510511 C238.657891,32.368375 239.386953,33.5602216 239.873001,34.6266266 C240.359049,35.6930317 240.60207,37.0730646 240.60207,38.7667668 C240.60207,40.2722798 240.22578,41.6601538 239.473189,42.9304304 C238.720598,44.2007071 237.693641,45.1965263 236.392286,45.9179179 C235.090931,46.6393096 233.640648,47 232.041392,47 L231.994356,47 C229.673867,47 227.604274,46.2550959 225.785513,44.7652653 C223.966752,43.2754347 222.547826,41.3073195 221.528692,38.8608609 C220.509559,36.4144022 220,33.8111583 220,31.0510511 C220,26.2835931 220.87017,21.7592807 222.610536,17.477978 Z" transform="translate(-220)"/>
</svg>
