<svg xmlns="http://www.w3.org/2000/svg" xmlns:xlink="http://www.w3.org/1999/xlink" width="193" height="183" viewBox="0 0 193 183">
  <defs>
    <polygon id="a" points="0 193 193 193 193 0 0 0"/>
  </defs>
  <g fill="none" fill-rule="evenodd" transform="translate(0 -5)">
    <path fill="#EBEFF3" d="M86.2998 33.4002C85.9998 34.4002 85.5998 35.2992 85.3998 36.2002 83.9998 40.6002 82.8998 45.1002 81.9998 49.7002 79.7998 61.2992 78.1998 76.6002 76.9998 95.2992L84.4998 95.2992C84.9998 84.1002 85.5998 74.1002 86.2998 65.2992 86.4998 63.0002 86.6998 60.7992 86.8998 58.6002 87.1998 55.4002 87.4998 52.4002 87.8998 49.6002 88.4998 45.0002 89.1998 40.5002 90.1998 36.1002 90.3998 35.2002 90.5998 34.2002 90.7998 33.2992L86.2998 33.2992 86.2998 33.4002zM106.5 60.2996C106.7 61.1006 106.9 61.9996 106.9 62.9006 106.9 68.6996 102.2 73.4006 96.5 73.4006 93.8 73.4006 91.3 72.2996 89.4 70.6006 90.6 75.1006 94.7 78.4006 99.5 78.4006 105.3 78.4006 109.9 73.6996 109.9 67.9006 109.9 64.9006 108.6 62.1996 106.5 60.2996"/>
    <path fill="#007BFF" d="M60.7002 142.6004C62.6002 138.9994 65.6002 134.7004 69.9002 132.4994L70.6002 106.2004C68.4002 109.1004 66.0002 113.1004 64.6002 117.9994 62.3002 125.6004 61.2002 135.9004 60.7002 142.6004M89.2002 26.1004L89.0002 26.4994C88.9002 26.7994 88.8002 27.1004 88.6002 27.4004L104.0992 27.4004C104.0002 27.1004 103.9002 26.7994 103.8002 26.6004L103.5002 25.9994C103.2002 25.4004 103.0002 24.7994 102.7002 24.2994L102.5002 23.9994C102.2002 23.4004 101.9002 22.7004 101.5992 22.1004L101.4002 21.6004C101.0992 21.1004 100.9002 20.6004 100.5992 20.1004L100.4002 19.7994C100.0992 19.2004 99.8002 18.7004 99.5002 18.2004L99.3002 17.9004C99.0992 17.4994 98.8002 16.9994 98.5992 16.6004L98.5002 16.2994C98.2002 15.7994 98.0002 15.4004 97.7002 14.9994L97.5992 14.7994C97.4002 14.4004 97.2002 14.1004 97.0002 13.7994L96.9002 13.6004C96.7002 13.2994 96.5002 12.9994 96.3002 12.7004 96.1002 12.9994 95.9002 13.2994 95.7002 13.6004L95.6002 13.7994C95.4002 14.2004 95.2002 14.4994 94.9002 14.9004L94.8002 15.1004C94.5002 15.4994 94.3002 15.9994 94.0002 16.4994L94.0002 16.4004C93.7002 16.7994 93.5002 17.2994 93.2002 17.7994L93.1002 17.9994C92.8002 18.4994 92.5002 19.1004 92.2002 19.7004L92.1002 19.9004C91.8002 20.4004 91.5002 20.9994 91.3002 21.6004L91.1002 21.9994C90.8002 22.6004 90.5002 23.2994 90.2002 23.9994L87.4002 22.9004 90.1002 24.1004C89.8002 24.7004 89.5002 25.4004 89.2002 26.1004"/>
    <path fill="#EBEFF3" d="M70.1001 61.9002C69.8001 63.9002 70.3001 65.7992 71.5001 67.4002 72.0001 68.0002 72.6001 68.6002 73.2001 69.0002 73.7001 64.2992 74.3001 59.9002 74.9001 55.9002 74.2001 56.1002 73.6001 56.5002 73.0001 56.9002 71.4001 58.2002 70.4001 60.0002 70.1001 61.9002M96.2998 132.4998L96.2998 132.4998C93.2998 132.4998 90.5998 133.8998 88.9998 136.4998L88.4998 137.2998C88.8998 140.6008 89.5998 143.6998 90.3998 146.2998L102.2998 146.2998C103.1998 143.6998 103.7998 140.6008 104.1998 137.1998L103.6998 136.3998C101.9998 133.8998 99.4008 132.4998 96.2998 132.4998"/>
    <path fill="#007BFF" d="M128.0996,117.9998 C126.7006,113.1008 124.2996,109.1008 122.0996,106.1998 L122.9006,132.4998 C127.2006,134.6998 130.2006,138.9998 132.0996,142.6008 C131.4996,135.8998 130.4006,125.6998 128.0996,117.9998"/>
    <path fill="#EBEFF3" d="M122.5996,61.7 C122.0996,59 120.2996,56.9 117.7996,55.9 C118.4006,59.9 118.9996,64.3 119.4996,69 C120.2006,68.5 120.7996,67.9 121.2996,67.2 C122.4996,65.7 122.9006,63.7 122.5996,61.7"/>
    <path fill="#007BFF" d="M76.7002,101.4002 L75.8002,134.6002 L75.8002,146.2992 L76.2002,146.2992 C77.5002,143.0002 79.7002,138.4002 82.9002,134.7992 L83.9002,133.2002 C86.6002,129.0002 91.2002,126.5002 96.2002,126.5002 C101.2002,126.5002 105.8002,129.0002 108.5992,133.1002 L109.5992,134.6002 C113.0992,138.2992 115.3002,143.1002 116.5002,146.2002 L116.9002,146.2002 L116.9002,134.5002 L115.9002,101.2992 L76.7002,101.2992 L76.7002,101.4002 Z"/>
    <path fill="#003064" d="M95.7002,8.1004 L96.0002,8.4004 L95.9002,8.2994 L95.7002,8.1004 Z M96.2002,8.6004 L96.3002,8.7004 L96.4002,8.6004 L96.2002,8.6004 Z M132.4002,148.2994 L134.5002,148.2994 L134.5002,147.9004 C134.2002,142.9994 133.3002,127.9004 130.2002,117.4004 C127.0992,106.7994 119.8002,100.2994 118.4002,99.1004 L118.0992,98.7994 L117.9002,94.7004 C117.9002,94.1004 117.8002,93.4004 117.8002,92.7004 L117.7002,91.9004 C116.5002,74.6004 114.9002,60.2004 112.9002,49.2994 C112.0002,44.7004 110.9002,39.9994 109.5002,35.6004 L110.4002,35.2004 L109.4002,35.4004 C108.9002,33.7994 108.4002,32.2994 107.8002,30.6004 L107.5992,30.1004 C107.4002,29.4994 107.0992,28.7994 106.9002,28.2004 L106.8002,27.7994 C106.5002,26.9994 106.2002,26.2994 105.9002,25.6004 L105.5992,24.9004 C105.3002,24.2994 105.0992,23.7004 104.8002,23.1004 L104.5992,22.7004 C104.3002,21.9994 104.0002,21.4004 103.7002,20.7994 L103.5002,20.2994 C103.2002,19.7994 103.0002,19.2994 102.7002,18.7994 L102.5002,18.4994 C102.2002,17.9004 101.9002,17.4004 101.5992,16.7994 L101.4002,16.4004 C101.2002,15.9004 100.9002,15.4994 100.7002,15.1004 L100.5002,14.7994 C100.2002,14.2994 100.0002,13.9004 99.7002,13.4004 L99.5002,13.2004 C99.3002,12.7994 99.0992,12.4994 98.9002,12.1004 L98.8002,11.9004 C98.5992,11.4994 98.3002,11.2004 98.0992,10.7994 L98.8002,10.1004 L98.0002,10.6004 C97.8002,10.2994 97.5992,9.9994 97.5002,9.7994 L97.4002,9.6004 C97.2002,9.2994 97.0002,9.1004 96.9002,8.9004 L96.6002,8.4994 L96.3002,8.9004 C96.1002,9.2004 95.9002,9.4004 95.7002,9.7004 L95.6002,9.9004 C95.4002,10.2004 95.2002,10.4004 95.0002,10.7004 L94.1002,10.2994 L94.9002,10.7994 C94.7002,11.1004 94.4002,11.4994 94.2002,11.9004 L94.0002,12.4994 C93.8002,12.9004 93.5002,13.2004 93.3002,13.6004 L93.2002,13.7994 C92.9002,14.2994 92.6002,14.7004 92.4002,15.2004 L92.3002,15.2994 C92.0002,15.7994 91.7002,16.2994 91.5002,16.7994 L91.4002,17.1004 C91.1002,17.7004 90.8002,18.2004 90.5002,18.7994 L90.4002,18.9004 L89.5002,20.7004 L89.3002,21.1004 C89.0002,21.7994 88.7002,22.4004 88.3002,23.1004 L87.3002,22.7994 L88.2002,23.2004 C87.9002,23.9004 87.6002,24.4994 87.3002,25.2004 L87.1002,25.7004 C86.8002,26.4994 86.5002,27.2004 86.1002,27.9994 C85.8002,28.7994 85.5002,29.6004 85.2002,30.4004 L85.1002,30.7004 C84.5002,32.4004 83.9002,33.9994 83.4002,35.6004 C82.0002,40.1004 80.8002,44.7004 80.0002,49.2994 C77.7002,61.6004 76.0002,78.1004 74.8002,98.2994 L74.8002,98.7004 L74.5002,98.9994 C73.1002,100.2004 65.8002,106.7004 62.7002,117.2994 C59.6002,127.7994 58.7002,142.7994 58.4002,147.7994 L58.4002,148.2004 L60.5002,148.2004 C61.5002,145.4994 65.3002,135.9004 72.7002,133.4994 L74.0002,133.1004 L74.0002,148.2994 L77.8002,148.2994 C79.0002,144.9994 81.2002,139.7004 84.8002,135.9004 L86.3002,134.2994 L86.5002,136.4004 C87.0002,140.7994 87.9002,144.9004 89.1002,148.2004 L103.8002,148.2004 C105.0002,144.9004 105.9002,140.7994 106.4002,136.2994 L106.5992,134.2004 L108.0992,135.7994 C112.0002,139.9004 114.4002,145.7994 115.2002,148.2994 L119.0002,148.2994 L119.0002,133.1004 L120.3002,133.4994 C127.5992,135.9994 131.4002,145.6004 132.4002,148.2994 L132.4002,148.2994 Z M113.8002,150.2994 L113.5002,149.4994 C113.0002,147.9004 111.2002,142.9004 108.0002,138.7994 C107.4002,142.7994 106.5002,146.4994 105.3002,149.6004 L105.0992,150.2004 L87.6002,150.2004 L87.4002,149.6004 C86.2002,146.6004 85.3002,142.9004 84.7002,138.9004 C81.9002,142.4994 80.2002,146.9004 79.3002,149.4004 C79.1002,149.9994 78.6002,150.2004 78.2002,150.2004 L77.5002,150.2004 L71.8002,150.2004 L71.8002,135.9994 C65.2002,139.2994 62.0002,149.4994 62.0002,149.6004 L61.8002,150.2994 L56.1002,150.2994 L56.2002,149.2004 C56.2002,148.9994 56.3002,148.4994 56.3002,147.7994 C56.6002,142.7994 57.6002,127.6004 60.7002,116.9004 C63.8002,106.4004 70.8002,99.7004 72.8002,97.9004 C74.0002,77.7994 75.8002,61.4004 78.1002,48.9994 C79.0002,44.2994 80.1002,39.6004 81.6002,35.1004 C82.0002,33.9004 82.4002,32.6004 82.8002,31.4004 L83.4002,29.7994 C83.7002,28.9994 84.0002,28.1004 84.3002,27.4004 C84.6002,26.6004 85.0002,25.7994 85.3002,24.9994 L85.5002,24.4994 C85.8002,23.7994 86.1002,23.1004 86.4002,22.4004 L86.5002,22.2994 C86.8002,21.6004 87.2002,20.9004 87.5002,20.2004 L87.7002,19.7994 L88.6002,17.9994 L88.7002,17.7994 L89.6002,15.9994 L89.7002,15.7004 C90.0002,15.2004 90.2002,14.7004 90.5002,14.2994 L90.6002,14.1004 C90.9002,13.6004 91.2002,13.1004 91.5002,12.6004 L91.6002,12.4004 C91.9002,11.9994 92.1002,11.6004 92.3002,11.2004 L92.4002,10.9994 C92.7002,10.6004 92.9002,10.2004 93.1002,9.9004 L93.2002,9.7994 C93.4002,9.4994 93.6002,9.2004 93.8002,8.9004 L93.9002,8.9994 C94.1002,8.7004 94.3002,8.4994 94.4002,8.2004 L96.2002,5.7004 L97.0992,6.6004 L97.7002,7.4004 C97.8002,7.6004 98.0002,7.7994 98.0992,7.9994 L98.2002,8.1004 C98.4002,8.2994 98.5002,8.6004 98.7002,8.9004 L99.0002,9.1004 C99.2002,9.4004 99.4002,9.6004 99.5002,9.9004 L99.5992,9.9994 C99.8002,10.2994 100.0992,10.7004 100.3002,11.1004 L100.4002,11.2994 C100.5992,11.6004 100.8002,11.9994 101.0992,12.4004 L101.3002,12.7004 C101.5992,13.2004 101.8002,13.6004 102.0992,14.1004 L102.3002,14.4004 C102.5002,14.7994 102.8002,15.2994 103.0002,15.7004 L103.2002,16.1004 C103.5002,16.6004 103.8002,17.2004 104.0992,17.7994 L104.3002,18.1004 C104.5992,18.6004 104.8002,19.1004 105.0992,19.7004 L105.3002,20.2004 C105.5992,20.7994 105.9002,21.4994 106.2002,22.2004 L106.4002,22.6004 C106.7002,23.2004 106.9002,23.7994 107.2002,24.4004 L107.5002,25.1004 C107.8002,25.7994 108.0992,26.6004 108.4002,27.2994 L108.5002,27.7004 C108.8002,28.4004 109.0002,28.9994 109.3002,29.7004 L110.0002,31.4994 C110.4002,32.7004 110.8002,33.9004 111.2002,34.9994 L111.3002,35.2004 C112.7002,39.7004 113.9002,44.4004 114.8002,49.1004 C116.8002,59.9004 118.4002,73.9994 119.5992,90.9994 L119.7002,91.9004 C119.8002,92.7994 119.8002,93.7994 119.9002,94.7004 L120.0992,97.9004 C122.2002,99.7004 129.0992,106.4004 132.2002,116.7994 C135.4002,127.4994 136.3002,142.7004 136.5992,147.7004 C136.5992,148.4004 136.7002,148.7994 136.7002,149.1004 L136.8002,150.2004 L131.0992,150.2004 L130.9002,149.4994 C130.9002,149.4004 127.7002,139.2994 121.2002,135.9004 L121.2002,150.2004 L114.8002,150.2004 L113.8002,150.2994 Z"/>
    <polygon fill="#003064" points="118.9 134.5 117.9 99.4 74.799 99.4 73.799 134.5 71.799 134.5 72.799 97.4 119.799 97.4 120.9 134.5"/>
    <mask id="b" fill="white">
      <use xlink:href="#a"/>
    </mask>
    <polygon fill="#003064" points="84.2 31.4 108.5 31.4 108.5 29.4 84.2 29.4" mask="url(#b)"/>
    <path fill="#003064" d="M96.3999 53.4998C91.1999 53.4998 86.8999 57.6998 86.8999 62.8998 86.8999 68.1008 91.0999 72.3998 96.3999 72.3998 101.5999 72.3998 105.7999 68.1998 105.7999 62.8998 105.8999 57.6998 101.5999 53.4998 96.3999 53.4998M96.3999 74.3998C90.0999 74.3998 84.9999 69.2998 84.9999 62.9998 84.9999 56.6998 90.0999 51.6008 96.4999 51.6008 102.7999 51.6008 107.8999 56.6998 107.8999 62.9998 107.8999 69.2998 102.6999 74.3998 96.3999 74.3998M86.2002 137.1004L84.5002 135.9994 85.7002 134.2004C88.1002 130.6004 92.1002 128.4004 96.4002 128.4004 100.7002 128.4004 104.7002 130.4994 107.0992 134.1004L108.2002 135.7994 106.5002 136.9004 105.4002 135.2004C103.4002 132.2004 100.0002 130.4004 96.4002 130.4004 92.8002 130.4004 89.4002 132.2004 87.4002 135.2994L86.2002 137.1004zM75.8999 74.2996C72.8999 73.9006 70.1999 72.2996 68.3999 69.7996 66.5999 67.4006 65.7999 64.2996 66.1999 61.2996 66.5999 58.2996 68.1999 55.6006 70.6999 53.7996 73.0999 51.9996 76.1999 51.1996 79.1999 51.6006L78.8999 53.6006C76.3999 53.1996 73.8999 53.9006 71.8999 55.4006 69.8999 56.9006 68.5999 59.1006 68.1999 61.6006 67.7999 64.1006 68.4999 66.6006 69.9999 68.6006 71.4999 70.6006 73.6999 71.9006 76.1999 72.2996L75.8999 74.2996zM117.0996 74.2996L116.7996 72.2996C119.2996 71.9006 121.4996 70.4996 122.9006 68.4996 124.4006 66.4006 124.9996 63.9006 124.4996 61.4996 123.5996 56.4006 118.7996 52.9006 113.5996 53.6996L113.2996 51.6996C119.4996 50.6996 125.4006 54.9006 126.4996 61.1006 126.9996 64.1006 126.2996 67.1006 124.4996 69.6006 122.7996 72.1006 120.0996 73.7996 117.0996 74.2996" mask="url(#b)"/>
    <path fill="#EBEFF3" d="M96.3999,67.2996 C92.7999,67.2996 89.7999,64.7996 89.0999,61.4006 C88.9999,61.9006 88.9999,62.4006 88.9999,62.9996 C88.9999,67.1006 92.2999,70.4996 96.4999,70.4996 C100.5999,70.4996 103.8999,67.1996 103.8999,62.9996 C103.8999,62.4996 103.7999,61.9006 103.6999,61.4006 C102.9999,64.6996 99.9999,67.2996 96.3999,67.2996" mask="url(#b)"/>
    <path fill="#003064" d="M69.5 156.2996C68.4 156.2996 67.5 157.1996 67.5 158.2996 67.5 159.4006 68.4 160.2996 69.5 160.2996 70.6 160.2996 71.5 159.4006 71.5 158.2996 71.5 157.1996 70.6 156.2996 69.5 156.2996M69.5 162.2996C67.3 162.2996 65.5 160.4996 65.5 158.2996 65.5 156.1006 67.3 154.2996 69.5 154.2996 71.7 154.2996 73.5 156.1006 73.5 158.2996 73.5 160.4996 71.7 162.2996 69.5 162.2996M78.2002 180.2L76.4002 179.4 76.8002 178.5C79.1002 173.5 84.1002 170.3 89.5002 170.3L91.5002 170.3 91.5002 172.3 89.5002 172.3C84.8002 172.3 80.5002 175.1 78.6002 179.3L78.2002 180.2z" mask="url(#b)"/>
    <path fill="#003064" d="M44.5,187.2996 C39.4,187.2996 34.6,184.9996 31.4,181.1006 C31.3,180.9996 31.3,180.9006 31.2,180.7996 L31,180.2996 C30.9,179.9996 31,179.6006 31.2,179.2996 C32.7,177.6996 33.5,175.4996 33.5,173.2996 C33.5,168.2996 29.5,164.2996 24.5,164.2996 C19.5,164.2996 15.5,168.2996 15.5,173.2996 C15.5,173.9006 15.1,174.2996 14.5,174.2996 C13.9,174.2996 13.5,173.9006 13.5,173.2996 C13.5,167.1996 18.4,162.2996 24.5,162.2996 C30.6,162.2996 35.5,167.1996 35.5,173.2996 C35.5,175.7996 34.7,178.1996 33.1,180.1006 C36,183.4006 40.1,185.2996 44.5,185.2996 C49.3,185.2996 54.5,182.4996 57.4,178.1996 L57.7,177.7996 C60.9,174.2996 65.5,172.2996 70.2,172.2996 C73.5,172.2996 76.7,173.2996 79.5,175.1006 C80,175.4006 80.1,175.9996 79.8,176.4996 C79.5,176.9996 78.9,177.1006 78.4,176.7996 C76,175.1996 73.1,174.4006 70.2,174.4006 C66,174.4006 62,176.1996 59.2,179.1996 L59,179.4996 C55.8,184.1006 50.1,187.2996 44.5,187.2996" mask="url(#b)"/>
    <path fill="#003064" d="M21.5 186.7996C20.9 186.7996 20.5 186.4006 20.5 185.7996 20.5 178.1006 14.2 171.7996 6.5 171.7996 5.9 171.7996 5.5 171.4006 5.5 170.7996 5.5 170.1996 5.9 169.7996 6.5 169.7996 15.3 169.7996 22.5 176.9996 22.5 185.7996 22.5 186.2996 22.1 186.7996 21.5 186.7996M20 163.9998C20 163.9998 19.9 163.7998 19.9 163.6008 19 160.1998 15.9 157.7998 12.4 157.7998 10.8 157.7998 9.2 158.2998 7.9 159.2998 7.5 159.6008 6.8 159.4998 6.5 159.1008 6.2 158.6998 6.3 157.9998 6.7 157.6998 8.4 156.4998 10.3 155.8998 12.4 155.8998 16.9 155.8998 20.7 158.8998 21.9 163.1998 21.9 163.2998 22 163.6008 22 163.6008L20 163.9998z" mask="url(#b)"/>
    <path fill="#003064" d="M14 157.7996C13.4 157.7996 13 157.4006 13 156.7996 13 150.4006 7.8 145.2996 1.5 145.2996.9 145.2996.5 144.9006.5 144.2996.5 143.6996.9 143.2996 1.5 143.2996 9 143.2996 15 149.4006 15 156.7996 15 157.2996 14.6 157.7996 14 157.7996M10.7998 167.1004C10.1998 167.1004 9.7998 166.7004 9.7998 166.1004 9.7998 162.1004 6.4998 158.9004 2.5998 158.9004 1.9998 158.9004 1.5998 158.4994 1.5998 157.9004 1.5998 157.2994 1.9998 156.9004 2.5998 156.9004 7.6998 156.9004 11.7998 160.9994 11.7998 166.1004 11.7998 166.7004 11.3998 167.1004 10.7998 167.1004M139.5 162.2996L139.3 162.2996C138.8 162.2996 138.3 162.6006 137.9 162.9996 137.6 163.4006 137.4 163.9006 137.4 164.4996 137.5 165.6006 138.5 166.4006 139.6 166.2996 140.1 166.2996 140.6 165.9996 141 165.6006 141.3 165.1996 141.5 164.6996 141.5 164.1006 141.5 163.6006 141.2 163.1006 140.8 162.6996 140.4 162.4006 140 162.2996 139.5 162.2996M139.5 168.2996C137.4 168.2996 135.7 166.6996 135.5 164.6006 135.4 163.4996 135.7 162.4996 136.4 161.6996 137.1 160.9006 138.1 160.4006 139.1 160.2996 140.2 160.1996 141.2 160.4996 142 161.1996 142.8 161.9006 143.3 162.9006 143.4 163.9006 143.6 166.1006 141.9 167.9996 139.7 168.1996 139.7 168.2996 139.6 168.2996 139.5 168.2996M50.5 170.2996C49.9 170.2996 49.5 170.6996 49.5 171.2996 49.5 171.9006 49.9 172.2996 50.5 172.2996 51.1 172.2996 51.5 171.9006 51.5 171.2996 51.5 170.6996 51.1 170.2996 50.5 170.2996M50.5 174.2996C48.8 174.2996 47.5 172.9996 47.5 171.2996 47.5 169.6006 48.8 168.2996 50.5 168.2996 52.2 168.2996 53.5 169.6006 53.5 171.2996 53.5 172.9996 52.2 174.2996 50.5 174.2996M114.7998 180.2L114.4008 179.3C112.4008 175 108.1998 172.3 103.4998 172.3L101.4998 172.3 101.4998 170.3 103.4998 170.3C108.9998 170.3 113.9998 173.5 116.1998 178.5L116.5998 179.4 114.7998 180.2z" mask="url(#b)"/>
    <path fill="#003064" d="M148.5,187.2996 C142.9,187.2996 137.2,184.1996 134,179.2996 L133.8,179.1006 C131,176.1006 127,174.2996 122.8,174.2996 C119.9,174.2996 117,175.1006 114.6,176.6996 C114.1,176.9996 113.5,176.9006 113.2,176.4006 C112.9,175.9006 113,175.2996 113.5,174.9996 C116.3,173.1996 119.5,172.1996 122.8,172.1996 C127.5,172.1996 132.1,174.1996 135.3,177.6996 L135.6,178.1006 C138.5,182.4006 143.7,185.2996 148.5,185.2996 C153.2,185.2996 157.5,183.1996 160.3,179.4996 C160.6,179.1006 161.3,178.9996 161.7,179.2996 C162.1,179.6006 162.2,180.2996 161.9,180.6996 C158.7,184.9006 153.8,187.2996 148.5,187.2996" mask="url(#b)"/>
    <path fill="#003064" d="M161,180.9002 C160.7,180.9002 160.4,180.7992 160.3,180.6002 C158.5,178.6002 157.5,176.0002 157.5,173.2992 C157.5,167.2002 162.4,162.2992 168.5,162.2992 C174.6,162.2992 179.5,167.2002 179.5,173.2992 C179.5,173.9002 179.1,174.2992 178.5,174.2992 C177.9,174.2992 177.5,173.9002 177.5,173.2992 C177.5,168.2992 173.5,164.2992 168.5,164.2992 C163.5,164.2992 159.5,168.2992 159.5,173.2992 C159.5,175.5002 160.3,177.6002 161.8,179.2992 C162.2,179.7002 162.1,180.2992 161.7,180.7002 C161.5,180.7992 161.3,180.9002 161,180.9002" mask="url(#b)"/>
    <path fill="#003064" d="M171.5 186.7996C170.9 186.7996 170.5 186.4006 170.5 185.7996 170.5 176.9996 177.7 169.7996 186.5 169.7996 187.1 169.7996 187.5 170.1996 187.5 170.7996 187.5 171.4006 187.1 171.7996 186.5 171.7996 178.8 171.7996 172.5 178.1006 172.5 185.7996 172.5 186.2996 172.1 186.7996 171.5 186.7996M173 163.9998L171 163.6008C171 163.6008 171.1 163.2998 171.1 163.1998 172.2 158.8998 176.1 155.8998 180.6 155.8998 182.7 155.8998 184.6 156.4998 186.3 157.6998 186.7 157.9998 186.8 158.6008 186.5 159.1008 186.2 159.4998 185.6 159.6008 185.1 159.2998 183.8 158.2998 182.2 157.7998 180.6 157.7998 177.1 157.7998 174 160.1998 173.1 163.6008 173 163.6998 173 163.9998 173 163.9998" mask="url(#b)"/>
    <path fill="#003064" d="M179 157.7996C178.4 157.7996 178 157.4006 178 156.7996 178 149.2996 184.1 143.2996 191.5 143.2996 192.1 143.2996 192.5 143.6996 192.5 144.2996 192.5 144.9006 192.1 145.2996 191.5 145.2996 185.1 145.2996 180 150.4996 180 156.7996 180 157.2996 179.5 157.7996 179 157.7996M182.2002 167.1004C181.5992 167.1004 181.2002 166.7004 181.2002 166.1004 181.2002 160.9994 185.3002 156.9004 190.4002 156.9004 191.0002 156.9004 191.4002 157.2994 191.4002 157.9004 191.4002 158.4994 191.0002 158.9004 190.4002 158.9004 186.4002 158.9004 183.2002 162.2004 183.2002 166.1004 183.2002 166.7004 182.7002 167.1004 182.2002 167.1004M89.5 154.2996C89.4 154.2996 89.2 154.2996 89.1 154.1996 89 154.1006 88.9 154.1006 88.8 153.9996 88.7 153.9006 88.6 153.7996 88.6 153.6996 88.5 153.6006 88.5 153.4996 88.5 153.2996 88.5 152.9996 88.6 152.7996 88.8 152.6006 89.2 152.1996 89.8 152.1996 90.2 152.6006 90.4 152.7996 90.5 152.9996 90.5 153.2996 90.5 153.6006 90.4 153.7996 90.2 153.9996 90 154.1996 89.8 154.2996 89.5 154.2996M88.5 156.9002C88.5 156.4002 88.9 155.9002 89.5 155.9002 90 155.9002 90.5 156.4002 90.5 156.9002 90.5 157.5002 90 157.9002 89.5 157.9002 89 157.9002 88.5 157.4002 88.5 156.9002M88.5 160.5002C88.5 160.0002 88.9 159.5002 89.5 159.5002 90 159.5002 90.5 160.0002 90.5 160.5002 90.5 161.1002 90 161.5002 89.5 161.5002 89 161.5002 88.5 161.0002 88.5 160.5002M88.5 164.1002C88.5 163.6002 88.9 163.1002 89.5 163.1002 90 163.1002 90.5 163.6002 90.5 164.1002 90.5 164.6002 90 165.1002 89.5 165.1002 89 165.1002 88.5 164.6002 88.5 164.1002M88.5 167.7002C88.5 167.1002 88.9 166.7002 89.5 166.7002 90 166.7002 90.5 167.1002 90.5 167.7002 90.5 168.2002 90 168.7002 89.5 168.7002 89 168.7002 88.5 168.2002 88.5 167.7002M89.5 172.2996C89.2 172.2996 89 172.1996 88.8 171.9996 88.7 171.9006 88.6 171.7996 88.6 171.6996 88.5 171.6006 88.5 171.4996 88.5 171.2996 88.5 171.1996 88.5 170.9996 88.6 170.9006 88.7 170.7996 88.7 170.6996 88.8 170.6006 89.2 170.1996 89.8 170.1996 90.2 170.6006 90.3 170.6996 90.4 170.7996 90.4 170.9006 90.4 170.9996 90.5 171.1006 90.5 171.2996 90.5 171.6006 90.4 171.7996 90.2 171.9996 90 172.1996 89.8 172.2996 89.5 172.2996M102.5 154.2996C102.2 154.2996 102 154.1996 101.8 153.9996 101.6 153.7996 101.5 153.4996 101.5 153.2996 101.5 152.9996 101.6 152.7996 101.8 152.6006 102.2 152.1996 102.8 152.1996 103.2 152.6006 103.4 152.7996 103.5 152.9996 103.5 153.2996 103.5 153.6006 103.4 153.7996 103.2 153.9996 103 154.1996 102.8 154.2996 102.5 154.2996M101.5 156.9002C101.5 156.4002 101.9 155.9002 102.5 155.9002 103 155.9002 103.5 156.4002 103.5 156.9002 103.5 157.5002 103 157.9002 102.5 157.9002 102 157.9002 101.5 157.4002 101.5 156.9002M101.5 160.5002C101.5 160.0002 101.9 159.5002 102.5 159.5002 103 159.5002 103.5 160.0002 103.5 160.5002 103.5 161.1002 103 161.5002 102.5 161.5002 102 161.5002 101.5 161.0002 101.5 160.5002M101.5 164.1002C101.5 163.6002 101.9 163.1002 102.5 163.1002 103 163.1002 103.5 163.6002 103.5 164.1002 103.5 164.6002 103 165.1002 102.5 165.1002 102 165.1002 101.5 164.6002 101.5 164.1002M101.5 167.7002C101.5 167.1002 101.9 166.7002 102.5 166.7002 103 166.7002 103.5 167.1002 103.5 167.7002 103.5 168.2002 103 168.7002 102.5 168.7002 102 168.7002 101.5 168.2002 101.5 167.7002M102.5 172.2996C102.2 172.2996 102 172.1996 101.8 171.9996 101.7 171.9006 101.6 171.7996 101.6 171.6996 101.6 171.6006 101.5 171.4996 101.5 171.2996 101.5 171.1996 101.5 170.9996 101.6 170.9006 101.7 170.7996 101.7 170.6996 101.8 170.6006 102.2 170.1996 102.8 170.1996 103.2 170.6006 103.3 170.6996 103.4 170.7996 103.4 170.9006 103.5 170.9996 103.5 171.1006 103.5 171.2996 103.5 171.4006 103.5 171.6006 103.4 171.6996 103.3 171.7996 103.3 171.9006 103.2 171.9996 103 172.1996 102.8 172.2996 102.5 172.2996" mask="url(#b)"/>
    <path fill="#EBEFF3" d="M163.7002 153.7996C164.5282 153.7996 165.2002 154.4716 165.2002 155.2996 165.2002 156.1286 164.5282 156.7996 163.7002 156.7996 162.8712 156.7996 162.2002 156.1286 162.2002 155.2996 162.2002 154.4716 162.8712 153.7996 163.7002 153.7996M15.5 131.2996C16.052 131.2996 16.5 131.7476 16.5 132.2996 16.5 132.8526 16.052 133.2996 15.5 133.2996 14.948 133.2996 14.5 132.8526 14.5 132.2996 14.5 131.7476 14.948 131.2996 15.5 131.2996M40.5 149.2996C41.604 149.2996 42.5 150.1956 42.5 151.2996 42.5 152.4036 41.604 153.2996 40.5 153.2996 39.396 153.2996 38.5 152.4036 38.5 151.2996 38.5 150.1956 39.396 149.2996 40.5 149.2996M164.5 129.2996C165.604 129.2996 166.5 130.1956 166.5 131.2996 166.5 132.4036 165.604 133.2996 164.5 133.2996 163.396 133.2996 162.5 132.4036 162.5 131.2996 162.5 130.1956 163.396 129.2996 164.5 129.2996M145.5 135.2996C146.053 135.2996 146.5 135.7476 146.5 136.2996 146.5 136.8526 146.053 137.2996 145.5 137.2996 144.947 137.2996 144.5 136.8526 144.5 136.2996 144.5 135.7476 144.947 135.2996 145.5 135.2996M174.5 141.2996C175.604 141.2996 176.5 142.1956 176.5 143.2996 176.5 144.4036 175.604 145.2996 174.5 145.2996 173.396 145.2996 172.5 144.4036 172.5 143.2996 172.5 142.1956 173.396 141.2996 174.5 141.2996M25.5 147.2996C26.052 147.2996 26.5 147.7476 26.5 148.2996 26.5 148.8526 26.052 149.2996 25.5 149.2996 24.948 149.2996 24.5 148.8526 24.5 148.2996 24.5 147.7476 24.948 147.2996 25.5 147.2996M38.5 125.2996C39.604 125.2996 40.5 126.1956 40.5 127.2996 40.5 128.4036 39.604 129.2996 38.5 129.2996 37.396 129.2996 36.5 128.4036 36.5 127.2996 36.5 126.1956 37.396 125.2996 38.5 125.2996" mask="url(#b)"/>
    <polygon fill="#003064" points="36.5 81.3 38.5 81.3 38.5 77.3 36.5 77.3" mask="url(#b)"/>
    <polygon fill="#003064" points="36.5 91.3 38.5 91.3 38.5 87.3 36.5 87.3" mask="url(#b)"/>
    <polygon fill="#003064" points="40.5 85.3 44.5 85.3 44.5 83.3 40.5 83.3" mask="url(#b)"/>
    <polygon fill="#003064" points="30.5 85.3 34.5 85.3 34.5 83.3 30.5 83.3" mask="url(#b)"/>
    <polygon fill="#003064" points="156.5 105.3 158.5 105.3 158.5 101.3 156.5 101.3" mask="url(#b)"/>
    <polygon fill="#003064" points="156.5 115.3 158.5 115.3 158.5 111.3 156.5 111.3" mask="url(#b)"/>
    <polygon fill="#003064" points="160.5 109.3 164.5 109.3 164.5 107.3 160.5 107.3" mask="url(#b)"/>
    <polygon fill="#003064" points="150.5 109.3 154.5 109.3 154.5 107.3 150.5 107.3" mask="url(#b)"/>
    <polygon fill="#003064" points="144.5 45.3 146.5 45.3 146.5 41.3 144.5 41.3" mask="url(#b)"/>
    <polygon fill="#003064" points="144.5 55.3 146.5 55.3 146.5 51.3 144.5 51.3" mask="url(#b)"/>
    <polygon fill="#003064" points="148.5 49.3 152.5 49.3 152.5 47.3 148.5 47.3" mask="url(#b)"/>
    <polygon fill="#003064" points="138.5 49.3 142.5 49.3 142.5 47.3 138.5 47.3" mask="url(#b)"/>
    <path fill="#007BFF" d="M43.5 11.2996C45.157 11.2996 46.5 12.6436 46.5 14.2996 46.5 15.9566 45.157 17.2996 43.5 17.2996 41.843 17.2996 40.5 15.9566 40.5 14.2996 40.5 12.6436 41.843 11.2996 43.5 11.2996M156.5 17.2996C157.604 17.2996 158.5 18.1956 158.5 19.2996 158.5 20.4036 157.604 21.2996 156.5 21.2996 155.396 21.2996 154.5 20.4036 154.5 19.2996 154.5 18.1956 155.396 17.2996 156.5 17.2996M128.5 9.2996C129.604 9.2996 130.5 10.1956 130.5 11.2996 130.5 12.4036 129.604 13.2996 128.5 13.2996 127.396 13.2996 126.5 12.4036 126.5 11.2996 126.5 10.1956 127.396 9.2996 128.5 9.2996M19.5 49.2996C21.157 49.2996 22.5 50.6436 22.5 52.2996 22.5 53.9566 21.157 55.2996 19.5 55.2996 17.843 55.2996 16.5 53.9566 16.5 52.2996 16.5 50.6436 17.843 49.2996 19.5 49.2996M51.1084 43.8748C51.8894 43.0948 53.1554 43.0948 53.9374 43.8748 54.7174 44.6558 54.7174 45.9228 53.9374 46.7038 53.1554 47.4838 51.8894 47.4838 51.1084 46.7038 50.3274 45.9228 50.3274 44.6558 51.1084 43.8748M174.5 61.2996C175.604 61.2996 176.5 62.1956 176.5 63.2996 176.5 64.4036 175.604 65.2996 174.5 65.2996 173.396 65.2996 172.5 64.4036 172.5 63.2996 172.5 62.1956 173.396 61.2996 174.5 61.2996" mask="url(#b)"/>
  </g>
</svg>
