<svg xmlns="http://www.w3.org/2000/svg" xmlns:xlink="http://www.w3.org/1999/xlink" width="191" height="183" viewBox="0 0 191 183">
  <defs>
    <polygon id="a" points="4.076 52 .171 52 .171 .434 4.076 .434"/>
    <polygon id="c" points="0 182.51 190.602 182.51 190.602 0 0 0"/>
  </defs>
  <g fill="none" fill-rule="evenodd">
    <path fill="#EBF7FF" d="M172.6723,151.3403 L170.0293,151.3403 L147.4193,151.3403 L144.7823,151.3403 L137.9533,151.3403 L144.9443,113.0443 L145.4573,90.1933 L139.4593,90.1933 L139.3423,95.7333 L126.7233,121.8533 L121.6733,119.0643 L139.7133,79.8303 L139.8903,79.3353 C140.8693,75.5893 144.2583,72.9723 148.1313,72.9723 L151.0433,72.9723 L158.7393,93.0133 L166.3723,72.9733 L170.1833,72.9723 C173.9723,72.9723 177.3193,75.4983 178.3673,79.1303 L185.8203,120.6603 L180.3053,120.6603 L178.4583,112.1673 L178.2293,90.1933 L172.2293,90.1933 L172.4643,112.8433 L180.8353,151.3403 L172.6723,151.3403 Z"/>
    <polygon fill="#007BFF" points="35.523 77.023 81.023 77.023 51.773 38.023"/>
    <path fill="#003064" d="M121.1889,136.0053 L117.9199,136.0053 C115.6319,136.0053 113.6989,133.9843 113.6989,131.5933 L113.6989,126.6983 C113.6989,126.4303 113.8069,126.1733 113.9989,125.9843 L118.8749,121.1983 C119.2669,120.8133 119.8999,120.8163 120.2889,121.2123 C120.6749,121.6063 120.6689,122.2393 120.2749,122.6263 L115.6989,127.1183 L115.6989,131.5933 C115.6989,132.8783 116.7369,134.0053 117.9199,134.0053 L120.7749,134.0053 L123.7319,131.0473 C123.9189,130.8593 124.1729,130.7543 124.4389,130.7543 L125.0759,130.7543 L125.0459,125.5203 C125.0419,124.9683 125.4839,124.5163 126.0369,124.5103 L126.0459,124.5103 C126.5939,124.5103 127.0409,124.9513 127.0459,125.5003 L127.0759,131.7543 C127.0759,132.3073 126.6279,132.7543 126.0759,132.7543 L124.8529,132.7543 L121.8959,135.7123 C121.7089,135.9003 121.4549,136.0053 121.1889,136.0053"/>
    <g transform="translate(123 130.51)">
      <mask id="b" fill="white">
        <use xlink:href="#a"/>
      </mask>
      <path fill="#003064" d="M3.0756,52.0002 C2.5226,52.0002 2.0756,51.5532 2.0756,51.0002 L2.0756,5.9402 C2.0756,4.5092 1.5176,3.1952 0.4646,2.1412 C0.0736,1.7502 0.0736,1.1172 0.4646,0.7272 C0.8546,0.3362 1.4876,0.3362 1.8786,0.7272 C3.3156,2.1642 4.0756,3.9672 4.0756,5.9402 L4.0756,51.0002 C4.0756,51.5532 3.6286,52.0002 3.0756,52.0002" mask="url(#b)"/>
    </g>
    <path fill="#003064" d="M113.0619,137.4506 C112.5089,137.4506 112.0619,137.0036 112.0619,136.4506 C112.0619,134.5506 112.7739,132.7366 114.0669,131.3466 C114.4449,130.9416 115.0769,130.9206 115.4799,131.2946 C115.8839,131.6706 115.9079,132.3036 115.5319,132.7076 C114.5839,133.7276 114.0619,135.0566 114.0619,136.4506 C114.0619,137.0036 113.6149,137.4506 113.0619,137.4506"/>
    <path fill="#FFD15D" d="M117.0707,4.933 C129.7737,4.933 140.0707,15.231 140.0707,27.933 C140.0707,40.636 129.7737,50.933 117.0707,50.933 C104.3687,50.933 94.0707,40.636 94.0707,27.933 C94.0707,15.231 104.3687,4.933 117.0707,4.933"/>
    <path fill="#003064" d="M118.9359 2.0004L118.9359 2.0004C118.3759 1.9604 117.9659 1.4794 118.0059.9304 118.0459.3804 118.5259-.0396 119.0769.0104L119.0769.0004C119.6259.0404 120.0369.5204 120.0059 1.0694 119.9659 1.6004 119.5259 2.0004 119.0059 2.0004L118.9359 2.0004zM113.9759 1.0904C113.9259.5404 114.3459.0604 114.8959.0204 115.4459-.0296 115.9259.3904 115.9659.9394 116.0059 1.4894 115.5959 1.9704 115.0459 2.0104 115.0259 2.0104 114.9969 2.0204 114.9659 2.0204 114.4569 2.0204 114.0159 1.6094 113.9759 1.0904L113.9759 1.0904zM122.7759 2.5604C122.2359 2.4394 121.8959 1.9094 122.0159 1.3694 122.1359.8294 122.6759.4894 123.2159.6094 123.7469.7294 124.0859 1.2604 123.9659 1.8004 123.8659 2.2704 123.4569 2.5794 122.9969 2.5794 122.9259 2.5794 122.8459 2.5794 122.7759 2.5604L122.7759 2.5604zM110.0059 1.8504C109.8859 1.3104 110.2159.7704 110.7559.6494 111.2959.5204 111.8359.8594 111.9569 1.3994 112.0859 1.9394 111.7469 2.4704 111.2069 2.6004 111.1359 2.6094 111.0559 2.6194 110.9859 2.6194 110.5259 2.6194 110.1159 2.3104 110.0059 1.8504L110.0059 1.8504zM126.4969 3.6894C125.9759 3.4894 125.7259 2.9094 125.9259 2.3994 126.1259 1.8804 126.7069 1.6304 127.2159 1.8294 127.7359 2.0294 127.9859 2.6094 127.7869 3.1194 127.6359 3.5204 127.2559 3.7604 126.8559 3.7604 126.7359 3.7604 126.6059 3.7394 126.4969 3.6894L126.4969 3.6894zM106.2069 3.1894C105.9969 2.6804 106.2469 2.0904 106.7659 1.8904 107.2759 1.6894 107.8559 1.9394 108.0659 2.4494 108.2659 2.9704 108.0159 3.5504 107.4969 3.7504 107.3759 3.8004 107.2559 3.8194 107.1359 3.8194 106.7359 3.8194 106.3559 3.5794 106.2069 3.1894L106.2069 3.1894zM129.9969 5.3694C129.5159 5.0904 129.3559 4.4794 129.6259 4.0004 129.9059 3.5294 130.5159 3.3594 130.9969 3.6404 131.4759 3.9094 131.6359 4.5204 131.3659 5.0004 131.1759 5.3194 130.8459 5.5004 130.4969 5.5004 130.3269 5.5004 130.1559 5.4604 129.9969 5.3694L129.9969 5.3694zM102.6459 5.0904C102.3659 4.6094 102.5259 3.9894 103.0059 3.7204 103.4759 3.4394 104.0959 3.6004 104.3759 4.0794 104.6459 4.5504 104.4859 5.1704 104.0159 5.4494L104.0059 5.4494C103.8559 5.5404 103.6759 5.5794 103.5059 5.5794 103.1659 5.5794 102.8269 5.3994 102.6459 5.0904L102.6459 5.0904zM133.2159 7.5504L133.2159 7.5504C132.7759 7.1994 132.7069 6.5794 133.0459 6.1494 133.3959 5.7104 134.0259 5.6404 134.4569 5.9794 134.8859 6.3194 134.9659 6.9494 134.6159 7.3904 134.4159 7.6404 134.1259 7.7704 133.8359 7.7704 133.6159 7.7704 133.3959 7.6994 133.2159 7.5504L133.2159 7.5504zM99.4059 7.4894C99.0559 7.0604 99.1259 6.4304 99.5559 6.0904L99.5559 6.0794C99.9859 5.7394 100.6159 5.8104 100.9659 6.2394 101.3059 6.6704 101.2359 7.3004 100.8059 7.6494L100.8059 7.6404C100.6259 7.7904 100.4059 7.8594 100.1859 7.8594 99.8959 7.8594 99.6059 7.7394 99.4059 7.4894L99.4059 7.4894zM136.0659 10.1804C135.6959 9.7794 135.7159 9.1494 136.1159 8.7704 136.5259 8.3904 137.1559 8.4094 137.5259 8.8194 137.9059 9.2204 137.8859 9.8504 137.4859 10.2294 137.2869 10.4094 137.0459 10.5004 136.7959 10.5004 136.5369 10.5004 136.2659 10.3904 136.0659 10.1804L136.0659 10.1804zM96.5559 10.3504C96.1459 9.9794 96.1259 9.3404 96.4969 8.9394 96.8759 8.5294 97.5059 8.5104 97.9159 8.8804 98.3159 9.2504 98.3459 9.8904 97.9659 10.2904 97.7759 10.5104 97.5059 10.6094 97.2359 10.6094 96.9969 10.6094 96.7469 10.5294 96.5559 10.3504L96.5559 10.3504zM138.5059 13.2104C138.1859 12.7504 138.3059 12.1304 138.7559 11.8194 139.2159 11.5104 139.8359 11.6194 140.1459 12.0694L140.1559 12.0694C140.4659 12.5294 140.3459 13.1494 139.8959 13.4704 139.7159 13.5904 139.5259 13.6404 139.3269 13.6404 139.0059 13.6404 138.6959 13.4894 138.5059 13.2104L138.5059 13.2104zM94.1659 13.6004C93.7069 13.2904 93.5859 12.6704 93.8959 12.2104 94.2069 11.7604 94.8269 11.6404 95.2869 11.9494 95.7469 12.2604 95.8659 12.8804 95.5559 13.3404 95.3559 13.6194 95.0459 13.7704 94.7259 13.7704 94.5259 13.7704 94.3359 13.7204 94.1659 13.6004L94.1659 13.6004zM140.4569 16.5604L140.4569 16.5604C140.2159 16.0694 140.4259 15.4704 140.9159 15.2294 141.4159 14.9794 142.0159 15.1894 142.2559 15.6894 142.4969 16.1804 142.2959 16.7794 141.7959 17.0204 141.6559 17.0904 141.5059 17.1194 141.3559 17.1194 140.9859 17.1194 140.6359 16.9204 140.4569 16.5604L140.4569 16.5604zM92.2759 17.1704C91.7869 16.9304 91.5769 16.3404 91.8059 15.8404 92.0459 15.3404 92.6459 15.1304 93.1459 15.3694 93.6459 15.6094 93.8559 16.1994 93.6159 16.6994 93.4459 17.0604 93.0859 17.2704 92.7159 17.2704 92.5659 17.2704 92.4159 17.2394 92.2759 17.1704L92.2759 17.1704zM141.8959 20.1704L141.8959 20.1704C141.7259 19.6404 142.0259 19.0794 142.5459 18.9204 143.0769 18.7604 143.6359 19.0504 143.8059 19.5794L143.8059 19.5694C143.9659 20.1004 143.6759 20.6594 143.1459 20.8294 143.0459 20.8594 142.9459 20.8694 142.8459 20.8694 142.4159 20.8694 142.0259 20.6004 141.8959 20.1704L141.8959 20.1704zM90.9569 20.9894C90.4259 20.8294 90.1259 20.2704 90.2869 19.7394 90.4459 19.2104 91.0059 18.9094 91.5369 19.0694 92.0659 19.2394 92.3659 19.7904 92.2069 20.3194 92.0659 20.7604 91.6759 21.0294 91.2469 21.0294 91.1459 21.0294 91.0459 21.0204 90.9569 20.9894L90.9569 20.9894zM142.7659 23.9494C142.6859 23.4094 143.0559 22.8994 143.6059 22.8194 144.1459 22.7294 144.6559 23.1094 144.7469 23.6494 144.8269 24.1994 144.4569 24.7104 143.9059 24.7904 143.8559 24.8004 143.8059 24.8004 143.7559 24.8004 143.2759 24.8004 142.8459 24.4494 142.7659 23.9494L142.7659 23.9494zM90.2159 24.9494C89.6659 24.8694 89.2869 24.3694 89.3759 23.8194 89.4569 23.2704 89.9569 22.8994 90.5059 22.9794 91.0559 23.0604 91.4259 23.5694 91.3459 24.1094 91.2759 24.6094 90.8459 24.9704 90.3559 24.9704 90.3159 24.9704 90.2659 24.9604 90.2159 24.9494L90.2159 24.9494zM143.0659 27.9304L143.0769 27.9304 143.0769 27.8994C143.0769 27.8694 143.0659 27.8504 143.0659 27.8294 143.0659 27.2704 143.5159 26.8194 144.0659 26.8194 144.6159 26.8194 145.0659 27.2704 145.0659 27.8194L145.0659 27.8804 145.0659 27.9304C145.0659 28.4894 144.6259 28.9304 144.0659 28.9304 143.5159 28.9304 143.0659 28.4894 143.0659 27.9304L143.0659 27.9304zM89.0659 27.9894C89.0659 27.4394 89.5159 26.9894 90.0659 26.9894 90.6259 26.9894 91.0659 27.4304 91.0659 27.9894 91.0659 28.5404 90.6259 28.9894 90.0769 28.9894 89.5159 28.9894 89.0769 28.5404 89.0659 27.9894L89.0659 27.9894zM143.6259 32.9494C143.0769 32.8594 142.7069 32.3504 142.7869 31.8104 142.8659 31.2604 143.3759 30.8804 143.9159 30.9704 144.4659 31.0504 144.8459 31.5604 144.7659 32.1004 144.6859 32.6004 144.2659 32.9604 143.7759 32.9604 143.7259 32.9604 143.6759 32.9494 143.6259 32.9494L143.6259 32.9494zM89.3859 32.1594L89.3859 32.1594C89.3059 31.6094 89.6859 31.1004 90.2259 31.0204 90.7759 30.9394 91.2869 31.3104 91.3659 31.8594 91.4459 32.4094 91.0659 32.9204 90.5259 33.0004 90.4759 33.0104 90.4259 33.0104 90.3759 33.0104 89.8859 33.0104 89.4659 32.6594 89.3859 32.1594L89.3859 32.1594zM142.5859 36.8404C142.0559 36.6804 141.7659 36.1194 141.9259 35.5904 142.0859 35.0604 142.6459 34.7704 143.1759 34.9304 143.7069 35.0904 143.9969 35.6494 143.8359 36.1804 143.7069 36.6094 143.3059 36.8904 142.8759 36.8904 142.7869 36.8904 142.6859 36.8694 142.5859 36.8404L142.5859 36.8404zM90.3269 36.2394C90.1559 35.7104 90.4569 35.1494 90.9859 34.9894 91.5059 34.8194 92.0659 35.1194 92.2359 35.6404 92.3959 36.1704 92.1059 36.7294 91.5769 36.8994 91.4759 36.9304 91.3759 36.9394 91.2759 36.9394 90.8559 36.9394 90.4569 36.6704 90.3269 36.2394L90.3269 36.2394zM140.9759 40.5504C140.4759 40.3004 140.2659 39.7104 140.5059 39.2104 140.7469 38.7104 141.3459 38.5004 141.8359 38.7394 142.3359 38.9794 142.5459 39.5794 142.3059 40.0794 142.1359 40.4394 141.7759 40.6404 141.4059 40.6404 141.2559 40.6404 141.1059 40.6094 140.9759 40.5504L140.9759 40.5504zM91.8559 40.1304L91.8559 40.1304C91.6159 39.6304 91.8269 39.0294 92.3269 38.7904 92.8159 38.5504 93.4159 38.7604 93.6559 39.2604 93.8959 39.7504 93.6959 40.3504 93.1959 40.5904 93.0559 40.6594 92.9059 40.6894 92.7559 40.6894 92.3859 40.6894 92.0369 40.4794 91.8559 40.1304L91.8559 40.1304zM138.8159 43.9604C138.3659 43.6494 138.2469 43.0294 138.5559 42.5694 138.8659 42.1194 139.4969 42.0004 139.9459 42.3104 140.4059 42.6194 140.5259 43.2394 140.2159 43.6994 140.0159 43.9894 139.7069 44.1404 139.3859 44.1404 139.1959 44.1404 138.9969 44.0794 138.8159 43.9604L138.8159 43.9604zM93.9569 43.7394C93.6459 43.2904 93.7659 42.6594 94.2159 42.3504 94.6759 42.0404 95.2959 42.1594 95.6059 42.6094 95.9159 43.0694 95.8059 43.6894 95.3459 44.0004 95.1759 44.1194 94.9759 44.1804 94.7869 44.1804 94.4659 44.1804 94.1559 44.0294 93.9569 43.7394L93.9569 43.7394zM136.1859 47.0204C135.7869 46.6494 135.7559 46.0204 136.1359 45.6094 136.5159 45.1994 137.1459 45.1804 137.5459 45.5604 137.9569 45.9304 137.9759 46.5694 137.6059 46.9704 137.4059 47.1804 137.1359 47.2904 136.8659 47.2904 136.6259 47.2904 136.3859 47.1994 136.1859 47.0204L136.1859 47.0204zM96.5769 47.0104L96.5769 47.0104C96.1959 46.6004 96.2159 45.9704 96.6259 45.5904 97.0259 45.2204 97.6559 45.2394 98.0369 45.6494 98.4159 46.0504 98.3959 46.6804 97.9859 47.0604 97.7959 47.2394 97.5459 47.3294 97.3059 47.3294 97.0369 47.3294 96.7659 47.2204 96.5769 47.0104L96.5769 47.0104zM133.1359 49.6594C132.7869 49.2294 132.8559 48.6004 133.2869 48.2504 133.7259 47.9094 134.3559 47.9794 134.6959 48.4094 135.0369 48.8404 134.9659 49.4704 134.5369 49.8194 134.3559 49.9604 134.1359 50.0294 133.9159 50.0294 133.6259 50.0294 133.3359 49.9094 133.1359 49.6594L133.1359 49.6594zM99.6459 49.8504C99.2069 49.5004 99.1359 48.8804 99.4859 48.4494 99.8269 48.0104 100.4569 47.9394 100.8859 48.2794 101.3159 48.6304 101.3959 49.2604 101.0459 49.6894 100.8459 49.9394 100.5559 50.0694 100.2659 50.0694 100.0459 50.0694 99.8269 50.0004 99.6459 49.8504L99.6459 49.8504zM129.7259 51.8104C129.4459 51.3294 129.6059 50.7204 130.0859 50.4494 130.5659 50.1704 131.1759 50.3294 131.4569 50.8104 131.7259 51.2904 131.5659 51.8994 131.0859 52.1804 130.9359 52.2704 130.7559 52.3104 130.5859 52.3104 130.2469 52.3104 129.9059 52.1304 129.7259 51.8104L129.7259 51.8104zM103.0959 52.1994C102.6159 51.9304 102.4569 51.3104 102.7359 50.8404 103.0059 50.3594 103.6159 50.1994 104.0959 50.4704 104.5769 50.7504 104.7359 51.3594 104.4659 51.8404 104.2759 52.1594 103.9459 52.3404 103.5959 52.3404 103.4259 52.3404 103.2559 52.2904 103.0959 52.1994L103.0959 52.1994zM126.0259 53.4304C125.8269 52.9204 126.0769 52.3404 126.5959 52.1404 127.1059 51.9304 127.6859 52.1804 127.8859 52.6994 128.0959 53.2104 127.8359 53.7904 127.3269 54.0004 127.2069 54.0404 127.0769 54.0694 126.9569 54.0694 126.5559 54.0694 126.1859 53.8294 126.0259 53.4304L126.0259 53.4304zM106.8759 54.0204L106.8759 54.0204C106.3559 53.8194 106.1059 53.2394 106.3059 52.7204 106.5059 52.2104 107.0859 51.9494 107.5959 52.1594 108.1159 52.3594 108.3659 52.9394 108.1659 53.4494 108.0159 53.8404 107.6359 54.0904 107.2359 54.0904 107.1159 54.0904 106.9969 54.0604 106.8759 54.0204L106.8759 54.0204zM122.1259 54.4794C122.0059 53.9394 122.3459 53.3994 122.8859 53.2794 123.4159 53.1594 123.9569 53.5004 124.0769 54.0294 124.2069 54.5694 123.8659 55.1094 123.3269 55.2294 123.2559 55.2504 123.1759 55.2604 123.1059 55.2604 122.6459 55.2604 122.2359 54.9394 122.1259 54.4794L122.1259 54.4794zM110.8759 55.2504L110.8759 55.2504C110.3359 55.1194 109.9969 54.5904 110.1159 54.0504 110.2359 53.5104 110.7759 53.1704 111.3159 53.2904 111.8559 53.4094 112.1959 53.9494 112.0659 54.4894 111.9659 54.9494 111.5459 55.2704 111.0959 55.2704 111.0159 55.2704 110.9459 55.2604 110.8759 55.2504L110.8759 55.2504zM118.1159 54.9304C118.0769 54.3804 118.4859 53.8994 119.0459 53.8594 119.5859 53.8194 120.0659 54.2294 120.1159 54.7794 120.1559 55.3294 119.7359 55.8104 119.1959 55.8594L119.1859 55.8594 119.1159 55.8594C118.5959 55.8594 118.1559 55.4604 118.1159 54.9304L118.1159 54.9304zM115.0059 55.8594C114.4569 55.8194 114.0459 55.3404 114.0859 54.7904 114.1259 54.2394 114.6059 53.8194 115.1559 53.8594 115.7069 53.8994 116.1159 54.3804 116.0769 54.9304 116.0459 55.4604 115.6059 55.8594 115.0769 55.8594L115.0059 55.8594zM.0658 113.02C.0658 112.47.5158 112.02 1.0658 112.02 1.6158 112.02 2.0658 112.47 2.0658 113.02 2.0658 113.57 1.6158 114.02 1.0658 114.02.5158 114.02.0658 113.57.0658 113.02M4.0658 113.02C4.0658 112.47 4.5158 112.02 5.0658 112.02 5.6158 112.02 6.0658 112.47 6.0658 113.02 6.0658 113.57 5.6158 114.02 5.0658 114.02 4.5158 114.02 4.0658 113.57 4.0658 113.02M8.0658 113.02C8.0658 112.47 8.5158 112.02 9.0658 112.02 9.6158 112.02 10.0658 112.47 10.0658 113.02 10.0658 113.57 9.6158 114.02 9.0658 114.02 8.5158 114.02 8.0658 113.57 8.0658 113.02M12.0658 113.02C12.0658 112.47 12.5158 112.02 13.0658 112.02 13.6158 112.02 14.0658 112.47 14.0658 113.02 14.0658 113.57 13.6158 114.02 13.0658 114.02 12.5158 114.02 12.0658 113.57 12.0658 113.02M16.0658 113.02C16.0658 112.47 16.5158 112.02 17.0658 112.02 17.6158 112.02 18.0658 112.47 18.0658 113.02 18.0658 113.57 17.6158 114.02 17.0658 114.02 16.5158 114.02 16.0658 113.57 16.0658 113.02M20.0658 113.02C20.0658 112.47 20.5158 112.02 21.0658 112.02 21.6158 112.02 22.0658 112.47 22.0658 113.02 22.0658 113.57 21.6158 114.02 21.0658 114.02 20.5158 114.02 20.0658 113.57 20.0658 113.02M24.0658 113.02C24.0658 112.47 24.5158 112.02 25.0658 112.02 25.6158 112.02 26.0658 112.47 26.0658 113.02 26.0658 113.57 25.6158 114.02 25.0658 114.02 24.5158 114.02 24.0658 113.57 24.0658 113.02M28.0658 113.02C28.0658 112.47 28.5158 112.02 29.0658 112.02 29.6158 112.02 30.0658 112.47 30.0658 113.02 30.0658 113.57 29.6158 114.02 29.0658 114.02 28.5158 114.02 28.0658 113.57 28.0658 113.02M32.0658 113.02C32.0658 112.47 32.5158 112.02 33.0658 112.02 33.6158 112.02 34.0658 112.47 34.0658 113.02 34.0658 113.57 33.6158 114.02 33.0658 114.02 32.5158 114.02 32.0658 113.57 32.0658 113.02M36.0658 113.02C36.0658 112.47 36.5158 112.02 37.0658 112.02 37.6158 112.02 38.0658 112.47 38.0658 113.02 38.0658 113.57 37.6158 114.02 37.0658 114.02 36.5158 114.02 36.0658 113.57 36.0658 113.02M40.0658 113.02C40.0658 112.47 40.5158 112.02 41.0658 112.02 41.6158 112.02 42.0658 112.47 42.0658 113.02 42.0658 113.57 41.6158 114.02 41.0658 114.02 40.5158 114.02 40.0658 113.57 40.0658 113.02M44.0658 113.02C44.0658 112.47 44.5158 112.02 45.0658 112.02 45.6158 112.02 46.0658 112.47 46.0658 113.02 46.0658 113.57 45.6158 114.02 45.0658 114.02 44.5158 114.02 44.0658 113.57 44.0658 113.02M48.0658 113.02C48.0658 112.47 48.5158 112.02 49.0658 112.02 49.6158 112.02 50.0658 112.47 50.0658 113.02 50.0658 113.57 49.6158 114.02 49.0658 114.02 48.5158 114.02 48.0658 113.57 48.0658 113.02M52.0658 113.02C52.0658 112.47 52.5158 112.02 53.0658 112.02 53.6158 112.02 54.0658 112.47 54.0658 113.02 54.0658 113.57 53.6158 114.02 53.0658 114.02 52.5158 114.02 52.0658 113.57 52.0658 113.02M56.0658 113.02C56.0658 112.47 56.5158 112.02 57.0658 112.02 57.6158 112.02 58.0658 112.47 58.0658 113.02 58.0658 113.57 57.6158 114.02 57.0658 114.02 56.5158 114.02 56.0658 113.57 56.0658 113.02M60.0658 113.02C60.0658 112.47 60.5158 112.02 61.0658 112.02 61.6158 112.02 62.0658 112.47 62.0658 113.02 62.0658 113.57 61.6158 114.02 61.0658 114.02 60.5158 114.02 60.0658 113.57 60.0658 113.02M64.0658 113.02C64.0658 112.47 64.5158 112.02 65.0658 112.02 65.6158 112.02 66.0658 112.47 66.0658 113.02 66.0658 113.57 65.6158 114.02 65.0658 114.02 64.5158 114.02 64.0658 113.57 64.0658 113.02M68.0658 113.02C68.0658 112.47 68.5158 112.02 69.0658 112.02 69.6158 112.02 70.0658 112.47 70.0658 113.02 70.0658 113.57 69.6158 114.02 69.0658 114.02 68.5158 114.02 68.0658 113.57 68.0658 113.02M72.0658 113.02C72.0658 112.47 72.5158 112.02 73.0658 112.02 73.6158 112.02 74.0658 112.47 74.0658 113.02 74.0658 113.57 73.6158 114.02 73.0658 114.02 72.5158 114.02 72.0658 113.57 72.0658 113.02M76.0658 113.02C76.0658 112.47 76.5158 112.02 77.0658 112.02 77.6158 112.02 78.0658 112.47 78.0658 113.02 78.0658 113.57 77.6158 114.02 77.0658 114.02 76.5158 114.02 76.0658 113.57 76.0658 113.02M80.0658 113.02C80.0658 112.47 80.5158 112.02 81.0658 112.02 81.6158 112.02 82.0658 112.47 82.0658 113.02 82.0658 113.57 81.6158 114.02 81.0658 114.02 80.5158 114.02 80.0658 113.57 80.0658 113.02M84.0658 113.02C84.0658 112.47 84.5158 112.02 85.0658 112.02 85.6158 112.02 86.0658 112.47 86.0658 113.02 86.0658 113.57 85.6158 114.02 85.0658 114.02 84.5158 114.02 84.0658 113.57 84.0658 113.02M88.0658 113.02C88.0658 112.47 88.5158 112.02 89.0658 112.02 89.6158 112.02 90.0658 112.47 90.0658 113.02 90.0658 113.57 89.6158 114.02 89.0658 114.02 88.5158 114.02 88.0658 113.57 88.0658 113.02M92.0658 113.02C92.0658 112.47 92.5158 112.02 93.0658 112.02 93.6158 112.02 94.0658 112.47 94.0658 113.02 94.0658 113.57 93.6158 114.02 93.0658 114.02 92.5158 114.02 92.0658 113.57 92.0658 113.02M96.0658 113.02C96.0658 112.47 96.5158 112.02 97.0658 112.02 97.6158 112.02 98.0658 112.47 98.0658 113.02 98.0658 113.57 97.6158 114.02 97.0658 114.02 96.5158 114.02 96.0658 113.57 96.0658 113.02M100.0658 113.02C100.0658 112.47 100.5158 112.02 101.0658 112.02 101.6158 112.02 102.0658 112.47 102.0658 113.02 102.0658 113.57 101.6158 114.02 101.0658 114.02 100.5158 114.02 100.0658 113.57 100.0658 113.02M104.0658 113.02C104.0658 112.47 104.5158 112.02 105.0658 112.02 105.6158 112.02 106.0658 112.47 106.0658 113.02 106.0658 113.57 105.6158 114.02 105.0658 114.02 104.5158 114.02 104.0658 113.57 104.0658 113.02"/>
    <path fill="#003064" d="M35.1869,7.5129 L35.0439,7.5119 C30.6859,7.4779 26.4979,5.8459 23.1389,2.8899 C19.8339,5.7749 15.5929,7.3529 11.0929,7.3529 C6.0309,7.3529 3.3099,5.2459 0.3929,2.4469 L-0.0001,2.4369 L0.0509,0.4369 L1.2229,0.4659 L1.5029,0.7389 C4.2909,3.4409 6.6089,5.3529 11.0929,5.3529 C15.3939,5.3529 19.4249,3.7409 22.4439,0.8129 L23.1399,0.1379 L23.8359,0.8129 C26.9449,3.8259 30.9479,5.4939 35.1159,5.5129 C39.2839,5.4939 43.2869,3.8259 46.3949,0.8129 L47.0909,0.1379 L47.7879,0.8129 C50.7709,3.7059 54.8019,5.2999 59.1369,5.2999 C63.3649,5.2999 67.2379,3.7109 70.3369,0.7059 L71.0339,0.0319 L71.7299,0.7059 C74.8299,3.7109 78.7029,5.2999 82.9299,5.2999 C87.1949,5.2999 91.2249,3.6679 94.2799,0.7059 L94.9759,0.0319 L95.6719,0.7059 C98.7279,3.6679 102.7589,5.2999 107.0229,5.2999 C111.2769,5.2999 115.3019,3.6679 118.3569,0.7059 L119.0529,0.0319 L119.7499,0.7059 C121.8049,2.6999 124.3469,4.1179 127.0989,4.8099 L126.6129,6.7489 C123.8239,6.0489 121.2289,4.6849 119.0529,2.7839 C115.7189,5.7029 111.4839,7.2999 107.0229,7.2999 C102.5529,7.2999 98.3119,5.7019 94.9759,2.7839 C91.6409,5.7029 87.3999,7.2999 82.9299,7.2999 C78.4849,7.2999 74.3909,5.7419 71.0339,2.7849 C67.6759,5.7419 63.5829,7.2999 59.1369,7.2999 C54.6079,7.2999 50.3689,5.7409 47.0929,2.8899 C43.7349,5.8459 39.5449,7.4779 35.1869,7.5119 L35.1869,7.5129 Z" transform="translate(0 87.51)"/>
    <path fill="#003064" d="M95.1059,104.8159 C90.6979,104.8159 86.6389,103.2599 83.3099,100.3059 C79.9819,103.2599 75.9229,104.8159 71.5149,104.8159 C67.0839,104.8159 62.8769,103.2199 59.5699,100.3039 C56.2629,103.2199 52.0569,104.8159 47.6259,104.8159 C43.2149,104.8159 39.0239,103.2209 35.7179,100.3039 C32.4109,103.2199 28.2119,104.8159 23.7929,104.8159 C19.3839,104.8159 15.3259,103.2599 11.9969,100.3059 C8.6679,103.2599 4.6099,104.8159 0.2019,104.8159 L0.2019,102.8159 C4.3899,102.8159 8.2269,101.2279 11.2969,98.2249 L11.9969,97.5419 L12.6959,98.2249 C15.7669,101.2279 19.6049,102.8159 23.7929,102.8159 C28.0039,102.8159 31.9919,101.1849 35.0189,98.2249 L35.7179,97.5419 L36.4179,98.2249 C39.4439,101.1849 43.4239,102.8159 47.6259,102.8159 C51.8499,102.8159 55.8439,101.1849 58.8709,98.2249 L59.5699,97.5419 L60.2689,98.2249 C63.2959,101.1849 67.2909,102.8159 71.5149,102.8159 C75.7039,102.8159 79.5409,101.2279 82.6109,98.2249 L83.3099,97.5419 L84.0089,98.2249 C87.0809,101.2279 90.9189,102.8159 95.1059,102.8159 C99.3299,102.8159 103.3239,101.1849 106.3509,98.2249 L107.0499,97.5419 L107.7499,98.2249 C110.3539,100.7719 113.7719,102.3739 117.3729,102.7349 L117.1729,104.7249 C113.4379,104.3499 109.8779,102.7899 107.0509,100.3039 C103.7429,103.2199 99.5379,104.8159 95.1059,104.8159"/>
    <mask id="d" fill="white">
      <use xlink:href="#c"/>
    </mask>
    <polygon fill="#003064" points="50.067 83.023 52.067 83.023 52.067 48.023 50.067 48.023" mask="url(#d)"/>
    <path fill="#003064" d="M83.0229,81.0229 L61.0669,81.0229 L61.0669,79.0229 L83.0229,79.0229 C83.5679,79.0229 83.8249,78.6279 83.9099,78.4589 C83.9779,78.3209 84.1749,77.8349 83.8239,77.3659 L51.2729,33.9389 L33.0999,77.5959 C32.9659,77.9189 33.0029,78.2739 33.2019,78.5729 C33.3929,78.8589 33.6919,79.0229 34.0229,79.0229 L51.0669,79.0229 L51.0669,81.0229 L34.0229,81.0229 C33.0269,81.0229 32.0969,80.5219 31.5379,79.6819 C30.9699,78.8309 30.8639,77.7629 31.2539,76.8269 L50.7729,29.9369 L85.4229,76.1669 C86.1149,77.0879 86.2199,78.3089 85.6979,79.3529 C85.1829,80.3829 84.1579,81.0229 83.0229,81.0229" mask="url(#d)"/>
    <path fill="#003064" d="M51.0258 45.9096C50.7558 45.9096 50.5058 45.8006 50.3158 45.6096 50.1268 45.4206 50.0258 45.1706 50.0258 44.9096 50.0258 44.7796 50.0468 44.6496 50.0958 44.5196 50.1458 44.3996 50.2258 44.2906 50.3158 44.1996 50.5468 43.9706 50.8958 43.8596 51.2158 43.9306 51.2758 43.9396 51.3458 43.9606 51.4058 43.9796 51.4658 44.0106 51.5258 44.0406 51.5768 44.0796 51.6358 44.1096 51.6858 44.1496 51.7258 44.1996 51.9168 44.3896 52.0258 44.6396 52.0258 44.9096 52.0258 45.1706 51.9168 45.4206 51.7258 45.6096 51.5468 45.8006 51.2968 45.9096 51.0258 45.9096M81.6449 90.8217L80.4439 89.2237 86.0299 85.0227 79.0669 85.0227 79.0669 83.0227 89.0229 83.0227C89.4539 83.0227 89.8349 83.2987 89.9709 83.7067 90.1079 84.1137 89.9679 84.5637 89.6239 84.8217L81.6449 90.8217z" mask="url(#d)"/>
    <path fill="#003064" d="M34.3373,90.7309 L28.3163,84.7309 C28.0303,84.4459 27.9433,84.0149 28.0993,83.6409 C28.2533,83.2669 28.6183,83.0229 29.0233,83.0229 L80.0663,83.0229 L80.0663,85.0229 L31.4423,85.0229 L35.7493,89.3149 L34.3373,90.7309 Z" mask="url(#d)"/>
    <polygon fill="#003064" points="54.067 84.023 56.067 84.023 56.067 64.023 54.067 64.023" mask="url(#d)"/>
    <path fill="#003064" d="M55.0258,60.9096 C54.7558,60.9096 54.5058,60.8006 54.3158,60.6096 C54.1268,60.4306 54.0258,60.1706 54.0258,59.9096 C54.0258,59.7796 54.0468,59.6496 54.0958,59.5296 C54.1458,59.3996 54.2258,59.2906 54.3158,59.1996 C54.3558,59.1496 54.4168,59.1096 54.4658,59.0796 C54.5258,59.0406 54.5768,59.0106 54.6358,58.9796 C54.6958,58.9606 54.7658,58.9396 54.8268,58.9306 C55.1558,58.8596 55.4968,58.9706 55.7258,59.1996 C55.8268,59.2906 55.8958,59.3996 55.9458,59.5296 C55.9968,59.6496 56.0158,59.7796 56.0158,59.9096 C56.0158,60.1806 55.9168,60.4306 55.7258,60.6096 C55.5368,60.8006 55.2868,60.9096 55.0258,60.9096" mask="url(#d)"/>
    <polygon fill="#003064" points="20.067 132.023 22.067 132.023 22.067 128.023 20.067 128.023" mask="url(#d)"/>
    <polygon fill="#003064" points="20.067 142.023 22.067 142.023 22.067 138.023 20.067 138.023" mask="url(#d)"/>
    <polygon fill="#003064" points="24.067 136.023 28.067 136.023 28.067 134.023 24.067 134.023" mask="url(#d)"/>
    <polygon fill="#003064" points="14.067 136.023 18.067 136.023 18.067 134.023 14.067 134.023" mask="url(#d)"/>
    <polygon fill="#003064" points="80.067 162.023 82.067 162.023 82.067 158.023 80.067 158.023" mask="url(#d)"/>
    <polygon fill="#003064" points="80.067 172.023 82.067 172.023 82.067 168.023 80.067 168.023" mask="url(#d)"/>
    <polygon fill="#003064" points="84.067 166.023 88.067 166.023 88.067 164.023 84.067 164.023" mask="url(#d)"/>
    <polygon fill="#003064" points="74.067 166.023 78.067 166.023 78.067 164.023 74.067 164.023" mask="url(#d)"/>
    <polygon fill="#003064" points="20.067 42.023 22.067 42.023 22.067 38.023 20.067 38.023" mask="url(#d)"/>
    <polygon fill="#003064" points="20.067 52.023 22.067 52.023 22.067 48.023 20.067 48.023" mask="url(#d)"/>
    <polygon fill="#003064" points="24.067 46.023 28.067 46.023 28.067 44.023 24.067 44.023" mask="url(#d)"/>
    <polygon fill="#003064" points="14.067 46.023 18.067 46.023 18.067 44.023 14.067 44.023" mask="url(#d)"/>
    <path fill="#FFD15D" d="M62.5258 143.9399C63.3538 143.9399 64.0258 144.6109 64.0258 145.4399 64.0258 146.2679 63.3538 146.9399 62.5258 146.9399 61.6968 146.9399 61.0258 146.2679 61.0258 145.4399 61.0258 144.6109 61.6968 143.9399 62.5258 143.9399M45.0258 124.4399C45.5778 124.4399 46.0258 124.8869 46.0258 125.4399 46.0258 125.9919 45.5778 126.4399 45.0258 126.4399 44.4728 126.4399 44.0258 125.9919 44.0258 125.4399 44.0258 124.8869 44.4728 124.4399 45.0258 124.4399M80.0258 119.4399C80.8538 119.4399 81.5258 120.1109 81.5258 120.9399 81.5258 121.7679 80.8538 122.4399 80.0258 122.4399 79.1968 122.4399 78.5258 121.7679 78.5258 120.9399 78.5258 120.1109 79.1968 119.4399 80.0258 119.4399M13.7758 169.4399C14.7418 169.4399 15.5258 170.2229 15.5258 171.1899 15.5258 172.1559 14.7418 172.9399 13.7758 172.9399 12.8088 172.9399 12.0258 172.1559 12.0258 171.1899 12.0258 170.2229 12.8088 169.4399 13.7758 169.4399" mask="url(#d)"/>
    <polygon fill="#EBEFF3" points="171.963 170.555 145.49 170.555 144.095 154.34 173.359 154.34" mask="url(#d)"/>
    <polygon fill="#EBEFF3" points="153.648 64.603 156.048 66.315 162.04 66.315 164.305 63.915 164.305 69.973 158.727 83.569 153.149 68.984" mask="url(#d)"/>
    <path fill="#003064" d="M147.3061,70.5375 C145.0011,67.1755 143.7831,63.2435 143.7831,59.1665 L143.7831,48.3565 C143.7831,40.1165 150.4871,33.4125 158.7271,33.4125 C166.9681,33.4125 173.6721,40.1165 173.6721,48.3565 L173.6721,60.4985 C173.6721,63.6585 172.9131,66.8165 171.4791,69.6315 L171.0741,70.4265 L169.2921,69.5175 L169.6981,68.7235 C170.9901,66.1885 171.6721,63.3455 171.6721,60.4985 L171.6721,48.3565 C171.6721,41.2195 165.8661,35.4125 158.7281,35.4125 C151.5901,35.4125 145.7831,41.2195 145.7831,48.3565 L145.7831,59.1665 C145.7831,62.8385 146.8801,66.3795 148.9561,69.4065 L147.3061,70.5375 Z" mask="url(#d)"/>
    <polygon fill="#003064" points="152.15 70.67 154.15 70.67 154.15 63.696 152.15 63.696" mask="url(#d)"/>
    <path fill="#003064" d="M165.3051,70.6694 L163.3051,70.6694 L163.3051,63.5054 L164.0311,62.7734 C164.6591,62.1484 165.3691,61.4414 165.8481,60.7134 C166.3941,59.8834 166.8801,58.8654 167.2931,57.6894 L167.4051,57.3694 L168.8831,56.3984 L168.8831,54.4024 C167.2781,53.9634 166.0941,52.4904 166.0941,50.7474 L166.0941,49.3574 L151.3611,49.3574 L151.3611,50.7474 C151.3611,52.4904 150.1771,53.9634 148.5721,54.4024 L148.5721,56.3984 L150.0501,57.3694 L150.1611,57.6894 C150.5751,58.8654 151.0611,59.8834 151.6071,60.7144 C152.8771,62.6474 154.6351,64.1954 155.5701,64.9464 C155.9931,65.2884 156.5381,65.4794 157.1031,65.4844 L160.3621,65.4844 L160.3621,67.4844 L157.0931,67.4844 C156.0711,67.4754 155.0881,67.1264 154.3161,66.5054 C153.0631,65.4984 151.2851,63.8664 149.9351,61.8134 C149.3521,60.9244 148.8321,59.8694 148.3901,58.6724 L146.5721,57.4794 L146.5721,52.5364 L147.5721,52.5364 C148.5581,52.5364 149.3611,51.7334 149.3611,50.7474 L149.3611,47.3574 L168.0941,47.3574 L168.0941,50.7474 C168.0941,51.7334 168.8971,52.5364 169.8831,52.5364 L170.8831,52.5364 L170.8831,57.4794 L169.0651,58.6724 C168.6221,59.8694 168.1031,60.9244 167.5201,61.8124 C166.9271,62.7134 166.1381,63.4984 165.4411,64.1914 L165.3051,64.3274 L165.3051,70.6694 Z" mask="url(#d)"/>
    <polygon fill="#003064" points="144.783 155.34 172.673 155.34 172.673 153.34 144.783 153.34" mask="url(#d)"/>
    <polygon fill="#003064" points="157.728 181.51 159.728 181.51 159.728 154.34 157.728 154.34" mask="url(#d)"/>
    <polygon fill="#003064" points="187.618 135.817 181.04 135.817 181.04 133.817 185.618 133.817 185.618 123.661 187.618 123.661" mask="url(#d)"/>
    <path fill="#003064" d="M128.4877,127.3959 L116.4867,120.7699 L136.0437,78.2379 C137.5107,72.7779 142.4687,68.9719 148.1317,68.9719 L153.7927,68.9719 L158.7237,81.8149 L163.6157,68.9729 L170.1827,68.9719 C175.8117,68.9719 180.7777,72.7649 182.2597,78.1959 L190.6017,124.6609 L178.2507,124.6609 L178.2507,122.6609 L188.2117,122.6609 L180.3107,78.6359 C179.0857,74.1599 174.9127,70.9719 170.1827,70.9719 L164.9947,70.9729 L158.7317,87.4149 L152.4177,70.9719 L148.1317,70.9719 C143.3477,70.9719 139.1637,74.2039 137.9557,78.8309 L137.8957,78.9959 L119.0807,119.9169 L127.6047,124.6249 L141.4787,95.9089 L143.2797,96.7779 L128.4877,127.3959 Z" mask="url(#d)"/>
    <polygon fill="#003064" points="147.307 181.638 143.904 155.34 133.157 155.34 140.995 112.405 141.458 90.172 143.458 90.213 142.977 112.685 135.555 153.34 145.661 153.34 149.291 181.382" mask="url(#d)"/>
    <polygon fill="#003064" points="170.211 181.636 168.227 181.384 171.791 153.34 183.316 153.34 174.461 112.516 174.229 90.203 176.229 90.182 176.46 112.393 185.799 155.34 173.553 155.34" mask="url(#d)"/>
    <path fill="#003064" d="M146.5766,112.5004 C146.5766,111.9494 147.0156,111.5004 147.5656,111.5004 C148.1266,111.5004 148.5656,111.9494 148.5656,112.5004 C148.5656,113.0604 148.1266,113.5104 147.5656,113.5104 C147.0156,113.5104 146.5766,113.0604 146.5766,112.5004 M150.5656,112.5004 C150.5656,111.9494 151.0156,111.5004 151.5656,111.5004 C152.1266,111.5004 152.5656,111.9494 152.5656,112.5004 C152.5656,113.0604 152.1266,113.5104 151.5656,113.5104 C151.0156,113.5104 150.5656,113.0604 150.5656,112.5004 M154.5656,112.5004 C154.5656,111.9494 155.0156,111.5004 155.5656,111.5004 C156.1266,111.5004 156.5656,111.9494 156.5656,112.5004 C156.5656,113.0604 156.1266,113.5104 155.5656,113.5104 C155.0156,113.5104 154.5656,113.0604 154.5656,112.5004 M158.5656,112.5004 C158.5656,111.9494 159.0156,111.5004 159.5656,111.5004 C160.1266,111.5004 160.5656,111.9494 160.5656,112.5004 C160.5656,113.0604 160.1266,113.5104 159.5656,113.5104 C159.0156,113.5104 158.5656,113.0604 158.5656,112.5004 M162.5656,112.5004 C162.5656,111.9494 163.0156,111.5004 163.5656,111.5004 C164.1266,111.5004 164.5656,111.9494 164.5656,112.5004 C164.5656,113.0604 164.1266,113.5104 163.5656,113.5104 C163.0156,113.5104 162.5656,113.0604 162.5656,112.5004 M166.5656,112.5004 C166.5656,111.9494 167.0156,111.5004 167.5656,111.5004 C168.1266,111.5004 168.5656,111.9494 168.5656,112.5004 C168.5656,113.0604 168.1266,113.5104 167.5656,113.5104 C167.0156,113.5104 166.5656,113.0604 166.5656,112.5004" mask="url(#d)"/>
  </g>
</svg>
