<svg xmlns="http://www.w3.org/2000/svg" width="256" height="256" viewBox="0 0 256 256">
  <g fill="none" fill-rule="evenodd">
    <circle cx="128" cy="128" r="128" fill="#002F63"/>
    <path fill="#FFFFFF" d="M94.98,110.826 L102.338,110.826 L102.338,129 L98.438,129 L98.438,114.284 L94.98,114.284 L94.98,110.826 Z M110.086,119.822 C110.086,121.642009 110.371997,123.106661 110.944,124.216 C111.516003,125.325339 112.408661,125.88 113.622,125.88 C114.835339,125.88 115.727997,125.325339 116.3,124.216 C116.872003,123.106661 117.158,121.642009 117.158,119.822 C117.158,118.001991 116.872003,116.537339 116.3,115.428 C115.727997,114.318661 114.835339,113.764 113.622,113.764 C112.408661,113.764 111.516003,114.318661 110.944,115.428 C110.371997,116.537339 110.086,118.001991 110.086,119.822 Z M107.98,126.647 C106.731994,124.939658 106.108,122.660348 106.108,119.809 C106.108,116.957652 106.731994,114.678342 107.98,112.971 C109.228006,111.263658 111.108654,110.41 113.622,110.41 C116.135346,110.41 118.015994,111.263658 119.264,112.971 C120.512006,114.678342 121.136,116.957652 121.136,119.809 C121.136,122.660348 120.512006,124.939658 119.264,126.647 C118.015994,128.354342 116.135346,129.208 113.622,129.208 C111.108654,129.208 109.228006,128.354342 107.98,126.647 Z M128.026,119.822 C128.026,121.642009 128.311997,123.106661 128.884,124.216 C129.456003,125.325339 130.348661,125.88 131.562,125.88 C132.775339,125.88 133.667997,125.325339 134.24,124.216 C134.812003,123.106661 135.098,121.642009 135.098,119.822 C135.098,118.001991 134.812003,116.537339 134.24,115.428 C133.667997,114.318661 132.775339,113.764 131.562,113.764 C130.348661,113.764 129.456003,114.318661 128.884,115.428 C128.311997,116.537339 128.026,118.001991 128.026,119.822 Z M125.92,126.647 C124.671994,124.939658 124.048,122.660348 124.048,119.809 C124.048,116.957652 124.671994,114.678342 125.92,112.971 C127.168006,111.263658 129.048654,110.41 131.562,110.41 C134.075346,110.41 135.955994,111.263658 137.204,112.971 C138.452006,114.678342 139.076,116.957652 139.076,119.809 C139.076,122.660348 138.452006,124.939658 137.204,126.647 C135.955994,128.354342 134.075346,129.208 131.562,129.208 C129.048654,129.208 127.168006,128.354342 125.92,126.647 Z M159.85,110.826 L146.824,129 L142.352,129 L155.404,110.826 L159.85,110.826 Z M156.262,126.842 C156.574002,126.842 156.833999,126.725001 157.042,126.491 C157.250001,126.256999 157.354,125.949335 157.354,125.568 C157.354,125.186665 157.250001,124.870335 157.042,124.619 C156.833999,124.367665 156.578335,124.242 156.275,124.242 C155.971665,124.242 155.716001,124.367665 155.508,124.619 C155.299999,124.870335 155.196,125.186665 155.196,125.568 C155.196,125.949335 155.295666,126.256999 155.495,126.491 C155.694334,126.725001 155.949998,126.842 156.262,126.842 Z M159.018,128.155 C158.289996,128.857004 157.375672,129.208 156.275,129.208 C155.174328,129.208 154.260004,128.85267 153.532,128.142 C152.803996,127.43133 152.44,126.569005 152.44,125.555 C152.44,124.540995 152.803996,123.67867 153.532,122.968 C154.260004,122.25733 155.174328,121.902 156.275,121.902 C157.375672,121.902 158.289996,122.25733 159.018,122.968 C159.746004,123.67867 160.11,124.545328 160.11,125.568 C160.11,126.590672 159.746004,127.452996 159.018,128.155 Z M146.018,116.208 C146.330002,116.208 146.589999,116.091001 146.798,115.857 C147.006001,115.622999 147.11,115.315335 147.11,114.934 C147.11,114.552665 147.006001,114.236335 146.798,113.985 C146.589999,113.733665 146.334335,113.608 146.031,113.608 C145.727665,113.608 145.472001,113.733665 145.264,113.985 C145.055999,114.236335 144.952,114.552665 144.952,114.934 C144.952,115.315335 145.051666,115.622999 145.251,115.857 C145.450334,116.091001 145.705998,116.208 146.018,116.208 Z M148.774,117.521 C148.045996,118.223004 147.131672,118.574 146.031,118.574 C144.930328,118.574 144.016004,118.21867 143.288,117.508 C142.559996,116.79733 142.196,115.935005 142.196,114.921 C142.196,113.906995 142.559996,113.04467 143.288,112.334 C144.016004,111.62333 144.930328,111.268 146.031,111.268 C147.131672,111.268 148.045996,111.62333 148.774,112.334 C149.502004,113.04467 149.866,113.911328 149.866,114.934 C149.866,115.956672 149.502004,116.818996 148.774,117.521 Z M92.592,151 L89.168,142.488 L91.024,142.488 L93.616,148.92 L96.208,142.488 L98.064,142.488 L94.64,151 L92.592,151 Z M103.408,149.528 C104.186671,149.528 104.829331,149.269336 105.336,148.752 C105.842669,148.234664 106.096,147.565337 106.096,146.744 C106.096,145.922663 105.842669,145.253336 105.336,144.736 C104.829331,144.218664 104.186671,143.96 103.408,143.96 C102.629329,143.96 101.986669,144.218664 101.48,144.736 C100.973331,145.253336 100.72,145.922663 100.72,146.744 C100.72,147.565337 100.973331,148.234664 101.48,148.752 C101.986669,149.269336 102.629329,149.528 103.408,149.528 Z M103.408,151.128 C102.127994,151.128 101.061338,150.704004 100.208,149.856 C99.3546624,149.007996 98.928,147.970673 98.928,146.744 C98.928,145.517327 99.3546624,144.480004 100.208,143.632 C101.061338,142.783996 102.127994,142.36 103.408,142.36 C104.688006,142.36 105.754662,142.783996 106.608,143.632 C107.461338,144.480004 107.888,145.517327 107.888,146.744 C107.888,147.970673 107.461338,149.007996 106.608,149.856 C105.754662,150.704004 104.688006,151.128 103.408,151.128 Z M104.592,141.448 C104.314665,141.448 103.928002,141.322668 103.432,141.072 C102.935998,140.821332 102.618667,140.696 102.48,140.696 C102.127998,140.696 101.946667,140.930664 101.936,141.4 L100.752,141.4 C100.752,140.78133 100.877332,140.280002 101.128,139.896 C101.378668,139.511998 101.727998,139.32 102.176,139.32 C102.464001,139.32 102.863997,139.445332 103.376,139.696 C103.888003,139.946668 104.223999,140.072 104.384,140.072 C104.704002,140.072 104.864,139.837336 104.864,139.368 L106.064,139.368 C106.032,140.754674 105.541338,141.448 104.592,141.448 Z M111.712,151 L109.92,151 L109.92,139.128 L111.712,139.128 L111.712,151 Z M121.2,151 L119.568,151 L119.568,149.864 C118.863996,150.706671 117.920006,151.128 116.736,151.128 C115.850662,151.128 115.117336,150.877336 114.536,150.376 C113.954664,149.874664 113.664,149.205338 113.664,148.368 C113.664,147.530662 113.97333,146.904002 114.592,146.488 C115.21067,146.071998 116.047995,145.864 117.104,145.864 L119.424,145.864 L119.424,145.544 C119.424,144.413328 118.794673,143.848 117.536,143.848 C116.746663,143.848 115.925338,144.135997 115.072,144.712 L114.272,143.592 C115.306672,142.770663 116.479993,142.36 117.792,142.36 C118.794672,142.36 119.61333,142.613331 120.248,143.12 C120.88267,143.626669 121.2,144.423995 121.2,145.512 L121.2,151 Z M119.408,147.832 L119.408,147.112 L117.392,147.112 C116.101327,147.112 115.456,147.517329 115.456,148.328 C115.456,148.744002 115.615998,149.061332 115.936,149.28 C116.256002,149.498668 116.70133,149.608 117.272,149.608 C117.84267,149.608 118.341331,149.448002 118.768,149.128 C119.194669,148.807998 119.408,148.376003 119.408,147.832 Z M125.488,151 L123.696,151 L123.696,139.128 L125.488,139.128 L125.488,146.104 L128.944,142.488 L131.248,142.488 L128.016,145.864 L131.488,151 L129.312,151 L126.784,147.272 L125.488,148.584 L125.488,151 Z M134.784,151 L132.992,151 L132.992,142.488 L134.784,142.488 L134.784,151 Z M132.768,139.992 C132.768,139.682665 132.879999,139.416001 133.104,139.192 C133.328001,138.967999 133.594665,138.856 133.904,138.856 C134.213335,138.856 134.479999,138.967999 134.704,139.192 C134.928001,139.416001 135.04,139.682665 135.04,139.992 C135.04,140.301335 134.928001,140.567999 134.704,140.792 C134.479999,141.016001 134.213335,141.128 133.904,141.128 C133.594665,141.128 133.328001,141.016001 133.104,140.792 C132.879999,140.567999 132.768,140.301335 132.768,139.992 Z M141.84,144.168 C140.954662,144.168 140.288002,144.455997 139.84,145.032 C139.391998,145.608003 139.168,146.381328 139.168,147.352 L139.168,151 L137.376,151 L137.376,142.488 L139.168,142.488 L139.168,144.2 C139.456001,143.666664 139.847998,143.229335 140.344,142.888 C140.840002,142.546665 141.365331,142.370667 141.92,142.36 L141.936,144.168 L141.84,144.168 Z M143.728,151.4 L143.728,142.488 L145.52,142.488 L145.52,151.464 C145.52,152.360004 145.250669,153.071997 144.712,153.6 C144.173331,154.128003 143.52267,154.392 142.76,154.392 C141.99733,154.392 141.301336,154.109336 140.672,153.544 L141.504,152.2 C141.866668,152.552002 142.231998,152.728 142.6,152.728 C142.968002,152.728 143.247999,152.610668 143.44,152.376 C143.632001,152.141332 143.728,151.816002 143.728,151.4 Z M143.472,139.992 C143.472,139.682665 143.583999,139.416001 143.808,139.192 C144.032001,138.967999 144.298665,138.856 144.608,138.856 C144.917335,138.856 145.183999,138.967999 145.408,139.192 C145.632001,139.416001 145.744,139.682665 145.744,139.992 C145.744,140.301335 145.632001,140.567999 145.408,140.792 C145.183999,141.016001 144.917335,141.128 144.608,141.128 C144.298665,141.128 144.032001,141.016001 143.808,140.792 C143.583999,140.567999 143.472,140.301335 143.472,139.992 Z M155.008,151 L153.376,151 L153.376,149.864 C152.671996,150.706671 151.728006,151.128 150.544,151.128 C149.658662,151.128 148.925336,150.877336 148.344,150.376 C147.762664,149.874664 147.472,149.205338 147.472,148.368 C147.472,147.530662 147.78133,146.904002 148.4,146.488 C149.01867,146.071998 149.855995,145.864 150.912,145.864 L153.232,145.864 L153.232,145.544 C153.232,144.413328 152.602673,143.848 151.344,143.848 C150.554663,143.848 149.733338,144.135997 148.88,144.712 L148.08,143.592 C149.114672,142.770663 150.287993,142.36 151.6,142.36 C152.602672,142.36 153.42133,142.613331 154.056,143.12 C154.69067,143.626669 155.008,144.423995 155.008,145.512 L155.008,151 Z M153.216,147.832 L153.216,147.112 L151.2,147.112 C149.909327,147.112 149.264,147.517329 149.264,148.328 C149.264,148.744002 149.423998,149.061332 149.744,149.28 C150.064002,149.498668 150.50933,149.608 151.08,149.608 C151.65067,149.608 152.149331,149.448002 152.576,149.128 C153.002669,148.807998 153.216,148.376003 153.216,147.832 Z M158.16,149.912 C157.359996,149.101329 156.96,148.034673 156.96,146.712 C156.96,145.389327 157.370663,144.333337 158.192,143.544 C159.013337,142.754663 159.991994,142.36 161.128,142.36 C162.264006,142.36 163.178663,142.839995 163.872,143.8 L163.872,139.128 L165.664,139.128 L165.664,151 L163.872,151 L163.872,149.72 C163.210663,150.658671 162.24534,151.128 160.976,151.128 C159.898661,151.128 158.960004,150.722671 158.16,149.912 Z M159.536,148.776 C160.058669,149.288003 160.671996,149.544 161.376,149.544 C162.080004,149.544 162.677331,149.285336 163.168,148.768 C163.658669,148.250664 163.904,147.586671 163.904,146.776 C163.904,145.965329 163.658669,145.288003 163.168,144.744 C162.677331,144.199997 162.07467,143.928 161.36,143.928 C160.64533,143.928 160.032003,144.199997 159.52,144.744 C159.007997,145.288003 158.752,145.967996 158.752,146.784 C158.752,147.600004 159.013331,148.263997 159.536,148.776 Z"/>
  </g>
</svg>
